<?xml version="1.0" encoding="utf-8" ?>
<svg baseProfile="full" height="57.5mm" version="1.1" viewBox="0,0,306.20000000000005,57.5" width="306.20000000000005mm" xmlns="http://www.w3.org/2000/svg" xmlns:ev="http://www.w3.org/2001/xml-events" xmlns:xlink="http://www.w3.org/1999/xlink"><defs /><rect fill="#FFFFFF" height="57.5" width="306.20000000000005" x="0" y="0" /><text fill="#000000" style="font-size:6px; font-family:Arial; font-weight:bold;" x="10" y="10">elvinn 的微信读书记录</text><text fill="#000000" style="font-size:3px; font-family:Arial;" x="10" y="14.4">2023: 61 hours</text><text fill="#000000" style="font-size:2.5px; font-family:Arial" x="10" y="18.3">Jan</text><rect fill="#EBEDF0" height="4" rx="1" ry="1" width="4" x="10" y="19.7"><title>2022-12-26</title></rect><rect fill="#EBEDF0" height="4" rx="1" ry="1" width="4" x="10" y="25.1"><title>2022-12-27</title></rect><rect fill="#80c6fc" height="4" rx="1" ry="1" width="4" x="10" y="30.5"><title>2022-12-28 6.67 mins</title></rect><rect fill="#80c6fc" height="4" rx="1" ry="1" width="4" x="10" y="35.9"><title>2022-12-29 4.27 mins</title></rect><rect fill="#EBEDF0" height="4" rx="1" ry="1" width="4" x="10" y="41.300000000000004"><title>2022-12-30</title></rect><rect fill="#EBEDF0" height="4" rx="1" ry="1" width="4" x="10" y="46.699999999999996"><title>2022-12-31</title></rect><rect fill="#EBEDF0" height="4" rx="1" ry="1" width="4" x="10" y="52.1"><title>2023-01-01</title></rect><rect fill="#80c5fc" height="4" rx="1" ry="1" width="4" x="15.4" y="19.7"><title>2023-01-02 9.83 mins</title></rect><rect fill="#EBEDF0" height="4" rx="1" ry="1" width="4" x="15.4" y="25.1"><title>2023-01-03</title></rect><rect fill="#EBEDF0" height="4" rx="1" ry="1" width="4" x="15.4" y="30.5"><title>2023-01-04</title></rect><rect fill="#EBEDF0" height="4" rx="1" ry="1" width="4" x="15.4" y="35.9"><title>2023-01-05</title></rect><rect fill="#EBEDF0" height="4" rx="1" ry="1" width="4" x="15.4" y="41.300000000000004"><title>2023-01-06</title></rect><rect fill="#EBEDF0" height="4" rx="1" ry="1" width="4" x="15.4" y="46.699999999999996"><title>2023-01-07</title></rect><rect fill="#EBEDF0" height="4" rx="1" ry="1" width="4" x="15.4" y="52.1"><title>2023-01-08</title></rect><rect fill="#EBEDF0" height="4" rx="1" ry="1" width="4" x="20.8" y="19.7"><title>2023-01-09</title></rect><rect fill="#EBEDF0" height="4" rx="1" ry="1" width="4" x="20.8" y="25.1"><title>2023-01-10</title></rect><rect fill="#EBEDF0" height="4" rx="1" ry="1" width="4" x="20.8" y="30.5"><title>2023-01-11</title></rect><rect fill="#EBEDF0" height="4" rx="1" ry="1" width="4" x="20.8" y="35.9"><title>2023-01-12</title></rect><rect fill="#EBEDF0" height="4" rx="1" ry="1" width="4" x="20.8" y="41.300000000000004"><title>2023-01-13</title></rect><rect fill="#EBEDF0" height="4" rx="1" ry="1" width="4" x="20.8" y="46.699999999999996"><title>2023-01-14</title></rect><rect fill="#EBEDF0" height="4" rx="1" ry="1" width="4" x="20.8" y="52.1"><title>2023-01-15</title></rect><rect fill="#EBEDF0" height="4" rx="1" ry="1" width="4" x="26.200000000000003" y="19.7"><title>2023-01-16</title></rect><rect fill="#EBEDF0" height="4" rx="1" ry="1" width="4" x="26.200000000000003" y="25.1"><title>2023-01-17</title></rect><rect fill="#EBEDF0" height="4" rx="1" ry="1" width="4" x="26.200000000000003" y="30.5"><title>2023-01-18</title></rect><rect fill="#81c6fc" height="4" rx="1" ry="1" width="4" x="26.200000000000003" y="35.9"><title>2023-01-19 0.1 mins</title></rect><rect fill="#80c6fc" height="4" rx="1" ry="1" width="4" x="26.200000000000003" y="41.300000000000004"><title>2023-01-20 6.75 mins</title></rect><rect fill="#7ec5fc" height="4" rx="1" ry="1" width="4" x="26.200000000000003" y="46.699999999999996"><title>2023-01-21 19.0 mins</title></rect><rect fill="#57b5fd" height="4" rx="1" ry="1" width="4" x="26.200000000000003" y="52.1"><title>2023-01-22 36.33 mins</title></rect><rect fill="#34A7FF" height="4" rx="1" ry="1" width="4" x="31.6" y="19.7"><title>2023-01-23 109.4 mins</title></rect><rect fill="#34A7FF" height="4" rx="1" ry="1" width="4" x="31.6" y="25.1"><title>2023-01-24 79.05 mins</title></rect><rect fill="#EBEDF0" height="4" rx="1" ry="1" width="4" x="31.6" y="30.5"><title>2023-01-25</title></rect><rect fill="#EBEDF0" height="4" rx="1" ry="1" width="4" x="31.6" y="35.9"><title>2023-01-26</title></rect><rect fill="#EBEDF0" height="4" rx="1" ry="1" width="4" x="31.6" y="41.300000000000004"><title>2023-01-27</title></rect><rect fill="#EBEDF0" height="4" rx="1" ry="1" width="4" x="31.6" y="46.699999999999996"><title>2023-01-28</title></rect><rect fill="#EBEDF0" height="4" rx="1" ry="1" width="4" x="31.6" y="52.1"><title>2023-01-29</title></rect><rect fill="#EBEDF0" height="4" rx="1" ry="1" width="4" x="37.0" y="19.7"><title>2023-01-30</title></rect><rect fill="#EBEDF0" height="4" rx="1" ry="1" width="4" x="37.0" y="25.1"><title>2023-01-31</title></rect><rect fill="#EBEDF0" height="4" rx="1" ry="1" width="4" x="37.0" y="30.5"><title>2023-02-01</title></rect><rect fill="#EBEDF0" height="4" rx="1" ry="1" width="4" x="37.0" y="35.9"><title>2023-02-02</title></rect><rect fill="#EBEDF0" height="4" rx="1" ry="1" width="4" x="37.0" y="41.300000000000004"><title>2023-02-03</title></rect><rect fill="#EBEDF0" height="4" rx="1" ry="1" width="4" x="37.0" y="46.699999999999996"><title>2023-02-04</title></rect><rect fill="#EBEDF0" height="4" rx="1" ry="1" width="4" x="37.0" y="52.1"><title>2023-02-05</title></rect><text fill="#000000" style="font-size:2.5px; font-family:Arial" x="42.4" y="18.3">Feb</text><rect fill="#EBEDF0" height="4" rx="1" ry="1" width="4" x="42.4" y="19.7"><title>2023-02-06</title></rect><rect fill="#EBEDF0" height="4" rx="1" ry="1" width="4" x="42.4" y="25.1"><title>2023-02-07</title></rect><rect fill="#EBEDF0" height="4" rx="1" ry="1" width="4" x="42.4" y="30.5"><title>2023-02-08</title></rect><rect fill="#EBEDF0" height="4" rx="1" ry="1" width="4" x="42.4" y="35.9"><title>2023-02-09</title></rect><rect fill="#81c6fc" height="4" rx="1" ry="1" width="4" x="42.4" y="41.300000000000004"><title>2023-02-10 0.15 mins</title></rect><rect fill="#EBEDF0" height="4" rx="1" ry="1" width="4" x="42.4" y="46.699999999999996"><title>2023-02-11</title></rect><rect fill="#57b5fd" height="4" rx="1" ry="1" width="4" x="42.4" y="52.1"><title>2023-02-12 45.2 mins</title></rect><rect fill="#EBEDF0" height="4" rx="1" ry="1" width="4" x="47.8" y="19.7"><title>2023-02-13</title></rect><rect fill="#EBEDF0" height="4" rx="1" ry="1" width="4" x="47.8" y="25.1"><title>2023-02-14</title></rect><rect fill="#EBEDF0" height="4" rx="1" ry="1" width="4" x="47.8" y="30.5"><title>2023-02-15</title></rect><rect fill="#EBEDF0" height="4" rx="1" ry="1" width="4" x="47.8" y="35.9"><title>2023-02-16</title></rect><rect fill="#81c6fc" height="4" rx="1" ry="1" width="4" x="47.8" y="41.300000000000004"><title>2023-02-17 0.22 mins</title></rect><rect fill="#EBEDF0" height="4" rx="1" ry="1" width="4" x="47.8" y="46.699999999999996"><title>2023-02-18</title></rect><rect fill="#58b5fd" height="4" rx="1" ry="1" width="4" x="47.8" y="52.1"><title>2023-02-19 31.02 mins</title></rect><rect fill="#7ec5fc" height="4" rx="1" ry="1" width="4" x="53.199999999999996" y="19.7"><title>2023-02-20 21.35 mins</title></rect><rect fill="#58b5fd" height="4" rx="1" ry="1" width="4" x="53.199999999999996" y="25.1"><title>2023-02-21 24.73 mins</title></rect><rect fill="#56b4fd" height="4" rx="1" ry="1" width="4" x="53.199999999999996" y="30.5"><title>2023-02-22 60.75 mins</title></rect><rect fill="#80c6fc" height="4" rx="1" ry="1" width="4" x="53.199999999999996" y="35.9"><title>2023-02-23 4.07 mins</title></rect><rect fill="#EBEDF0" height="4" rx="1" ry="1" width="4" x="53.199999999999996" y="41.300000000000004"><title>2023-02-24</title></rect><rect fill="#EBEDF0" height="4" rx="1" ry="1" width="4" x="53.199999999999996" y="46.699999999999996"><title>2023-02-25</title></rect><rect fill="#EBEDF0" height="4" rx="1" ry="1" width="4" x="53.199999999999996" y="52.1"><title>2023-02-26</title></rect><rect fill="#EBEDF0" height="4" rx="1" ry="1" width="4" x="58.599999999999994" y="19.7"><title>2023-02-27</title></rect><rect fill="#58b5fd" height="4" rx="1" ry="1" width="4" x="58.599999999999994" y="25.1"><title>2023-02-28 24.8 mins</title></rect><rect fill="#34A7FF" height="4" rx="1" ry="1" width="4" x="58.599999999999994" y="30.5"><title>2023-03-01 63.12 mins</title></rect><rect fill="#57b5fd" height="4" rx="1" ry="1" width="4" x="58.599999999999994" y="35.9"><title>2023-03-02 43.42 mins</title></rect><rect fill="#EBEDF0" height="4" rx="1" ry="1" width="4" x="58.599999999999994" y="41.300000000000004"><title>2023-03-03</title></rect><rect fill="#EBEDF0" height="4" rx="1" ry="1" width="4" x="58.599999999999994" y="46.699999999999996"><title>2023-03-04</title></rect><rect fill="#EBEDF0" height="4" rx="1" ry="1" width="4" x="58.599999999999994" y="52.1"><title>2023-03-05</title></rect><text fill="#000000" style="font-size:2.5px; font-family:Arial" x="63.99999999999999" y="18.3">Mar</text><rect fill="#34A7FF" height="4" rx="1" ry="1" width="4" x="63.99999999999999" y="19.7"><title>2023-03-06 63.67 mins</title></rect><rect fill="#81c6fc" height="4" rx="1" ry="1" width="4" x="63.99999999999999" y="25.1"><title>2023-03-07 0.85 mins</title></rect><rect fill="#EBEDF0" height="4" rx="1" ry="1" width="4" x="63.99999999999999" y="30.5"><title>2023-03-08</title></rect><rect fill="#EBEDF0" height="4" rx="1" ry="1" width="4" x="63.99999999999999" y="35.9"><title>2023-03-09</title></rect><rect fill="#34A7FF" height="4" rx="1" ry="1" width="4" x="63.99999999999999" y="41.300000000000004"><title>2023-03-10 172.82 mins</title></rect><rect fill="#7ec5fc" height="4" rx="1" ry="1" width="4" x="63.99999999999999" y="46.699999999999996"><title>2023-03-11 22.45 mins</title></rect><rect fill="#34A7FF" height="4" rx="1" ry="1" width="4" x="63.99999999999999" y="52.1"><title>2023-03-12 206.37 mins</title></rect><rect fill="#81c6fc" height="4" rx="1" ry="1" width="4" x="69.39999999999999" y="19.7"><title>2023-03-13 0.25 mins</title></rect><rect fill="#80c6fc" height="4" rx="1" ry="1" width="4" x="69.39999999999999" y="25.1"><title>2023-03-14 4.23 mins</title></rect><rect fill="#EBEDF0" height="4" rx="1" ry="1" width="4" x="69.39999999999999" y="30.5"><title>2023-03-15</title></rect><rect fill="#81c6fc" height="4" rx="1" ry="1" width="4" x="69.39999999999999" y="35.9"><title>2023-03-16 0.03 mins</title></rect><rect fill="#EBEDF0" height="4" rx="1" ry="1" width="4" x="69.39999999999999" y="41.300000000000004"><title>2023-03-17</title></rect><rect fill="#EBEDF0" height="4" rx="1" ry="1" width="4" x="69.39999999999999" y="46.699999999999996"><title>2023-03-18</title></rect><rect fill="#EBEDF0" height="4" rx="1" ry="1" width="4" x="69.39999999999999" y="52.1"><title>2023-03-19</title></rect><rect fill="#EBEDF0" height="4" rx="1" ry="1" width="4" x="74.8" y="19.7"><title>2023-03-20</title></rect><rect fill="#EBEDF0" height="4" rx="1" ry="1" width="4" x="74.8" y="25.1"><title>2023-03-21</title></rect><rect fill="#80c5fc" height="4" rx="1" ry="1" width="4" x="74.8" y="30.5"><title>2023-03-22 9.55 mins</title></rect><rect fill="#80c5fc" height="4" rx="1" ry="1" width="4" x="74.8" y="35.9"><title>2023-03-23 9.17 mins</title></rect><rect fill="#81c6fc" height="4" rx="1" ry="1" width="4" x="74.8" y="41.300000000000004"><title>2023-03-24 1.48 mins</title></rect><rect fill="#81c6fc" height="4" rx="1" ry="1" width="4" x="74.8" y="46.699999999999996"><title>2023-03-25 0.65 mins</title></rect><rect fill="#EBEDF0" height="4" rx="1" ry="1" width="4" x="74.8" y="52.1"><title>2023-03-26</title></rect><rect fill="#EBEDF0" height="4" rx="1" ry="1" width="4" x="80.2" y="19.7"><title>2023-03-27</title></rect><rect fill="#EBEDF0" height="4" rx="1" ry="1" width="4" x="80.2" y="25.1"><title>2023-03-28</title></rect><rect fill="#EBEDF0" height="4" rx="1" ry="1" width="4" x="80.2" y="30.5"><title>2023-03-29</title></rect><rect fill="#EBEDF0" height="4" rx="1" ry="1" width="4" x="80.2" y="35.9"><title>2023-03-30</title></rect><rect fill="#EBEDF0" height="4" rx="1" ry="1" width="4" x="80.2" y="41.300000000000004"><title>2023-03-31</title></rect><rect fill="#EBEDF0" height="4" rx="1" ry="1" width="4" x="80.2" y="46.699999999999996"><title>2023-04-01</title></rect><rect fill="#EBEDF0" height="4" rx="1" ry="1" width="4" x="80.2" y="52.1"><title>2023-04-02</title></rect><text fill="#000000" style="font-size:2.5px; font-family:Arial" x="85.60000000000001" y="18.3">Apr</text><rect fill="#EBEDF0" height="4" rx="1" ry="1" width="4" x="85.60000000000001" y="19.7"><title>2023-04-03</title></rect><rect fill="#57b5fd" height="4" rx="1" ry="1" width="4" x="85.60000000000001" y="25.1"><title>2023-04-04 41.18 mins</title></rect><rect fill="#58b5fd" height="4" rx="1" ry="1" width="4" x="85.60000000000001" y="30.5"><title>2023-04-05 23.97 mins</title></rect><rect fill="#EBEDF0" height="4" rx="1" ry="1" width="4" x="85.60000000000001" y="35.9"><title>2023-04-06</title></rect><rect fill="#58b5fd" height="4" rx="1" ry="1" width="4" x="85.60000000000001" y="41.300000000000004"><title>2023-04-07 33.17 mins</title></rect><rect fill="#EBEDF0" height="4" rx="1" ry="1" width="4" x="85.60000000000001" y="46.699999999999996"><title>2023-04-08</title></rect><rect fill="#58b5fd" height="4" rx="1" ry="1" width="4" x="85.60000000000001" y="52.1"><title>2023-04-09 35.75 mins</title></rect><rect fill="#EBEDF0" height="4" rx="1" ry="1" width="4" x="91.00000000000001" y="19.7"><title>2023-04-10</title></rect><rect fill="#7fc5fc" height="4" rx="1" ry="1" width="4" x="91.00000000000001" y="25.1"><title>2023-04-11 16.82 mins</title></rect><rect fill="#80c6fc" height="4" rx="1" ry="1" width="4" x="91.00000000000001" y="30.5"><title>2023-04-12 4.38 mins</title></rect><rect fill="#EBEDF0" height="4" rx="1" ry="1" width="4" x="91.00000000000001" y="35.9"><title>2023-04-13</title></rect><rect fill="#81c6fc" height="4" rx="1" ry="1" width="4" x="91.00000000000001" y="41.300000000000004"><title>2023-04-14 0.03 mins</title></rect><rect fill="#EBEDF0" height="4" rx="1" ry="1" width="4" x="91.00000000000001" y="46.699999999999996"><title>2023-04-15</title></rect><rect fill="#80c5fc" height="4" rx="1" ry="1" width="4" x="91.00000000000001" y="52.1"><title>2023-04-16 10.52 mins</title></rect><rect fill="#EBEDF0" height="4" rx="1" ry="1" width="4" x="96.40000000000002" y="19.7"><title>2023-04-17</title></rect><rect fill="#7ec5fc" height="4" rx="1" ry="1" width="4" x="96.40000000000002" y="25.1"><title>2023-04-18 20.47 mins</title></rect><rect fill="#EBEDF0" height="4" rx="1" ry="1" width="4" x="96.40000000000002" y="30.5"><title>2023-04-19</title></rect><rect fill="#EBEDF0" height="4" rx="1" ry="1" width="4" x="96.40000000000002" y="35.9"><title>2023-04-20</title></rect><rect fill="#7ec5fc" height="4" rx="1" ry="1" width="4" x="96.40000000000002" y="41.300000000000004"><title>2023-04-21 19.08 mins</title></rect><rect fill="#34A7FF" height="4" rx="1" ry="1" width="4" x="96.40000000000002" y="46.699999999999996"><title>2023-04-22 143.73 mins</title></rect><rect fill="#EBEDF0" height="4" rx="1" ry="1" width="4" x="96.40000000000002" y="52.1"><title>2023-04-23</title></rect><rect fill="#EBEDF0" height="4" rx="1" ry="1" width="4" x="101.80000000000003" y="19.7"><title>2023-04-24</title></rect><rect fill="#81c6fc" height="4" rx="1" ry="1" width="4" x="101.80000000000003" y="25.1"><title>2023-04-25 1.18 mins</title></rect><rect fill="#EBEDF0" height="4" rx="1" ry="1" width="4" x="101.80000000000003" y="30.5"><title>2023-04-26</title></rect><rect fill="#56b5fd" height="4" rx="1" ry="1" width="4" x="101.80000000000003" y="35.9"><title>2023-04-27 53.67 mins</title></rect><rect fill="#EBEDF0" height="4" rx="1" ry="1" width="4" x="101.80000000000003" y="41.300000000000004"><title>2023-04-28</title></rect><rect fill="#57b5fd" height="4" rx="1" ry="1" width="4" x="101.80000000000003" y="46.699999999999996"><title>2023-04-29 39.4 mins</title></rect><rect fill="#34A7FF" height="4" rx="1" ry="1" width="4" x="101.80000000000003" y="52.1"><title>2023-04-30 94.8 mins</title></rect><text fill="#000000" style="font-size:2.5px; font-family:Arial" x="107.20000000000003" y="18.3">May</text><rect fill="#EBEDF0" height="4" rx="1" ry="1" width="4" x="107.20000000000003" y="19.7"><title>2023-05-01</title></rect><rect fill="#EBEDF0" height="4" rx="1" ry="1" width="4" x="107.20000000000003" y="25.1"><title>2023-05-02</title></rect><rect fill="#EBEDF0" height="4" rx="1" ry="1" width="4" x="107.20000000000003" y="30.5"><title>2023-05-03</title></rect><rect fill="#EBEDF0" height="4" rx="1" ry="1" width="4" x="107.20000000000003" y="35.9"><title>2023-05-04</title></rect><rect fill="#EBEDF0" height="4" rx="1" ry="1" width="4" x="107.20000000000003" y="41.300000000000004"><title>2023-05-05</title></rect><rect fill="#EBEDF0" height="4" rx="1" ry="1" width="4" x="107.20000000000003" y="46.699999999999996"><title>2023-05-06</title></rect><rect fill="#57b5fd" height="4" rx="1" ry="1" width="4" x="107.20000000000003" y="52.1"><title>2023-05-07 41.43 mins</title></rect><rect fill="#EBEDF0" height="4" rx="1" ry="1" width="4" x="112.60000000000004" y="19.7"><title>2023-05-08</title></rect><rect fill="#EBEDF0" height="4" rx="1" ry="1" width="4" x="112.60000000000004" y="25.1"><title>2023-05-09</title></rect><rect fill="#EBEDF0" height="4" rx="1" ry="1" width="4" x="112.60000000000004" y="30.5"><title>2023-05-10</title></rect><rect fill="#EBEDF0" height="4" rx="1" ry="1" width="4" x="112.60000000000004" y="35.9"><title>2023-05-11</title></rect><rect fill="#EBEDF0" height="4" rx="1" ry="1" width="4" x="112.60000000000004" y="41.300000000000004"><title>2023-05-12</title></rect><rect fill="#EBEDF0" height="4" rx="1" ry="1" width="4" x="112.60000000000004" y="46.699999999999996"><title>2023-05-13</title></rect><rect fill="#EBEDF0" height="4" rx="1" ry="1" width="4" x="112.60000000000004" y="52.1"><title>2023-05-14</title></rect><rect fill="#EBEDF0" height="4" rx="1" ry="1" width="4" x="118.00000000000004" y="19.7"><title>2023-05-15</title></rect><rect fill="#EBEDF0" height="4" rx="1" ry="1" width="4" x="118.00000000000004" y="25.1"><title>2023-05-16</title></rect><rect fill="#EBEDF0" height="4" rx="1" ry="1" width="4" x="118.00000000000004" y="30.5"><title>2023-05-17</title></rect><rect fill="#EBEDF0" height="4" rx="1" ry="1" width="4" x="118.00000000000004" y="35.9"><title>2023-05-18</title></rect><rect fill="#EBEDF0" height="4" rx="1" ry="1" width="4" x="118.00000000000004" y="41.300000000000004"><title>2023-05-19</title></rect><rect fill="#EBEDF0" height="4" rx="1" ry="1" width="4" x="118.00000000000004" y="46.699999999999996"><title>2023-05-20</title></rect><rect fill="#EBEDF0" height="4" rx="1" ry="1" width="4" x="118.00000000000004" y="52.1"><title>2023-05-21</title></rect><rect fill="#EBEDF0" height="4" rx="1" ry="1" width="4" x="123.40000000000005" y="19.7"><title>2023-05-22</title></rect><rect fill="#80c6fc" height="4" rx="1" ry="1" width="4" x="123.40000000000005" y="25.1"><title>2023-05-23 5.07 mins</title></rect><rect fill="#81c6fc" height="4" rx="1" ry="1" width="4" x="123.40000000000005" y="30.5"><title>2023-05-24 2.52 mins</title></rect><rect fill="#80c6fc" height="4" rx="1" ry="1" width="4" x="123.40000000000005" y="35.9"><title>2023-05-25 3.87 mins</title></rect><rect fill="#80c5fc" height="4" rx="1" ry="1" width="4" x="123.40000000000005" y="41.300000000000004"><title>2023-05-26 8.67 mins</title></rect><rect fill="#EBEDF0" height="4" rx="1" ry="1" width="4" x="123.40000000000005" y="46.699999999999996"><title>2023-05-27</title></rect><rect fill="#EBEDF0" height="4" rx="1" ry="1" width="4" x="123.40000000000005" y="52.1"><title>2023-05-28</title></rect><rect fill="#7fc5fc" height="4" rx="1" ry="1" width="4" x="128.80000000000004" y="19.7"><title>2023-05-29 17.03 mins</title></rect><rect fill="#7ec5fc" height="4" rx="1" ry="1" width="4" x="128.80000000000004" y="25.1"><title>2023-05-30 18.47 mins</title></rect><rect fill="#EBEDF0" height="4" rx="1" ry="1" width="4" x="128.80000000000004" y="30.5"><title>2023-05-31</title></rect><rect fill="#EBEDF0" height="4" rx="1" ry="1" width="4" x="128.80000000000004" y="35.9"><title>2023-06-01</title></rect><rect fill="#EBEDF0" height="4" rx="1" ry="1" width="4" x="128.80000000000004" y="41.300000000000004"><title>2023-06-02</title></rect><rect fill="#EBEDF0" height="4" rx="1" ry="1" width="4" x="128.80000000000004" y="46.699999999999996"><title>2023-06-03</title></rect><rect fill="#EBEDF0" height="4" rx="1" ry="1" width="4" x="128.80000000000004" y="52.1"><title>2023-06-04</title></rect><text fill="#000000" style="font-size:2.5px; font-family:Arial" x="134.20000000000005" y="18.3">Jun</text><rect fill="#EBEDF0" height="4" rx="1" ry="1" width="4" x="134.20000000000005" y="19.7"><title>2023-06-05</title></rect><rect fill="#EBEDF0" height="4" rx="1" ry="1" width="4" x="134.20000000000005" y="25.1"><title>2023-06-06</title></rect><rect fill="#EBEDF0" height="4" rx="1" ry="1" width="4" x="134.20000000000005" y="30.5"><title>2023-06-07</title></rect><rect fill="#EBEDF0" height="4" rx="1" ry="1" width="4" x="134.20000000000005" y="35.9"><title>2023-06-08</title></rect><rect fill="#EBEDF0" height="4" rx="1" ry="1" width="4" x="134.20000000000005" y="41.300000000000004"><title>2023-06-09</title></rect><rect fill="#EBEDF0" height="4" rx="1" ry="1" width="4" x="134.20000000000005" y="46.699999999999996"><title>2023-06-10</title></rect><rect fill="#EBEDF0" height="4" rx="1" ry="1" width="4" x="134.20000000000005" y="52.1"><title>2023-06-11</title></rect><rect fill="#80c6fc" height="4" rx="1" ry="1" width="4" x="139.60000000000005" y="19.7"><title>2023-06-12 6.77 mins</title></rect><rect fill="#EBEDF0" height="4" rx="1" ry="1" width="4" x="139.60000000000005" y="25.1"><title>2023-06-13</title></rect><rect fill="#EBEDF0" height="4" rx="1" ry="1" width="4" x="139.60000000000005" y="30.5"><title>2023-06-14</title></rect><rect fill="#EBEDF0" height="4" rx="1" ry="1" width="4" x="139.60000000000005" y="35.9"><title>2023-06-15</title></rect><rect fill="#EBEDF0" height="4" rx="1" ry="1" width="4" x="139.60000000000005" y="41.300000000000004"><title>2023-06-16</title></rect><rect fill="#EBEDF0" height="4" rx="1" ry="1" width="4" x="139.60000000000005" y="46.699999999999996"><title>2023-06-17</title></rect><rect fill="#EBEDF0" height="4" rx="1" ry="1" width="4" x="139.60000000000005" y="52.1"><title>2023-06-18</title></rect><rect fill="#EBEDF0" height="4" rx="1" ry="1" width="4" x="145.00000000000006" y="19.7"><title>2023-06-19</title></rect><rect fill="#EBEDF0" height="4" rx="1" ry="1" width="4" x="145.00000000000006" y="25.1"><title>2023-06-20</title></rect><rect fill="#81c6fc" height="4" rx="1" ry="1" width="4" x="145.00000000000006" y="30.5"><title>2023-06-21 0.53 mins</title></rect><rect fill="#EBEDF0" height="4" rx="1" ry="1" width="4" x="145.00000000000006" y="35.9"><title>2023-06-22</title></rect><rect fill="#EBEDF0" height="4" rx="1" ry="1" width="4" x="145.00000000000006" y="41.300000000000004"><title>2023-06-23</title></rect><rect fill="#EBEDF0" height="4" rx="1" ry="1" width="4" x="145.00000000000006" y="46.699999999999996"><title>2023-06-24</title></rect><rect fill="#EBEDF0" height="4" rx="1" ry="1" width="4" x="145.00000000000006" y="52.1"><title>2023-06-25</title></rect><rect fill="#EBEDF0" height="4" rx="1" ry="1" width="4" x="150.40000000000006" y="19.7"><title>2023-06-26</title></rect><rect fill="#80c6fc" height="4" rx="1" ry="1" width="4" x="150.40000000000006" y="25.1"><title>2023-06-27 8.42 mins</title></rect><rect fill="#EBEDF0" height="4" rx="1" ry="1" width="4" x="150.40000000000006" y="30.5"><title>2023-06-28</title></rect><rect fill="#EBEDF0" height="4" rx="1" ry="1" width="4" x="150.40000000000006" y="35.9"><title>2023-06-29</title></rect><rect fill="#EBEDF0" height="4" rx="1" ry="1" width="4" x="150.40000000000006" y="41.300000000000004"><title>2023-06-30</title></rect><rect fill="#EBEDF0" height="4" rx="1" ry="1" width="4" x="150.40000000000006" y="46.699999999999996"><title>2023-07-01</title></rect><rect fill="#EBEDF0" height="4" rx="1" ry="1" width="4" x="150.40000000000006" y="52.1"><title>2023-07-02</title></rect><text fill="#000000" style="font-size:2.5px; font-family:Arial" x="155.80000000000007" y="18.3">Jul</text><rect fill="#EBEDF0" height="4" rx="1" ry="1" width="4" x="155.80000000000007" y="19.7"><title>2023-07-03</title></rect><rect fill="#EBEDF0" height="4" rx="1" ry="1" width="4" x="155.80000000000007" y="25.1"><title>2023-07-04</title></rect><rect fill="#EBEDF0" height="4" rx="1" ry="1" width="4" x="155.80000000000007" y="30.5"><title>2023-07-05</title></rect><rect fill="#57b5fd" height="4" rx="1" ry="1" width="4" x="155.80000000000007" y="35.9"><title>2023-07-06 47.67 mins</title></rect><rect fill="#EBEDF0" height="4" rx="1" ry="1" width="4" x="155.80000000000007" y="41.300000000000004"><title>2023-07-07</title></rect><rect fill="#EBEDF0" height="4" rx="1" ry="1" width="4" x="155.80000000000007" y="46.699999999999996"><title>2023-07-08</title></rect><rect fill="#57b5fd" height="4" rx="1" ry="1" width="4" x="155.80000000000007" y="52.1"><title>2023-07-09 42.6 mins</title></rect><rect fill="#EBEDF0" height="4" rx="1" ry="1" width="4" x="161.20000000000007" y="19.7"><title>2023-07-10</title></rect><rect fill="#EBEDF0" height="4" rx="1" ry="1" width="4" x="161.20000000000007" y="25.1"><title>2023-07-11</title></rect><rect fill="#57b5fd" height="4" rx="1" ry="1" width="4" x="161.20000000000007" y="30.5"><title>2023-07-12 38.0 mins</title></rect><rect fill="#56b5fd" height="4" rx="1" ry="1" width="4" x="161.20000000000007" y="35.9"><title>2023-07-13 53.05 mins</title></rect><rect fill="#58b5fd" height="4" rx="1" ry="1" width="4" x="161.20000000000007" y="41.300000000000004"><title>2023-07-14 29.1 mins</title></rect><rect fill="#7fc5fc" height="4" rx="1" ry="1" width="4" x="161.20000000000007" y="46.699999999999996"><title>2023-07-15 16.57 mins</title></rect><rect fill="#EBEDF0" height="4" rx="1" ry="1" width="4" x="161.20000000000007" y="52.1"><title>2023-07-16</title></rect><rect fill="#EBEDF0" height="4" rx="1" ry="1" width="4" x="166.60000000000008" y="19.7"><title>2023-07-17</title></rect><rect fill="#7fc5fc" height="4" rx="1" ry="1" width="4" x="166.60000000000008" y="25.1"><title>2023-07-18 14.32 mins</title></rect><rect fill="#57b5fd" height="4" rx="1" ry="1" width="4" x="166.60000000000008" y="30.5"><title>2023-07-19 39.25 mins</title></rect><rect fill="#58b5fd" height="4" rx="1" ry="1" width="4" x="166.60000000000008" y="35.9"><title>2023-07-20 31.08 mins</title></rect><rect fill="#58b5fd" height="4" rx="1" ry="1" width="4" x="166.60000000000008" y="41.300000000000004"><title>2023-07-21 33.5 mins</title></rect><rect fill="#EBEDF0" height="4" rx="1" ry="1" width="4" x="166.60000000000008" y="46.699999999999996"><title>2023-07-22</title></rect><rect fill="#7fc5fc" height="4" rx="1" ry="1" width="4" x="166.60000000000008" y="52.1"><title>2023-07-23 14.53 mins</title></rect><rect fill="#EBEDF0" height="4" rx="1" ry="1" width="4" x="172.00000000000009" y="19.7"><title>2023-07-24</title></rect><rect fill="#80c6fc" height="4" rx="1" ry="1" width="4" x="172.00000000000009" y="25.1"><title>2023-07-25 5.17 mins</title></rect><rect fill="#7fc5fc" height="4" rx="1" ry="1" width="4" x="172.00000000000009" y="30.5"><title>2023-07-26 15.52 mins</title></rect><rect fill="#81c6fc" height="4" rx="1" ry="1" width="4" x="172.00000000000009" y="35.9"><title>2023-07-27 2.5 mins</title></rect><rect fill="#EBEDF0" height="4" rx="1" ry="1" width="4" x="172.00000000000009" y="41.300000000000004"><title>2023-07-28</title></rect><rect fill="#EBEDF0" height="4" rx="1" ry="1" width="4" x="172.00000000000009" y="46.699999999999996"><title>2023-07-29</title></rect><rect fill="#56b4fd" height="4" rx="1" ry="1" width="4" x="172.00000000000009" y="52.1"><title>2023-07-30 56.3 mins</title></rect><rect fill="#81c6fc" height="4" rx="1" ry="1" width="4" x="177.4000000000001" y="19.7"><title>2023-07-31 0.02 mins</title></rect><rect fill="#EBEDF0" height="4" rx="1" ry="1" width="4" x="177.4000000000001" y="25.1"><title>2023-08-01</title></rect><rect fill="#EBEDF0" height="4" rx="1" ry="1" width="4" x="177.4000000000001" y="30.5"><title>2023-08-02</title></rect><rect fill="#EBEDF0" height="4" rx="1" ry="1" width="4" x="177.4000000000001" y="35.9"><title>2023-08-03</title></rect><rect fill="#EBEDF0" height="4" rx="1" ry="1" width="4" x="177.4000000000001" y="41.300000000000004"><title>2023-08-04</title></rect><rect fill="#34A7FF" height="4" rx="1" ry="1" width="4" x="177.4000000000001" y="46.699999999999996"><title>2023-08-05 108.07 mins</title></rect><rect fill="#EBEDF0" height="4" rx="1" ry="1" width="4" x="177.4000000000001" y="52.1"><title>2023-08-06</title></rect><text fill="#000000" style="font-size:2.5px; font-family:Arial" x="182.8000000000001" y="18.3">Aug</text><rect fill="#EBEDF0" height="4" rx="1" ry="1" width="4" x="182.8000000000001" y="19.7"><title>2023-08-07</title></rect><rect fill="#EBEDF0" height="4" rx="1" ry="1" width="4" x="182.8000000000001" y="25.1"><title>2023-08-08</title></rect><rect fill="#EBEDF0" height="4" rx="1" ry="1" width="4" x="182.8000000000001" y="30.5"><title>2023-08-09</title></rect><rect fill="#EBEDF0" height="4" rx="1" ry="1" width="4" x="182.8000000000001" y="35.9"><title>2023-08-10</title></rect><rect fill="#EBEDF0" height="4" rx="1" ry="1" width="4" x="182.8000000000001" y="41.300000000000004"><title>2023-08-11</title></rect><rect fill="#7fc5fc" height="4" rx="1" ry="1" width="4" x="182.8000000000001" y="46.699999999999996"><title>2023-08-12 15.08 mins</title></rect><rect fill="#81c6fc" height="4" rx="1" ry="1" width="4" x="182.8000000000001" y="52.1"><title>2023-08-13 0.55 mins</title></rect><rect fill="#80c5fc" height="4" rx="1" ry="1" width="4" x="188.2000000000001" y="19.7"><title>2023-08-14 8.75 mins</title></rect><rect fill="#EBEDF0" height="4" rx="1" ry="1" width="4" x="188.2000000000001" y="25.1"><title>2023-08-15</title></rect><rect fill="#34A7FF" height="4" rx="1" ry="1" width="4" x="188.2000000000001" y="30.5"><title>2023-08-16 79.15 mins</title></rect><rect fill="#EBEDF0" height="4" rx="1" ry="1" width="4" x="188.2000000000001" y="35.9"><title>2023-08-17</title></rect><rect fill="#EBEDF0" height="4" rx="1" ry="1" width="4" x="188.2000000000001" y="41.300000000000004"><title>2023-08-18</title></rect><rect fill="#EBEDF0" height="4" rx="1" ry="1" width="4" x="188.2000000000001" y="46.699999999999996"><title>2023-08-19</title></rect><rect fill="#EBEDF0" height="4" rx="1" ry="1" width="4" x="188.2000000000001" y="52.1"><title>2023-08-20</title></rect><rect fill="#EBEDF0" height="4" rx="1" ry="1" width="4" x="193.6000000000001" y="19.7"><title>2023-08-21</title></rect><rect fill="#EBEDF0" height="4" rx="1" ry="1" width="4" x="193.6000000000001" y="25.1"><title>2023-08-22</title></rect><rect fill="#EBEDF0" height="4" rx="1" ry="1" width="4" x="193.6000000000001" y="30.5"><title>2023-08-23</title></rect><rect fill="#EBEDF0" height="4" rx="1" ry="1" width="4" x="193.6000000000001" y="35.9"><title>2023-08-24</title></rect><rect fill="#EBEDF0" height="4" rx="1" ry="1" width="4" x="193.6000000000001" y="41.300000000000004"><title>2023-08-25</title></rect><rect fill="#EBEDF0" height="4" rx="1" ry="1" width="4" x="193.6000000000001" y="46.699999999999996"><title>2023-08-26</title></rect><rect fill="#80c6fc" height="4" rx="1" ry="1" width="4" x="193.6000000000001" y="52.1"><title>2023-08-27 4.4 mins</title></rect><rect fill="#EBEDF0" height="4" rx="1" ry="1" width="4" x="199.0000000000001" y="19.7"><title>2023-08-28</title></rect><rect fill="#EBEDF0" height="4" rx="1" ry="1" width="4" x="199.0000000000001" y="25.1"><title>2023-08-29</title></rect><rect fill="#EBEDF0" height="4" rx="1" ry="1" width="4" x="199.0000000000001" y="30.5"><title>2023-08-30</title></rect><rect fill="#81c6fc" height="4" rx="1" ry="1" width="4" x="199.0000000000001" y="35.9"><title>2023-08-31 0.07 mins</title></rect><rect fill="#EBEDF0" height="4" rx="1" ry="1" width="4" x="199.0000000000001" y="41.300000000000004"><title>2023-09-01</title></rect><rect fill="#EBEDF0" height="4" rx="1" ry="1" width="4" x="199.0000000000001" y="46.699999999999996"><title>2023-09-02</title></rect><rect fill="#EBEDF0" height="4" rx="1" ry="1" width="4" x="199.0000000000001" y="52.1"><title>2023-09-03</title></rect><text fill="#000000" style="font-size:2.5px; font-family:Arial" x="204.40000000000012" y="18.3">Sep</text><rect fill="#81c6fc" height="4" rx="1" ry="1" width="4" x="204.40000000000012" y="19.7"><title>2023-09-04 0.13 mins</title></rect><rect fill="#EBEDF0" height="4" rx="1" ry="1" width="4" x="204.40000000000012" y="25.1"><title>2023-09-05</title></rect><rect fill="#EBEDF0" height="4" rx="1" ry="1" width="4" x="204.40000000000012" y="30.5"><title>2023-09-06</title></rect><rect fill="#EBEDF0" height="4" rx="1" ry="1" width="4" x="204.40000000000012" y="35.9"><title>2023-09-07</title></rect><rect fill="#EBEDF0" height="4" rx="1" ry="1" width="4" x="204.40000000000012" y="41.300000000000004"><title>2023-09-08</title></rect><rect fill="#81c6fc" height="4" rx="1" ry="1" width="4" x="204.40000000000012" y="46.699999999999996"><title>2023-09-09 2.33 mins</title></rect><rect fill="#56b4fd" height="4" rx="1" ry="1" width="4" x="204.40000000000012" y="52.1"><title>2023-09-10 60.55 mins</title></rect><rect fill="#81c6fc" height="4" rx="1" ry="1" width="4" x="209.80000000000013" y="19.7"><title>2023-09-11 2.57 mins</title></rect><rect fill="#EBEDF0" height="4" rx="1" ry="1" width="4" x="209.80000000000013" y="25.1"><title>2023-09-12</title></rect><rect fill="#58b5fd" height="4" rx="1" ry="1" width="4" x="209.80000000000013" y="30.5"><title>2023-09-13 33.82 mins</title></rect><rect fill="#58b5fd" height="4" rx="1" ry="1" width="4" x="209.80000000000013" y="35.9"><title>2023-09-14 26.43 mins</title></rect><rect fill="#EBEDF0" height="4" rx="1" ry="1" width="4" x="209.80000000000013" y="41.300000000000004"><title>2023-09-15</title></rect><rect fill="#34A7FF" height="4" rx="1" ry="1" width="4" x="209.80000000000013" y="46.699999999999996"><title>2023-09-16 113.4 mins</title></rect><rect fill="#34A7FF" height="4" rx="1" ry="1" width="4" x="209.80000000000013" y="52.1"><title>2023-09-17 81.15 mins</title></rect><rect fill="#7fc5fc" height="4" rx="1" ry="1" width="4" x="215.20000000000013" y="19.7"><title>2023-09-18 11.03 mins</title></rect><rect fill="#58b5fd" height="4" rx="1" ry="1" width="4" x="215.20000000000013" y="25.1"><title>2023-09-19 33.08 mins</title></rect><rect fill="#80c6fc" height="4" rx="1" ry="1" width="4" x="215.20000000000013" y="30.5"><title>2023-09-20 5.27 mins</title></rect><rect fill="#34A7FF" height="4" rx="1" ry="1" width="4" x="215.20000000000013" y="35.9"><title>2023-09-21 76.67 mins</title></rect><rect fill="#58b5fd" height="4" rx="1" ry="1" width="4" x="215.20000000000013" y="41.300000000000004"><title>2023-09-22 29.17 mins</title></rect><rect fill="#57b5fd" height="4" rx="1" ry="1" width="4" x="215.20000000000013" y="46.699999999999996"><title>2023-09-23 47.42 mins</title></rect><rect fill="#81c6fc" height="4" rx="1" ry="1" width="4" x="215.20000000000013" y="52.1"><title>2023-09-24 2.87 mins</title></rect><rect fill="#57b5fd" height="4" rx="1" ry="1" width="4" x="220.60000000000014" y="19.7"><title>2023-09-25 39.28 mins</title></rect><rect fill="#EBEDF0" height="4" rx="1" ry="1" width="4" x="220.60000000000014" y="25.1"><title>2023-09-26</title></rect><rect fill="#EBEDF0" height="4" rx="1" ry="1" width="4" x="220.60000000000014" y="30.5"><title>2023-09-27</title></rect><rect fill="#7fc5fc" height="4" rx="1" ry="1" width="4" x="220.60000000000014" y="35.9"><title>2023-09-28 17.5 mins</title></rect><rect fill="#7fc5fc" height="4" rx="1" ry="1" width="4" x="220.60000000000014" y="41.300000000000004"><title>2023-09-29 15.9 mins</title></rect><rect fill="#EBEDF0" height="4" rx="1" ry="1" width="4" x="220.60000000000014" y="46.699999999999996"><title>2023-09-30</title></rect><rect fill="#7fc5fc" height="4" rx="1" ry="1" width="4" x="220.60000000000014" y="52.1"><title>2023-10-01 17.47 mins</title></rect><text fill="#000000" style="font-size:2.5px; font-family:Arial" x="226.00000000000014" y="18.3">Oct</text><rect fill="#7ec5fc" height="4" rx="1" ry="1" width="4" x="226.00000000000014" y="19.7"><title>2023-10-02 21.45 mins</title></rect><rect fill="#34A7FF" height="4" rx="1" ry="1" width="4" x="226.00000000000014" y="25.1"><title>2023-10-03 219.3 mins</title></rect><rect fill="#58b5fd" height="4" rx="1" ry="1" width="4" x="226.00000000000014" y="30.5"><title>2023-10-04 26.4 mins</title></rect><rect fill="#EBEDF0" height="4" rx="1" ry="1" width="4" x="226.00000000000014" y="35.9"><title>2023-10-05</title></rect><rect fill="#EBEDF0" height="4" rx="1" ry="1" width="4" x="226.00000000000014" y="41.300000000000004"><title>2023-10-06</title></rect><rect fill="#81c6fc" height="4" rx="1" ry="1" width="4" x="226.00000000000014" y="46.699999999999996"><title>2023-10-07 0.03 mins</title></rect><rect fill="#81c6fc" height="4" rx="1" ry="1" width="4" x="226.00000000000014" y="52.1"><title>2023-10-08 0.42 mins</title></rect><rect fill="#EBEDF0" height="4" rx="1" ry="1" width="4" x="231.40000000000015" y="19.7"><title>2023-10-09</title></rect><rect fill="#EBEDF0" height="4" rx="1" ry="1" width="4" x="231.40000000000015" y="25.1"><title>2023-10-10</title></rect><rect fill="#EBEDF0" height="4" rx="1" ry="1" width="4" x="231.40000000000015" y="30.5"><title>2023-10-11</title></rect><rect fill="#EBEDF0" height="4" rx="1" ry="1" width="4" x="231.40000000000015" y="35.9"><title>2023-10-12</title></rect><rect fill="#EBEDF0" height="4" rx="1" ry="1" width="4" x="231.40000000000015" y="41.300000000000004"><title>2023-10-13</title></rect><rect fill="#EBEDF0" height="4" rx="1" ry="1" width="4" x="231.40000000000015" y="46.699999999999996"><title>2023-10-14</title></rect><rect fill="#EBEDF0" height="4" rx="1" ry="1" width="4" x="231.40000000000015" y="52.1"><title>2023-10-15</title></rect><rect fill="#EBEDF0" height="4" rx="1" ry="1" width="4" x="236.80000000000015" y="19.7"><title>2023-10-16</title></rect><rect fill="#EBEDF0" height="4" rx="1" ry="1" width="4" x="236.80000000000015" y="25.1"><title>2023-10-17</title></rect><rect fill="#EBEDF0" height="4" rx="1" ry="1" width="4" x="236.80000000000015" y="30.5"><title>2023-10-18</title></rect><rect fill="#EBEDF0" height="4" rx="1" ry="1" width="4" x="236.80000000000015" y="35.9"><title>2023-10-19</title></rect><rect fill="#EBEDF0" height="4" rx="1" ry="1" width="4" x="236.80000000000015" y="41.300000000000004"><title>2023-10-20</title></rect><rect fill="#EBEDF0" height="4" rx="1" ry="1" width="4" x="236.80000000000015" y="46.699999999999996"><title>2023-10-21</title></rect><rect fill="#EBEDF0" height="4" rx="1" ry="1" width="4" x="236.80000000000015" y="52.1"><title>2023-10-22</title></rect><rect fill="#EBEDF0" height="4" rx="1" ry="1" width="4" x="242.20000000000016" y="19.7"><title>2023-10-23</title></rect><rect fill="#81c6fc" height="4" rx="1" ry="1" width="4" x="242.20000000000016" y="25.1"><title>2023-10-24 0.77 mins</title></rect><rect fill="#81c6fc" height="4" rx="1" ry="1" width="4" x="242.20000000000016" y="30.5"><title>2023-10-25 0.58 mins</title></rect><rect fill="#EBEDF0" height="4" rx="1" ry="1" width="4" x="242.20000000000016" y="35.9"><title>2023-10-26</title></rect><rect fill="#81c6fc" height="4" rx="1" ry="1" width="4" x="242.20000000000016" y="41.300000000000004"><title>2023-10-27 0.05 mins</title></rect><rect fill="#EBEDF0" height="4" rx="1" ry="1" width="4" x="242.20000000000016" y="46.699999999999996"><title>2023-10-28</title></rect><rect fill="#EBEDF0" height="4" rx="1" ry="1" width="4" x="242.20000000000016" y="52.1"><title>2023-10-29</title></rect><rect fill="#EBEDF0" height="4" rx="1" ry="1" width="4" x="247.60000000000016" y="19.7"><title>2023-10-30</title></rect><rect fill="#EBEDF0" height="4" rx="1" ry="1" width="4" x="247.60000000000016" y="25.1"><title>2023-10-31</title></rect><rect fill="#EBEDF0" height="4" rx="1" ry="1" width="4" x="247.60000000000016" y="30.5"><title>2023-11-01</title></rect><rect fill="#EBEDF0" height="4" rx="1" ry="1" width="4" x="247.60000000000016" y="35.9"><title>2023-11-02</title></rect><rect fill="#81c6fc" height="4" rx="1" ry="1" width="4" x="247.60000000000016" y="41.300000000000004"><title>2023-11-03 0.05 mins</title></rect><rect fill="#EBEDF0" height="4" rx="1" ry="1" width="4" x="247.60000000000016" y="46.699999999999996"><title>2023-11-04</title></rect><rect fill="#EBEDF0" height="4" rx="1" ry="1" width="4" x="247.60000000000016" y="52.1"><title>2023-11-05</title></rect><text fill="#000000" style="font-size:2.5px; font-family:Arial" x="253.00000000000017" y="18.3">Nov</text><rect fill="#EBEDF0" height="4" rx="1" ry="1" width="4" x="253.00000000000017" y="19.7"><title>2023-11-06</title></rect><rect fill="#EBEDF0" height="4" rx="1" ry="1" width="4" x="253.00000000000017" y="25.1"><title>2023-11-07</title></rect><rect fill="#EBEDF0" height="4" rx="1" ry="1" width="4" x="253.00000000000017" y="30.5"><title>2023-11-08</title></rect><rect fill="#80c6fc" height="4" rx="1" ry="1" width="4" x="253.00000000000017" y="35.9"><title>2023-11-09 4.97 mins</title></rect><rect fill="#EBEDF0" height="4" rx="1" ry="1" width="4" x="253.00000000000017" y="41.300000000000004"><title>2023-11-10</title></rect><rect fill="#EBEDF0" height="4" rx="1" ry="1" width="4" x="253.00000000000017" y="46.699999999999996"><title>2023-11-11</title></rect><rect fill="#EBEDF0" height="4" rx="1" ry="1" width="4" x="253.00000000000017" y="52.1"><title>2023-11-12</title></rect><rect fill="#EBEDF0" height="4" rx="1" ry="1" width="4" x="258.40000000000015" y="19.7"><title>2023-11-13</title></rect><rect fill="#EBEDF0" height="4" rx="1" ry="1" width="4" x="258.40000000000015" y="25.1"><title>2023-11-14</title></rect><rect fill="#EBEDF0" height="4" rx="1" ry="1" width="4" x="258.40000000000015" y="30.5"><title>2023-11-15</title></rect><rect fill="#EBEDF0" height="4" rx="1" ry="1" width="4" x="258.40000000000015" y="35.9"><title>2023-11-16</title></rect><rect fill="#EBEDF0" height="4" rx="1" ry="1" width="4" x="258.40000000000015" y="41.300000000000004"><title>2023-11-17</title></rect><rect fill="#EBEDF0" height="4" rx="1" ry="1" width="4" x="258.40000000000015" y="46.699999999999996"><title>2023-11-18</title></rect><rect fill="#EBEDF0" height="4" rx="1" ry="1" width="4" x="258.40000000000015" y="52.1"><title>2023-11-19</title></rect><rect fill="#EBEDF0" height="4" rx="1" ry="1" width="4" x="263.8000000000001" y="19.7"><title>2023-11-20</title></rect><rect fill="#81c6fc" height="4" rx="1" ry="1" width="4" x="263.8000000000001" y="25.1"><title>2023-11-21 2.83 mins</title></rect><rect fill="#EBEDF0" height="4" rx="1" ry="1" width="4" x="263.8000000000001" y="30.5"><title>2023-11-22</title></rect><rect fill="#EBEDF0" height="4" rx="1" ry="1" width="4" x="263.8000000000001" y="35.9"><title>2023-11-23</title></rect><rect fill="#EBEDF0" height="4" rx="1" ry="1" width="4" x="263.8000000000001" y="41.300000000000004"><title>2023-11-24</title></rect><rect fill="#EBEDF0" height="4" rx="1" ry="1" width="4" x="263.8000000000001" y="46.699999999999996"><title>2023-11-25</title></rect><rect fill="#EBEDF0" height="4" rx="1" ry="1" width="4" x="263.8000000000001" y="52.1"><title>2023-11-26</title></rect><rect fill="#EBEDF0" height="4" rx="1" ry="1" width="4" x="269.2000000000001" y="19.7"><title>2023-11-27</title></rect><rect fill="#EBEDF0" height="4" rx="1" ry="1" width="4" x="269.2000000000001" y="25.1"><title>2023-11-28</title></rect><rect fill="#81c6fc" height="4" rx="1" ry="1" width="4" x="269.2000000000001" y="30.5"><title>2023-11-29 0.08 mins</title></rect><rect fill="#EBEDF0" height="4" rx="1" ry="1" width="4" x="269.2000000000001" y="35.9"><title>2023-11-30</title></rect><rect fill="#EBEDF0" height="4" rx="1" ry="1" width="4" x="269.2000000000001" y="41.300000000000004"><title>2023-12-01</title></rect><rect fill="#EBEDF0" height="4" rx="1" ry="1" width="4" x="269.2000000000001" y="46.699999999999996"><title>2023-12-02</title></rect><rect fill="#EBEDF0" height="4" rx="1" ry="1" width="4" x="269.2000000000001" y="52.1"><title>2023-12-03</title></rect><text fill="#000000" style="font-size:2.5px; font-family:Arial" x="274.6000000000001" y="18.3">Dec</text><rect fill="#EBEDF0" height="4" rx="1" ry="1" width="4" x="274.6000000000001" y="19.7"><title>2023-12-04</title></rect><rect fill="#EBEDF0" height="4" rx="1" ry="1" width="4" x="274.6000000000001" y="25.1"><title>2023-12-05</title></rect><rect fill="#EBEDF0" height="4" rx="1" ry="1" width="4" x="274.6000000000001" y="30.5"><title>2023-12-06</title></rect><rect fill="#58b5fd" height="4" rx="1" ry="1" width="4" x="274.6000000000001" y="35.9"><title>2023-12-07 24.7 mins</title></rect><rect fill="#EBEDF0" height="4" rx="1" ry="1" width="4" x="274.6000000000001" y="41.300000000000004"><title>2023-12-08</title></rect><rect fill="#EBEDF0" height="4" rx="1" ry="1" width="4" x="274.6000000000001" y="46.699999999999996"><title>2023-12-09</title></rect><rect fill="#EBEDF0" height="4" rx="1" ry="1" width="4" x="274.6000000000001" y="52.1"><title>2023-12-10</title></rect><rect fill="#81c6fc" height="4" rx="1" ry="1" width="4" x="280.00000000000006" y="19.7"><title>2023-12-11 0.02 mins</title></rect><rect fill="#EBEDF0" height="4" rx="1" ry="1" width="4" x="280.00000000000006" y="25.1"><title>2023-12-12</title></rect><rect fill="#EBEDF0" height="4" rx="1" ry="1" width="4" x="280.00000000000006" y="30.5"><title>2023-12-13</title></rect><rect fill="#80c6fc" height="4" rx="1" ry="1" width="4" x="280.00000000000006" y="35.9"><title>2023-12-14 6.52 mins</title></rect><rect fill="#EBEDF0" height="4" rx="1" ry="1" width="4" x="280.00000000000006" y="41.300000000000004"><title>2023-12-15</title></rect><rect fill="#EBEDF0" height="4" rx="1" ry="1" width="4" x="280.00000000000006" y="46.699999999999996"><title>2023-12-16</title></rect><rect fill="#34A7FF" height="4" rx="1" ry="1" width="4" x="280.00000000000006" y="52.1"><title>2023-12-17 90.93 mins</title></rect><rect fill="#81c6fc" height="4" rx="1" ry="1" width="4" x="285.40000000000003" y="19.7"><title>2023-12-18 0.28 mins</title></rect><rect fill="#7ec5fc" height="4" rx="1" ry="1" width="4" x="285.40000000000003" y="25.1"><title>2023-12-19 22.6 mins</title></rect><rect fill="#EBEDF0" height="4" rx="1" ry="1" width="4" x="285.40000000000003" y="30.5"><title>2023-12-20</title></rect><rect fill="#EBEDF0" height="4" rx="1" ry="1" width="4" x="285.40000000000003" y="35.9"><title>2023-12-21</title></rect><rect fill="#EBEDF0" height="4" rx="1" ry="1" width="4" x="285.40000000000003" y="41.300000000000004"><title>2023-12-22</title></rect><rect fill="#34A7FF" height="4" rx="1" ry="1" width="4" x="285.40000000000003" y="46.699999999999996"><title>2023-12-23 224.93 mins</title></rect><rect fill="#EBEDF0" height="4" rx="1" ry="1" width="4" x="285.40000000000003" y="52.1"><title>2023-12-24</title></rect><rect fill="#EBEDF0" height="4" rx="1" ry="1" width="4" x="290.8" y="19.7"><title>2023-12-25</title></rect><rect fill="#80c6fc" height="4" rx="1" ry="1" width="4" x="290.8" y="25.1"><title>2023-12-26 4.18 mins</title></rect><rect fill="#EBEDF0" height="4" rx="1" ry="1" width="4" x="290.8" y="30.5"><title>2023-12-27</title></rect><rect fill="#EBEDF0" height="4" rx="1" ry="1" width="4" x="290.8" y="35.9"><title>2023-12-28</title></rect><rect fill="#EBEDF0" height="4" rx="1" ry="1" width="4" x="290.8" y="41.300000000000004"><title>2023-12-29</title></rect><rect fill="#7ec5fc" height="4" rx="1" ry="1" width="4" x="290.8" y="46.699999999999996"><title>2023-12-30 23.48 mins</title></rect><rect fill="#EBEDF0" height="4" rx="1" ry="1" width="4" x="290.8" y="52.1"><title>2023-12-31</title></rect></svg>