<?xml version="1.0" encoding="utf-8" ?>
<svg baseProfile="full" height="57.5mm" version="1.1" viewBox="0,0,306.20000000000005,57.5" width="306.20000000000005mm" xmlns="http://www.w3.org/2000/svg" xmlns:ev="http://www.w3.org/2001/xml-events" xmlns:xlink="http://www.w3.org/1999/xlink"><defs /><rect fill="#FFFFFF" height="57.5" width="306.20000000000005" x="0" y="0" /><text fill="#000000" style="font-size:6px; font-family:Arial; font-weight:bold;" x="10" y="10">elvinn 的微信读书记录</text><text fill="#000000" style="font-size:3px; font-family:Arial;" x="10" y="14.4">2022: 77 hours</text><text fill="#000000" style="font-size:2.5px; font-family:Arial" x="10" y="18.3">Jan</text><rect fill="#EBEDF0" height="4" rx="1" ry="1" width="4" x="10" y="19.7"><title>2021-12-27</title></rect><rect fill="#EBEDF0" height="4" rx="1" ry="1" width="4" x="10" y="25.1"><title>2021-12-28</title></rect><rect fill="#7fc5fc" height="4" rx="1" ry="1" width="4" x="10" y="30.5"><title>2021-12-29 17.45 mins</title></rect><rect fill="#EBEDF0" height="4" rx="1" ry="1" width="4" x="10" y="35.9"><title>2021-12-30</title></rect><rect fill="#EBEDF0" height="4" rx="1" ry="1" width="4" x="10" y="41.300000000000004"><title>2021-12-31</title></rect><rect fill="#EBEDF0" height="4" rx="1" ry="1" width="4" x="10" y="46.699999999999996"><title>2022-01-01</title></rect><rect fill="#EBEDF0" height="4" rx="1" ry="1" width="4" x="10" y="52.1"><title>2022-01-02</title></rect><rect fill="#EBEDF0" height="4" rx="1" ry="1" width="4" x="15.4" y="19.7"><title>2022-01-03</title></rect><rect fill="#EBEDF0" height="4" rx="1" ry="1" width="4" x="15.4" y="25.1"><title>2022-01-04</title></rect><rect fill="#EBEDF0" height="4" rx="1" ry="1" width="4" x="15.4" y="30.5"><title>2022-01-05</title></rect><rect fill="#81c6fc" height="4" rx="1" ry="1" width="4" x="15.4" y="35.9"><title>2022-01-06 1.17 mins</title></rect><rect fill="#EBEDF0" height="4" rx="1" ry="1" width="4" x="15.4" y="41.300000000000004"><title>2022-01-07</title></rect><rect fill="#EBEDF0" height="4" rx="1" ry="1" width="4" x="15.4" y="46.699999999999996"><title>2022-01-08</title></rect><rect fill="#EBEDF0" height="4" rx="1" ry="1" width="4" x="15.4" y="52.1"><title>2022-01-09</title></rect><rect fill="#EBEDF0" height="4" rx="1" ry="1" width="4" x="20.8" y="19.7"><title>2022-01-10</title></rect><rect fill="#EBEDF0" height="4" rx="1" ry="1" width="4" x="20.8" y="25.1"><title>2022-01-11</title></rect><rect fill="#81c6fc" height="4" rx="1" ry="1" width="4" x="20.8" y="30.5"><title>2022-01-12 0.17 mins</title></rect><rect fill="#81c6fc" height="4" rx="1" ry="1" width="4" x="20.8" y="35.9"><title>2022-01-13 1.85 mins</title></rect><rect fill="#EBEDF0" height="4" rx="1" ry="1" width="4" x="20.8" y="41.300000000000004"><title>2022-01-14</title></rect><rect fill="#57b5fd" height="4" rx="1" ry="1" width="4" x="20.8" y="46.699999999999996"><title>2022-01-15 44.58 mins</title></rect><rect fill="#EBEDF0" height="4" rx="1" ry="1" width="4" x="20.8" y="52.1"><title>2022-01-16</title></rect><rect fill="#81c6fc" height="4" rx="1" ry="1" width="4" x="26.200000000000003" y="19.7"><title>2022-01-17 0.02 mins</title></rect><rect fill="#EBEDF0" height="4" rx="1" ry="1" width="4" x="26.200000000000003" y="25.1"><title>2022-01-18</title></rect><rect fill="#EBEDF0" height="4" rx="1" ry="1" width="4" x="26.200000000000003" y="30.5"><title>2022-01-19</title></rect><rect fill="#EBEDF0" height="4" rx="1" ry="1" width="4" x="26.200000000000003" y="35.9"><title>2022-01-20</title></rect><rect fill="#EBEDF0" height="4" rx="1" ry="1" width="4" x="26.200000000000003" y="41.300000000000004"><title>2022-01-21</title></rect><rect fill="#34A7FF" height="4" rx="1" ry="1" width="4" x="26.200000000000003" y="46.699999999999996"><title>2022-01-22 163.35 mins</title></rect><rect fill="#80c6fc" height="4" rx="1" ry="1" width="4" x="26.200000000000003" y="52.1"><title>2022-01-23 6.1 mins</title></rect><rect fill="#EBEDF0" height="4" rx="1" ry="1" width="4" x="31.6" y="19.7"><title>2022-01-24</title></rect><rect fill="#EBEDF0" height="4" rx="1" ry="1" width="4" x="31.6" y="25.1"><title>2022-01-25</title></rect><rect fill="#EBEDF0" height="4" rx="1" ry="1" width="4" x="31.6" y="30.5"><title>2022-01-26</title></rect><rect fill="#EBEDF0" height="4" rx="1" ry="1" width="4" x="31.6" y="35.9"><title>2022-01-27</title></rect><rect fill="#58b5fd" height="4" rx="1" ry="1" width="4" x="31.6" y="41.300000000000004"><title>2022-01-28 33.33 mins</title></rect><rect fill="#EBEDF0" height="4" rx="1" ry="1" width="4" x="31.6" y="46.699999999999996"><title>2022-01-29</title></rect><rect fill="#EBEDF0" height="4" rx="1" ry="1" width="4" x="31.6" y="52.1"><title>2022-01-30</title></rect><rect fill="#EBEDF0" height="4" rx="1" ry="1" width="4" x="37.0" y="19.7"><title>2022-01-31</title></rect><rect fill="#EBEDF0" height="4" rx="1" ry="1" width="4" x="37.0" y="25.1"><title>2022-02-01</title></rect><rect fill="#EBEDF0" height="4" rx="1" ry="1" width="4" x="37.0" y="30.5"><title>2022-02-02</title></rect><rect fill="#81c6fc" height="4" rx="1" ry="1" width="4" x="37.0" y="35.9"><title>2022-02-03 2.63 mins</title></rect><rect fill="#56b5fd" height="4" rx="1" ry="1" width="4" x="37.0" y="41.300000000000004"><title>2022-02-04 54.1 mins</title></rect><rect fill="#81c6fc" height="4" rx="1" ry="1" width="4" x="37.0" y="46.699999999999996"><title>2022-02-05 1.5 mins</title></rect><rect fill="#EBEDF0" height="4" rx="1" ry="1" width="4" x="37.0" y="52.1"><title>2022-02-06</title></rect><text fill="#000000" style="font-size:2.5px; font-family:Arial" x="42.4" y="18.3">Feb</text><rect fill="#EBEDF0" height="4" rx="1" ry="1" width="4" x="42.4" y="19.7"><title>2022-02-07</title></rect><rect fill="#EBEDF0" height="4" rx="1" ry="1" width="4" x="42.4" y="25.1"><title>2022-02-08</title></rect><rect fill="#56b4fd" height="4" rx="1" ry="1" width="4" x="42.4" y="30.5"><title>2022-02-09 54.67 mins</title></rect><rect fill="#EBEDF0" height="4" rx="1" ry="1" width="4" x="42.4" y="35.9"><title>2022-02-10</title></rect><rect fill="#34A7FF" height="4" rx="1" ry="1" width="4" x="42.4" y="41.300000000000004"><title>2022-02-11 106.47 mins</title></rect><rect fill="#34A7FF" height="4" rx="1" ry="1" width="4" x="42.4" y="46.699999999999996"><title>2022-02-12 137.83 mins</title></rect><rect fill="#81c6fc" height="4" rx="1" ry="1" width="4" x="42.4" y="52.1"><title>2022-02-13 0.5 mins</title></rect><rect fill="#EBEDF0" height="4" rx="1" ry="1" width="4" x="47.8" y="19.7"><title>2022-02-14</title></rect><rect fill="#81c6fc" height="4" rx="1" ry="1" width="4" x="47.8" y="25.1"><title>2022-02-15 0.45 mins</title></rect><rect fill="#EBEDF0" height="4" rx="1" ry="1" width="4" x="47.8" y="30.5"><title>2022-02-16</title></rect><rect fill="#EBEDF0" height="4" rx="1" ry="1" width="4" x="47.8" y="35.9"><title>2022-02-17</title></rect><rect fill="#EBEDF0" height="4" rx="1" ry="1" width="4" x="47.8" y="41.300000000000004"><title>2022-02-18</title></rect><rect fill="#EBEDF0" height="4" rx="1" ry="1" width="4" x="47.8" y="46.699999999999996"><title>2022-02-19</title></rect><rect fill="#EBEDF0" height="4" rx="1" ry="1" width="4" x="47.8" y="52.1"><title>2022-02-20</title></rect><rect fill="#EBEDF0" height="4" rx="1" ry="1" width="4" x="53.199999999999996" y="19.7"><title>2022-02-21</title></rect><rect fill="#EBEDF0" height="4" rx="1" ry="1" width="4" x="53.199999999999996" y="25.1"><title>2022-02-22</title></rect><rect fill="#EBEDF0" height="4" rx="1" ry="1" width="4" x="53.199999999999996" y="30.5"><title>2022-02-23</title></rect><rect fill="#EBEDF0" height="4" rx="1" ry="1" width="4" x="53.199999999999996" y="35.9"><title>2022-02-24</title></rect><rect fill="#EBEDF0" height="4" rx="1" ry="1" width="4" x="53.199999999999996" y="41.300000000000004"><title>2022-02-25</title></rect><rect fill="#EBEDF0" height="4" rx="1" ry="1" width="4" x="53.199999999999996" y="46.699999999999996"><title>2022-02-26</title></rect><rect fill="#EBEDF0" height="4" rx="1" ry="1" width="4" x="53.199999999999996" y="52.1"><title>2022-02-27</title></rect><rect fill="#EBEDF0" height="4" rx="1" ry="1" width="4" x="58.599999999999994" y="19.7"><title>2022-02-28</title></rect><rect fill="#EBEDF0" height="4" rx="1" ry="1" width="4" x="58.599999999999994" y="25.1"><title>2022-03-01</title></rect><rect fill="#EBEDF0" height="4" rx="1" ry="1" width="4" x="58.599999999999994" y="30.5"><title>2022-03-02</title></rect><rect fill="#EBEDF0" height="4" rx="1" ry="1" width="4" x="58.599999999999994" y="35.9"><title>2022-03-03</title></rect><rect fill="#EBEDF0" height="4" rx="1" ry="1" width="4" x="58.599999999999994" y="41.300000000000004"><title>2022-03-04</title></rect><rect fill="#34A7FF" height="4" rx="1" ry="1" width="4" x="58.599999999999994" y="46.699999999999996"><title>2022-03-05 280.23 mins</title></rect><rect fill="#81c6fc" height="4" rx="1" ry="1" width="4" x="58.599999999999994" y="52.1"><title>2022-03-06 0.92 mins</title></rect><text fill="#000000" style="font-size:2.5px; font-family:Arial" x="63.99999999999999" y="18.3">Mar</text><rect fill="#EBEDF0" height="4" rx="1" ry="1" width="4" x="63.99999999999999" y="19.7"><title>2022-03-07</title></rect><rect fill="#EBEDF0" height="4" rx="1" ry="1" width="4" x="63.99999999999999" y="25.1"><title>2022-03-08</title></rect><rect fill="#EBEDF0" height="4" rx="1" ry="1" width="4" x="63.99999999999999" y="30.5"><title>2022-03-09</title></rect><rect fill="#EBEDF0" height="4" rx="1" ry="1" width="4" x="63.99999999999999" y="35.9"><title>2022-03-10</title></rect><rect fill="#EBEDF0" height="4" rx="1" ry="1" width="4" x="63.99999999999999" y="41.300000000000004"><title>2022-03-11</title></rect><rect fill="#58b5fd" height="4" rx="1" ry="1" width="4" x="63.99999999999999" y="46.699999999999996"><title>2022-03-12 33.15 mins</title></rect><rect fill="#81c6fc" height="4" rx="1" ry="1" width="4" x="63.99999999999999" y="52.1"><title>2022-03-13 0.9 mins</title></rect><rect fill="#58b5fd" height="4" rx="1" ry="1" width="4" x="69.39999999999999" y="19.7"><title>2022-03-14 28.0 mins</title></rect><rect fill="#EBEDF0" height="4" rx="1" ry="1" width="4" x="69.39999999999999" y="25.1"><title>2022-03-15</title></rect><rect fill="#EBEDF0" height="4" rx="1" ry="1" width="4" x="69.39999999999999" y="30.5"><title>2022-03-16</title></rect><rect fill="#7ec5fc" height="4" rx="1" ry="1" width="4" x="69.39999999999999" y="35.9"><title>2022-03-17 20.95 mins</title></rect><rect fill="#34A7FF" height="4" rx="1" ry="1" width="4" x="69.39999999999999" y="41.300000000000004"><title>2022-03-18 67.77 mins</title></rect><rect fill="#80c6fc" height="4" rx="1" ry="1" width="4" x="69.39999999999999" y="46.699999999999996"><title>2022-03-19 5.13 mins</title></rect><rect fill="#81c6fc" height="4" rx="1" ry="1" width="4" x="69.39999999999999" y="52.1"><title>2022-03-20 0.18 mins</title></rect><rect fill="#EBEDF0" height="4" rx="1" ry="1" width="4" x="74.8" y="19.7"><title>2022-03-21</title></rect><rect fill="#EBEDF0" height="4" rx="1" ry="1" width="4" x="74.8" y="25.1"><title>2022-03-22</title></rect><rect fill="#EBEDF0" height="4" rx="1" ry="1" width="4" x="74.8" y="30.5"><title>2022-03-23</title></rect><rect fill="#81c6fc" height="4" rx="1" ry="1" width="4" x="74.8" y="35.9"><title>2022-03-24 0.57 mins</title></rect><rect fill="#EBEDF0" height="4" rx="1" ry="1" width="4" x="74.8" y="41.300000000000004"><title>2022-03-25</title></rect><rect fill="#EBEDF0" height="4" rx="1" ry="1" width="4" x="74.8" y="46.699999999999996"><title>2022-03-26</title></rect><rect fill="#EBEDF0" height="4" rx="1" ry="1" width="4" x="74.8" y="52.1"><title>2022-03-27</title></rect><rect fill="#58b5fd" height="4" rx="1" ry="1" width="4" x="80.2" y="19.7"><title>2022-03-28 31.25 mins</title></rect><rect fill="#7fc5fc" height="4" rx="1" ry="1" width="4" x="80.2" y="25.1"><title>2022-03-29 14.35 mins</title></rect><rect fill="#34A7FF" height="4" rx="1" ry="1" width="4" x="80.2" y="30.5"><title>2022-03-30 123.62 mins</title></rect><rect fill="#EBEDF0" height="4" rx="1" ry="1" width="4" x="80.2" y="35.9"><title>2022-03-31</title></rect><rect fill="#EBEDF0" height="4" rx="1" ry="1" width="4" x="80.2" y="41.300000000000004"><title>2022-04-01</title></rect><rect fill="#EBEDF0" height="4" rx="1" ry="1" width="4" x="80.2" y="46.699999999999996"><title>2022-04-02</title></rect><rect fill="#EBEDF0" height="4" rx="1" ry="1" width="4" x="80.2" y="52.1"><title>2022-04-03</title></rect><text fill="#000000" style="font-size:2.5px; font-family:Arial" x="85.60000000000001" y="18.3">Apr</text><rect fill="#EBEDF0" height="4" rx="1" ry="1" width="4" x="85.60000000000001" y="19.7"><title>2022-04-04</title></rect><rect fill="#EBEDF0" height="4" rx="1" ry="1" width="4" x="85.60000000000001" y="25.1"><title>2022-04-05</title></rect><rect fill="#58b5fd" height="4" rx="1" ry="1" width="4" x="85.60000000000001" y="30.5"><title>2022-04-06 29.07 mins</title></rect><rect fill="#58b5fd" height="4" rx="1" ry="1" width="4" x="85.60000000000001" y="35.9"><title>2022-04-07 31.38 mins</title></rect><rect fill="#7ec5fc" height="4" rx="1" ry="1" width="4" x="85.60000000000001" y="41.300000000000004"><title>2022-04-08 21.15 mins</title></rect><rect fill="#EBEDF0" height="4" rx="1" ry="1" width="4" x="85.60000000000001" y="46.699999999999996"><title>2022-04-09</title></rect><rect fill="#81c6fc" height="4" rx="1" ry="1" width="4" x="85.60000000000001" y="52.1"><title>2022-04-10 2.23 mins</title></rect><rect fill="#7fc5fc" height="4" rx="1" ry="1" width="4" x="91.00000000000001" y="19.7"><title>2022-04-11 14.52 mins</title></rect><rect fill="#80c5fc" height="4" rx="1" ry="1" width="4" x="91.00000000000001" y="25.1"><title>2022-04-12 9.73 mins</title></rect><rect fill="#EBEDF0" height="4" rx="1" ry="1" width="4" x="91.00000000000001" y="30.5"><title>2022-04-13</title></rect><rect fill="#EBEDF0" height="4" rx="1" ry="1" width="4" x="91.00000000000001" y="35.9"><title>2022-04-14</title></rect><rect fill="#EBEDF0" height="4" rx="1" ry="1" width="4" x="91.00000000000001" y="41.300000000000004"><title>2022-04-15</title></rect><rect fill="#34A7FF" height="4" rx="1" ry="1" width="4" x="91.00000000000001" y="46.699999999999996"><title>2022-04-16 105.37 mins</title></rect><rect fill="#34A7FF" height="4" rx="1" ry="1" width="4" x="91.00000000000001" y="52.1"><title>2022-04-17 167.03 mins</title></rect><rect fill="#58b5fd" height="4" rx="1" ry="1" width="4" x="96.40000000000002" y="19.7"><title>2022-04-18 24.72 mins</title></rect><rect fill="#34A7FF" height="4" rx="1" ry="1" width="4" x="96.40000000000002" y="25.1"><title>2022-04-19 82.22 mins</title></rect><rect fill="#58b5fd" height="4" rx="1" ry="1" width="4" x="96.40000000000002" y="30.5"><title>2022-04-20 24.7 mins</title></rect><rect fill="#34A7FF" height="4" rx="1" ry="1" width="4" x="96.40000000000002" y="35.9"><title>2022-04-21 103.5 mins</title></rect><rect fill="#81c6fc" height="4" rx="1" ry="1" width="4" x="96.40000000000002" y="41.300000000000004"><title>2022-04-22 0.02 mins</title></rect><rect fill="#7fc5fc" height="4" rx="1" ry="1" width="4" x="96.40000000000002" y="46.699999999999996"><title>2022-04-23 15.25 mins</title></rect><rect fill="#EBEDF0" height="4" rx="1" ry="1" width="4" x="96.40000000000002" y="52.1"><title>2022-04-24</title></rect><rect fill="#EBEDF0" height="4" rx="1" ry="1" width="4" x="101.80000000000003" y="19.7"><title>2022-04-25</title></rect><rect fill="#81c6fc" height="4" rx="1" ry="1" width="4" x="101.80000000000003" y="25.1"><title>2022-04-26 2.33 mins</title></rect><rect fill="#EBEDF0" height="4" rx="1" ry="1" width="4" x="101.80000000000003" y="30.5"><title>2022-04-27</title></rect><rect fill="#7fc5fc" height="4" rx="1" ry="1" width="4" x="101.80000000000003" y="35.9"><title>2022-04-28 14.35 mins</title></rect><rect fill="#EBEDF0" height="4" rx="1" ry="1" width="4" x="101.80000000000003" y="41.300000000000004"><title>2022-04-29</title></rect><rect fill="#34A7FF" height="4" rx="1" ry="1" width="4" x="101.80000000000003" y="46.699999999999996"><title>2022-04-30 88.65 mins</title></rect><rect fill="#EBEDF0" height="4" rx="1" ry="1" width="4" x="101.80000000000003" y="52.1"><title>2022-05-01</title></rect><text fill="#000000" style="font-size:2.5px; font-family:Arial" x="107.20000000000003" y="18.3">May</text><rect fill="#34A7FF" height="4" rx="1" ry="1" width="4" x="107.20000000000003" y="19.7"><title>2022-05-02 92.18 mins</title></rect><rect fill="#EBEDF0" height="4" rx="1" ry="1" width="4" x="107.20000000000003" y="25.1"><title>2022-05-03</title></rect><rect fill="#EBEDF0" height="4" rx="1" ry="1" width="4" x="107.20000000000003" y="30.5"><title>2022-05-04</title></rect><rect fill="#34A7FF" height="4" rx="1" ry="1" width="4" x="107.20000000000003" y="35.9"><title>2022-05-05 137.42 mins</title></rect><rect fill="#7ec5fc" height="4" rx="1" ry="1" width="4" x="107.20000000000003" y="41.300000000000004"><title>2022-05-06 19.23 mins</title></rect><rect fill="#80c6fc" height="4" rx="1" ry="1" width="4" x="107.20000000000003" y="46.699999999999996"><title>2022-05-07 8.02 mins</title></rect><rect fill="#7fc5fc" height="4" rx="1" ry="1" width="4" x="107.20000000000003" y="52.1"><title>2022-05-08 12.47 mins</title></rect><rect fill="#7fc5fc" height="4" rx="1" ry="1" width="4" x="112.60000000000004" y="19.7"><title>2022-05-09 13.07 mins</title></rect><rect fill="#7fc5fc" height="4" rx="1" ry="1" width="4" x="112.60000000000004" y="25.1"><title>2022-05-10 14.7 mins</title></rect><rect fill="#57b5fd" height="4" rx="1" ry="1" width="4" x="112.60000000000004" y="30.5"><title>2022-05-11 46.18 mins</title></rect><rect fill="#34A7FF" height="4" rx="1" ry="1" width="4" x="112.60000000000004" y="35.9"><title>2022-05-12 62.93 mins</title></rect><rect fill="#58b5fd" height="4" rx="1" ry="1" width="4" x="112.60000000000004" y="41.300000000000004"><title>2022-05-13 31.13 mins</title></rect><rect fill="#EBEDF0" height="4" rx="1" ry="1" width="4" x="112.60000000000004" y="46.699999999999996"><title>2022-05-14</title></rect><rect fill="#57b5fd" height="4" rx="1" ry="1" width="4" x="112.60000000000004" y="52.1"><title>2022-05-15 38.98 mins</title></rect><rect fill="#EBEDF0" height="4" rx="1" ry="1" width="4" x="118.00000000000004" y="19.7"><title>2022-05-16</title></rect><rect fill="#EBEDF0" height="4" rx="1" ry="1" width="4" x="118.00000000000004" y="25.1"><title>2022-05-17</title></rect><rect fill="#EBEDF0" height="4" rx="1" ry="1" width="4" x="118.00000000000004" y="30.5"><title>2022-05-18</title></rect><rect fill="#EBEDF0" height="4" rx="1" ry="1" width="4" x="118.00000000000004" y="35.9"><title>2022-05-19</title></rect><rect fill="#EBEDF0" height="4" rx="1" ry="1" width="4" x="118.00000000000004" y="41.300000000000004"><title>2022-05-20</title></rect><rect fill="#EBEDF0" height="4" rx="1" ry="1" width="4" x="118.00000000000004" y="46.699999999999996"><title>2022-05-21</title></rect><rect fill="#EBEDF0" height="4" rx="1" ry="1" width="4" x="118.00000000000004" y="52.1"><title>2022-05-22</title></rect><rect fill="#EBEDF0" height="4" rx="1" ry="1" width="4" x="123.40000000000005" y="19.7"><title>2022-05-23</title></rect><rect fill="#34A7FF" height="4" rx="1" ry="1" width="4" x="123.40000000000005" y="25.1"><title>2022-05-24 62.52 mins</title></rect><rect fill="#EBEDF0" height="4" rx="1" ry="1" width="4" x="123.40000000000005" y="30.5"><title>2022-05-25</title></rect><rect fill="#81c6fc" height="4" rx="1" ry="1" width="4" x="123.40000000000005" y="35.9"><title>2022-05-26 0.02 mins</title></rect><rect fill="#EBEDF0" height="4" rx="1" ry="1" width="4" x="123.40000000000005" y="41.300000000000004"><title>2022-05-27</title></rect><rect fill="#EBEDF0" height="4" rx="1" ry="1" width="4" x="123.40000000000005" y="46.699999999999996"><title>2022-05-28</title></rect><rect fill="#EBEDF0" height="4" rx="1" ry="1" width="4" x="123.40000000000005" y="52.1"><title>2022-05-29</title></rect><rect fill="#EBEDF0" height="4" rx="1" ry="1" width="4" x="128.80000000000004" y="19.7"><title>2022-05-30</title></rect><rect fill="#EBEDF0" height="4" rx="1" ry="1" width="4" x="128.80000000000004" y="25.1"><title>2022-05-31</title></rect><rect fill="#EBEDF0" height="4" rx="1" ry="1" width="4" x="128.80000000000004" y="30.5"><title>2022-06-01</title></rect><rect fill="#EBEDF0" height="4" rx="1" ry="1" width="4" x="128.80000000000004" y="35.9"><title>2022-06-02</title></rect><rect fill="#EBEDF0" height="4" rx="1" ry="1" width="4" x="128.80000000000004" y="41.300000000000004"><title>2022-06-03</title></rect><rect fill="#EBEDF0" height="4" rx="1" ry="1" width="4" x="128.80000000000004" y="46.699999999999996"><title>2022-06-04</title></rect><rect fill="#EBEDF0" height="4" rx="1" ry="1" width="4" x="128.80000000000004" y="52.1"><title>2022-06-05</title></rect><text fill="#000000" style="font-size:2.5px; font-family:Arial" x="134.20000000000005" y="18.3">Jun</text><rect fill="#EBEDF0" height="4" rx="1" ry="1" width="4" x="134.20000000000005" y="19.7"><title>2022-06-06</title></rect><rect fill="#EBEDF0" height="4" rx="1" ry="1" width="4" x="134.20000000000005" y="25.1"><title>2022-06-07</title></rect><rect fill="#EBEDF0" height="4" rx="1" ry="1" width="4" x="134.20000000000005" y="30.5"><title>2022-06-08</title></rect><rect fill="#EBEDF0" height="4" rx="1" ry="1" width="4" x="134.20000000000005" y="35.9"><title>2022-06-09</title></rect><rect fill="#EBEDF0" height="4" rx="1" ry="1" width="4" x="134.20000000000005" y="41.300000000000004"><title>2022-06-10</title></rect><rect fill="#EBEDF0" height="4" rx="1" ry="1" width="4" x="134.20000000000005" y="46.699999999999996"><title>2022-06-11</title></rect><rect fill="#EBEDF0" height="4" rx="1" ry="1" width="4" x="134.20000000000005" y="52.1"><title>2022-06-12</title></rect><rect fill="#EBEDF0" height="4" rx="1" ry="1" width="4" x="139.60000000000005" y="19.7"><title>2022-06-13</title></rect><rect fill="#EBEDF0" height="4" rx="1" ry="1" width="4" x="139.60000000000005" y="25.1"><title>2022-06-14</title></rect><rect fill="#EBEDF0" height="4" rx="1" ry="1" width="4" x="139.60000000000005" y="30.5"><title>2022-06-15</title></rect><rect fill="#EBEDF0" height="4" rx="1" ry="1" width="4" x="139.60000000000005" y="35.9"><title>2022-06-16</title></rect><rect fill="#EBEDF0" height="4" rx="1" ry="1" width="4" x="139.60000000000005" y="41.300000000000004"><title>2022-06-17</title></rect><rect fill="#81c6fc" height="4" rx="1" ry="1" width="4" x="139.60000000000005" y="46.699999999999996"><title>2022-06-18 1.3 mins</title></rect><rect fill="#7fc5fc" height="4" rx="1" ry="1" width="4" x="139.60000000000005" y="52.1"><title>2022-06-19 15.03 mins</title></rect><rect fill="#EBEDF0" height="4" rx="1" ry="1" width="4" x="145.00000000000006" y="19.7"><title>2022-06-20</title></rect><rect fill="#EBEDF0" height="4" rx="1" ry="1" width="4" x="145.00000000000006" y="25.1"><title>2022-06-21</title></rect><rect fill="#81c6fc" height="4" rx="1" ry="1" width="4" x="145.00000000000006" y="30.5"><title>2022-06-22 3.48 mins</title></rect><rect fill="#EBEDF0" height="4" rx="1" ry="1" width="4" x="145.00000000000006" y="35.9"><title>2022-06-23</title></rect><rect fill="#80c6fc" height="4" rx="1" ry="1" width="4" x="145.00000000000006" y="41.300000000000004"><title>2022-06-24 6.27 mins</title></rect><rect fill="#EBEDF0" height="4" rx="1" ry="1" width="4" x="145.00000000000006" y="46.699999999999996"><title>2022-06-25</title></rect><rect fill="#EBEDF0" height="4" rx="1" ry="1" width="4" x="145.00000000000006" y="52.1"><title>2022-06-26</title></rect><rect fill="#EBEDF0" height="4" rx="1" ry="1" width="4" x="150.40000000000006" y="19.7"><title>2022-06-27</title></rect><rect fill="#EBEDF0" height="4" rx="1" ry="1" width="4" x="150.40000000000006" y="25.1"><title>2022-06-28</title></rect><rect fill="#EBEDF0" height="4" rx="1" ry="1" width="4" x="150.40000000000006" y="30.5"><title>2022-06-29</title></rect><rect fill="#EBEDF0" height="4" rx="1" ry="1" width="4" x="150.40000000000006" y="35.9"><title>2022-06-30</title></rect><rect fill="#EBEDF0" height="4" rx="1" ry="1" width="4" x="150.40000000000006" y="41.300000000000004"><title>2022-07-01</title></rect><rect fill="#EBEDF0" height="4" rx="1" ry="1" width="4" x="150.40000000000006" y="46.699999999999996"><title>2022-07-02</title></rect><rect fill="#EBEDF0" height="4" rx="1" ry="1" width="4" x="150.40000000000006" y="52.1"><title>2022-07-03</title></rect><text fill="#000000" style="font-size:2.5px; font-family:Arial" x="155.80000000000007" y="18.3">Jul</text><rect fill="#EBEDF0" height="4" rx="1" ry="1" width="4" x="155.80000000000007" y="19.7"><title>2022-07-04</title></rect><rect fill="#EBEDF0" height="4" rx="1" ry="1" width="4" x="155.80000000000007" y="25.1"><title>2022-07-05</title></rect><rect fill="#EBEDF0" height="4" rx="1" ry="1" width="4" x="155.80000000000007" y="30.5"><title>2022-07-06</title></rect><rect fill="#EBEDF0" height="4" rx="1" ry="1" width="4" x="155.80000000000007" y="35.9"><title>2022-07-07</title></rect><rect fill="#7fc5fc" height="4" rx="1" ry="1" width="4" x="155.80000000000007" y="41.300000000000004"><title>2022-07-08 13.22 mins</title></rect><rect fill="#EBEDF0" height="4" rx="1" ry="1" width="4" x="155.80000000000007" y="46.699999999999996"><title>2022-07-09</title></rect><rect fill="#EBEDF0" height="4" rx="1" ry="1" width="4" x="155.80000000000007" y="52.1"><title>2022-07-10</title></rect><rect fill="#EBEDF0" height="4" rx="1" ry="1" width="4" x="161.20000000000007" y="19.7"><title>2022-07-11</title></rect><rect fill="#EBEDF0" height="4" rx="1" ry="1" width="4" x="161.20000000000007" y="25.1"><title>2022-07-12</title></rect><rect fill="#EBEDF0" height="4" rx="1" ry="1" width="4" x="161.20000000000007" y="30.5"><title>2022-07-13</title></rect><rect fill="#7fc5fc" height="4" rx="1" ry="1" width="4" x="161.20000000000007" y="35.9"><title>2022-07-14 13.38 mins</title></rect><rect fill="#EBEDF0" height="4" rx="1" ry="1" width="4" x="161.20000000000007" y="41.300000000000004"><title>2022-07-15</title></rect><rect fill="#EBEDF0" height="4" rx="1" ry="1" width="4" x="161.20000000000007" y="46.699999999999996"><title>2022-07-16</title></rect><rect fill="#80c6fc" height="4" rx="1" ry="1" width="4" x="161.20000000000007" y="52.1"><title>2022-07-17 8.38 mins</title></rect><rect fill="#EBEDF0" height="4" rx="1" ry="1" width="4" x="166.60000000000008" y="19.7"><title>2022-07-18</title></rect><rect fill="#EBEDF0" height="4" rx="1" ry="1" width="4" x="166.60000000000008" y="25.1"><title>2022-07-19</title></rect><rect fill="#EBEDF0" height="4" rx="1" ry="1" width="4" x="166.60000000000008" y="30.5"><title>2022-07-20</title></rect><rect fill="#EBEDF0" height="4" rx="1" ry="1" width="4" x="166.60000000000008" y="35.9"><title>2022-07-21</title></rect><rect fill="#EBEDF0" height="4" rx="1" ry="1" width="4" x="166.60000000000008" y="41.300000000000004"><title>2022-07-22</title></rect><rect fill="#EBEDF0" height="4" rx="1" ry="1" width="4" x="166.60000000000008" y="46.699999999999996"><title>2022-07-23</title></rect><rect fill="#EBEDF0" height="4" rx="1" ry="1" width="4" x="166.60000000000008" y="52.1"><title>2022-07-24</title></rect><rect fill="#EBEDF0" height="4" rx="1" ry="1" width="4" x="172.00000000000009" y="19.7"><title>2022-07-25</title></rect><rect fill="#EBEDF0" height="4" rx="1" ry="1" width="4" x="172.00000000000009" y="25.1"><title>2022-07-26</title></rect><rect fill="#EBEDF0" height="4" rx="1" ry="1" width="4" x="172.00000000000009" y="30.5"><title>2022-07-27</title></rect><rect fill="#EBEDF0" height="4" rx="1" ry="1" width="4" x="172.00000000000009" y="35.9"><title>2022-07-28</title></rect><rect fill="#EBEDF0" height="4" rx="1" ry="1" width="4" x="172.00000000000009" y="41.300000000000004"><title>2022-07-29</title></rect><rect fill="#EBEDF0" height="4" rx="1" ry="1" width="4" x="172.00000000000009" y="46.699999999999996"><title>2022-07-30</title></rect><rect fill="#EBEDF0" height="4" rx="1" ry="1" width="4" x="172.00000000000009" y="52.1"><title>2022-07-31</title></rect><text fill="#000000" style="font-size:2.5px; font-family:Arial" x="177.4000000000001" y="18.3">Aug</text><rect fill="#EBEDF0" height="4" rx="1" ry="1" width="4" x="177.4000000000001" y="19.7"><title>2022-08-01</title></rect><rect fill="#EBEDF0" height="4" rx="1" ry="1" width="4" x="177.4000000000001" y="25.1"><title>2022-08-02</title></rect><rect fill="#EBEDF0" height="4" rx="1" ry="1" width="4" x="177.4000000000001" y="30.5"><title>2022-08-03</title></rect><rect fill="#EBEDF0" height="4" rx="1" ry="1" width="4" x="177.4000000000001" y="35.9"><title>2022-08-04</title></rect><rect fill="#34A7FF" height="4" rx="1" ry="1" width="4" x="177.4000000000001" y="41.300000000000004"><title>2022-08-05 150.78 mins</title></rect><rect fill="#80c6fc" height="4" rx="1" ry="1" width="4" x="177.4000000000001" y="46.699999999999996"><title>2022-08-06 5.12 mins</title></rect><rect fill="#EBEDF0" height="4" rx="1" ry="1" width="4" x="177.4000000000001" y="52.1"><title>2022-08-07</title></rect><rect fill="#EBEDF0" height="4" rx="1" ry="1" width="4" x="182.8000000000001" y="19.7"><title>2022-08-08</title></rect><rect fill="#EBEDF0" height="4" rx="1" ry="1" width="4" x="182.8000000000001" y="25.1"><title>2022-08-09</title></rect><rect fill="#EBEDF0" height="4" rx="1" ry="1" width="4" x="182.8000000000001" y="30.5"><title>2022-08-10</title></rect><rect fill="#81c6fc" height="4" rx="1" ry="1" width="4" x="182.8000000000001" y="35.9"><title>2022-08-11 0.38 mins</title></rect><rect fill="#EBEDF0" height="4" rx="1" ry="1" width="4" x="182.8000000000001" y="41.300000000000004"><title>2022-08-12</title></rect><rect fill="#81c6fc" height="4" rx="1" ry="1" width="4" x="182.8000000000001" y="46.699999999999996"><title>2022-08-13 1.52 mins</title></rect><rect fill="#7fc5fc" height="4" rx="1" ry="1" width="4" x="182.8000000000001" y="52.1"><title>2022-08-14 17.4 mins</title></rect><rect fill="#81c6fc" height="4" rx="1" ry="1" width="4" x="188.2000000000001" y="19.7"><title>2022-08-15 1.38 mins</title></rect><rect fill="#EBEDF0" height="4" rx="1" ry="1" width="4" x="188.2000000000001" y="25.1"><title>2022-08-16</title></rect><rect fill="#7ec5fc" height="4" rx="1" ry="1" width="4" x="188.2000000000001" y="30.5"><title>2022-08-17 20.05 mins</title></rect><rect fill="#EBEDF0" height="4" rx="1" ry="1" width="4" x="188.2000000000001" y="35.9"><title>2022-08-18</title></rect><rect fill="#EBEDF0" height="4" rx="1" ry="1" width="4" x="188.2000000000001" y="41.300000000000004"><title>2022-08-19</title></rect><rect fill="#EBEDF0" height="4" rx="1" ry="1" width="4" x="188.2000000000001" y="46.699999999999996"><title>2022-08-20</title></rect><rect fill="#34A7FF" height="4" rx="1" ry="1" width="4" x="188.2000000000001" y="52.1"><title>2022-08-21 169.38 mins</title></rect><rect fill="#7ec5fc" height="4" rx="1" ry="1" width="4" x="193.6000000000001" y="19.7"><title>2022-08-22 19.02 mins</title></rect><rect fill="#80c5fc" height="4" rx="1" ry="1" width="4" x="193.6000000000001" y="25.1"><title>2022-08-23 9.42 mins</title></rect><rect fill="#57b5fd" height="4" rx="1" ry="1" width="4" x="193.6000000000001" y="30.5"><title>2022-08-24 39.45 mins</title></rect><rect fill="#7fc5fc" height="4" rx="1" ry="1" width="4" x="193.6000000000001" y="35.9"><title>2022-08-25 16.78 mins</title></rect><rect fill="#58b5fd" height="4" rx="1" ry="1" width="4" x="193.6000000000001" y="41.300000000000004"><title>2022-08-26 35.32 mins</title></rect><rect fill="#EBEDF0" height="4" rx="1" ry="1" width="4" x="193.6000000000001" y="46.699999999999996"><title>2022-08-27</title></rect><rect fill="#34A7FF" height="4" rx="1" ry="1" width="4" x="193.6000000000001" y="52.1"><title>2022-08-28 64.08 mins</title></rect><rect fill="#EBEDF0" height="4" rx="1" ry="1" width="4" x="199.0000000000001" y="19.7"><title>2022-08-29</title></rect><rect fill="#EBEDF0" height="4" rx="1" ry="1" width="4" x="199.0000000000001" y="25.1"><title>2022-08-30</title></rect><rect fill="#81c6fc" height="4" rx="1" ry="1" width="4" x="199.0000000000001" y="30.5"><title>2022-08-31 0.57 mins</title></rect><rect fill="#57b5fd" height="4" rx="1" ry="1" width="4" x="199.0000000000001" y="35.9"><title>2022-09-01 47.55 mins</title></rect><rect fill="#EBEDF0" height="4" rx="1" ry="1" width="4" x="199.0000000000001" y="41.300000000000004"><title>2022-09-02</title></rect><rect fill="#58b5fd" height="4" rx="1" ry="1" width="4" x="199.0000000000001" y="46.699999999999996"><title>2022-09-03 33.75 mins</title></rect><rect fill="#7ec5fc" height="4" rx="1" ry="1" width="4" x="199.0000000000001" y="52.1"><title>2022-09-04 19.37 mins</title></rect><text fill="#000000" style="font-size:2.5px; font-family:Arial" x="204.40000000000012" y="18.3">Sep</text><rect fill="#57b5fd" height="4" rx="1" ry="1" width="4" x="204.40000000000012" y="19.7"><title>2022-09-05 40.0 mins</title></rect><rect fill="#57b5fd" height="4" rx="1" ry="1" width="4" x="204.40000000000012" y="25.1"><title>2022-09-06 42.62 mins</title></rect><rect fill="#34A7FF" height="4" rx="1" ry="1" width="4" x="204.40000000000012" y="30.5"><title>2022-09-07 83.75 mins</title></rect><rect fill="#7fc5fc" height="4" rx="1" ry="1" width="4" x="204.40000000000012" y="35.9"><title>2022-09-08 15.93 mins</title></rect><rect fill="#81c6fc" height="4" rx="1" ry="1" width="4" x="204.40000000000012" y="41.300000000000004"><title>2022-09-09 0.03 mins</title></rect><rect fill="#58b5fd" height="4" rx="1" ry="1" width="4" x="204.40000000000012" y="46.699999999999996"><title>2022-09-10 33.28 mins</title></rect><rect fill="#80c6fc" height="4" rx="1" ry="1" width="4" x="204.40000000000012" y="52.1"><title>2022-09-11 7.45 mins</title></rect><rect fill="#80c5fc" height="4" rx="1" ry="1" width="4" x="209.80000000000013" y="19.7"><title>2022-09-12 9.7 mins</title></rect><rect fill="#57b5fd" height="4" rx="1" ry="1" width="4" x="209.80000000000013" y="25.1"><title>2022-09-13 47.93 mins</title></rect><rect fill="#EBEDF0" height="4" rx="1" ry="1" width="4" x="209.80000000000013" y="30.5"><title>2022-09-14</title></rect><rect fill="#EBEDF0" height="4" rx="1" ry="1" width="4" x="209.80000000000013" y="35.9"><title>2022-09-15</title></rect><rect fill="#EBEDF0" height="4" rx="1" ry="1" width="4" x="209.80000000000013" y="41.300000000000004"><title>2022-09-16</title></rect><rect fill="#EBEDF0" height="4" rx="1" ry="1" width="4" x="209.80000000000013" y="46.699999999999996"><title>2022-09-17</title></rect><rect fill="#EBEDF0" height="4" rx="1" ry="1" width="4" x="209.80000000000013" y="52.1"><title>2022-09-18</title></rect><rect fill="#EBEDF0" height="4" rx="1" ry="1" width="4" x="215.20000000000013" y="19.7"><title>2022-09-19</title></rect><rect fill="#81c6fc" height="4" rx="1" ry="1" width="4" x="215.20000000000013" y="25.1"><title>2022-09-20 1.77 mins</title></rect><rect fill="#EBEDF0" height="4" rx="1" ry="1" width="4" x="215.20000000000013" y="30.5"><title>2022-09-21</title></rect><rect fill="#EBEDF0" height="4" rx="1" ry="1" width="4" x="215.20000000000013" y="35.9"><title>2022-09-22</title></rect><rect fill="#EBEDF0" height="4" rx="1" ry="1" width="4" x="215.20000000000013" y="41.300000000000004"><title>2022-09-23</title></rect><rect fill="#EBEDF0" height="4" rx="1" ry="1" width="4" x="215.20000000000013" y="46.699999999999996"><title>2022-09-24</title></rect><rect fill="#EBEDF0" height="4" rx="1" ry="1" width="4" x="215.20000000000013" y="52.1"><title>2022-09-25</title></rect><rect fill="#EBEDF0" height="4" rx="1" ry="1" width="4" x="220.60000000000014" y="19.7"><title>2022-09-26</title></rect><rect fill="#80c6fc" height="4" rx="1" ry="1" width="4" x="220.60000000000014" y="25.1"><title>2022-09-27 4.58 mins</title></rect><rect fill="#EBEDF0" height="4" rx="1" ry="1" width="4" x="220.60000000000014" y="30.5"><title>2022-09-28</title></rect><rect fill="#EBEDF0" height="4" rx="1" ry="1" width="4" x="220.60000000000014" y="35.9"><title>2022-09-29</title></rect><rect fill="#EBEDF0" height="4" rx="1" ry="1" width="4" x="220.60000000000014" y="41.300000000000004"><title>2022-09-30</title></rect><rect fill="#EBEDF0" height="4" rx="1" ry="1" width="4" x="220.60000000000014" y="46.699999999999996"><title>2022-10-01</title></rect><rect fill="#EBEDF0" height="4" rx="1" ry="1" width="4" x="220.60000000000014" y="52.1"><title>2022-10-02</title></rect><text fill="#000000" style="font-size:2.5px; font-family:Arial" x="226.00000000000014" y="18.3">Oct</text><rect fill="#EBEDF0" height="4" rx="1" ry="1" width="4" x="226.00000000000014" y="19.7"><title>2022-10-03</title></rect><rect fill="#EBEDF0" height="4" rx="1" ry="1" width="4" x="226.00000000000014" y="25.1"><title>2022-10-04</title></rect><rect fill="#EBEDF0" height="4" rx="1" ry="1" width="4" x="226.00000000000014" y="30.5"><title>2022-10-05</title></rect><rect fill="#58b5fd" height="4" rx="1" ry="1" width="4" x="226.00000000000014" y="35.9"><title>2022-10-06 24.68 mins</title></rect><rect fill="#58b5fd" height="4" rx="1" ry="1" width="4" x="226.00000000000014" y="41.300000000000004"><title>2022-10-07 26.52 mins</title></rect><rect fill="#EBEDF0" height="4" rx="1" ry="1" width="4" x="226.00000000000014" y="46.699999999999996"><title>2022-10-08</title></rect><rect fill="#7fc5fc" height="4" rx="1" ry="1" width="4" x="226.00000000000014" y="52.1"><title>2022-10-09 11.77 mins</title></rect><rect fill="#EBEDF0" height="4" rx="1" ry="1" width="4" x="231.40000000000015" y="19.7"><title>2022-10-10</title></rect><rect fill="#EBEDF0" height="4" rx="1" ry="1" width="4" x="231.40000000000015" y="25.1"><title>2022-10-11</title></rect><rect fill="#EBEDF0" height="4" rx="1" ry="1" width="4" x="231.40000000000015" y="30.5"><title>2022-10-12</title></rect><rect fill="#EBEDF0" height="4" rx="1" ry="1" width="4" x="231.40000000000015" y="35.9"><title>2022-10-13</title></rect><rect fill="#58b5fd" height="4" rx="1" ry="1" width="4" x="231.40000000000015" y="41.300000000000004"><title>2022-10-14 35.65 mins</title></rect><rect fill="#34A7FF" height="4" rx="1" ry="1" width="4" x="231.40000000000015" y="46.699999999999996"><title>2022-10-15 148.93 mins</title></rect><rect fill="#57b5fd" height="4" rx="1" ry="1" width="4" x="231.40000000000015" y="52.1"><title>2022-10-16 41.18 mins</title></rect><rect fill="#58b5fd" height="4" rx="1" ry="1" width="4" x="236.80000000000015" y="19.7"><title>2022-10-17 33.42 mins</title></rect><rect fill="#81c6fc" height="4" rx="1" ry="1" width="4" x="236.80000000000015" y="25.1"><title>2022-10-18 0.18 mins</title></rect><rect fill="#81c6fc" height="4" rx="1" ry="1" width="4" x="236.80000000000015" y="30.5"><title>2022-10-19 0.55 mins</title></rect><rect fill="#81c6fc" height="4" rx="1" ry="1" width="4" x="236.80000000000015" y="35.9"><title>2022-10-20 1.57 mins</title></rect><rect fill="#EBEDF0" height="4" rx="1" ry="1" width="4" x="236.80000000000015" y="41.300000000000004"><title>2022-10-21</title></rect><rect fill="#81c6fc" height="4" rx="1" ry="1" width="4" x="236.80000000000015" y="46.699999999999996"><title>2022-10-22 1.5 mins</title></rect><rect fill="#EBEDF0" height="4" rx="1" ry="1" width="4" x="236.80000000000015" y="52.1"><title>2022-10-23</title></rect><rect fill="#58b5fd" height="4" rx="1" ry="1" width="4" x="242.20000000000016" y="19.7"><title>2022-10-24 24.77 mins</title></rect><rect fill="#7ec5fc" height="4" rx="1" ry="1" width="4" x="242.20000000000016" y="25.1"><title>2022-10-25 19.37 mins</title></rect><rect fill="#81c6fc" height="4" rx="1" ry="1" width="4" x="242.20000000000016" y="30.5"><title>2022-10-26 0.03 mins</title></rect><rect fill="#81c6fc" height="4" rx="1" ry="1" width="4" x="242.20000000000016" y="35.9"><title>2022-10-27 0.98 mins</title></rect><rect fill="#EBEDF0" height="4" rx="1" ry="1" width="4" x="242.20000000000016" y="41.300000000000004"><title>2022-10-28</title></rect><rect fill="#EBEDF0" height="4" rx="1" ry="1" width="4" x="242.20000000000016" y="46.699999999999996"><title>2022-10-29</title></rect><rect fill="#EBEDF0" height="4" rx="1" ry="1" width="4" x="242.20000000000016" y="52.1"><title>2022-10-30</title></rect><rect fill="#57b5fd" height="4" rx="1" ry="1" width="4" x="247.60000000000016" y="19.7"><title>2022-10-31 41.6 mins</title></rect><rect fill="#58b5fd" height="4" rx="1" ry="1" width="4" x="247.60000000000016" y="25.1"><title>2022-11-01 31.03 mins</title></rect><rect fill="#7fc5fc" height="4" rx="1" ry="1" width="4" x="247.60000000000016" y="30.5"><title>2022-11-02 13.2 mins</title></rect><rect fill="#7fc5fc" height="4" rx="1" ry="1" width="4" x="247.60000000000016" y="35.9"><title>2022-11-03 15.17 mins</title></rect><rect fill="#34A7FF" height="4" rx="1" ry="1" width="4" x="247.60000000000016" y="41.300000000000004"><title>2022-11-04 84.93 mins</title></rect><rect fill="#34A7FF" height="4" rx="1" ry="1" width="4" x="247.60000000000016" y="46.699999999999996"><title>2022-11-05 105.2 mins</title></rect><rect fill="#7fc5fc" height="4" rx="1" ry="1" width="4" x="247.60000000000016" y="52.1"><title>2022-11-06 12.65 mins</title></rect><text fill="#000000" style="font-size:2.5px; font-family:Arial" x="253.00000000000017" y="18.3">Nov</text><rect fill="#34A7FF" height="4" rx="1" ry="1" width="4" x="253.00000000000017" y="19.7"><title>2022-11-07 80.78 mins</title></rect><rect fill="#57b5fd" height="4" rx="1" ry="1" width="4" x="253.00000000000017" y="25.1"><title>2022-11-08 41.55 mins</title></rect><rect fill="#81c6fc" height="4" rx="1" ry="1" width="4" x="253.00000000000017" y="30.5"><title>2022-11-09 1.82 mins</title></rect><rect fill="#56b4fd" height="4" rx="1" ry="1" width="4" x="253.00000000000017" y="35.9"><title>2022-11-10 58.55 mins</title></rect><rect fill="#EBEDF0" height="4" rx="1" ry="1" width="4" x="253.00000000000017" y="41.300000000000004"><title>2022-11-11</title></rect><rect fill="#EBEDF0" height="4" rx="1" ry="1" width="4" x="253.00000000000017" y="46.699999999999996"><title>2022-11-12</title></rect><rect fill="#81c6fc" height="4" rx="1" ry="1" width="4" x="253.00000000000017" y="52.1"><title>2022-11-13 1.85 mins</title></rect><rect fill="#EBEDF0" height="4" rx="1" ry="1" width="4" x="258.40000000000015" y="19.7"><title>2022-11-14</title></rect><rect fill="#81c6fc" height="4" rx="1" ry="1" width="4" x="258.40000000000015" y="25.1"><title>2022-11-15 0.05 mins</title></rect><rect fill="#7ec5fc" height="4" rx="1" ry="1" width="4" x="258.40000000000015" y="30.5"><title>2022-11-16 23.5 mins</title></rect><rect fill="#7ec5fc" height="4" rx="1" ry="1" width="4" x="258.40000000000015" y="35.9"><title>2022-11-17 23.08 mins</title></rect><rect fill="#80c6fc" height="4" rx="1" ry="1" width="4" x="258.40000000000015" y="41.300000000000004"><title>2022-11-18 5.05 mins</title></rect><rect fill="#34A7FF" height="4" rx="1" ry="1" width="4" x="258.40000000000015" y="46.699999999999996"><title>2022-11-19 69.82 mins</title></rect><rect fill="#7fc5fc" height="4" rx="1" ry="1" width="4" x="258.40000000000015" y="52.1"><title>2022-11-20 12.18 mins</title></rect><rect fill="#7ec5fc" height="4" rx="1" ry="1" width="4" x="263.8000000000001" y="19.7"><title>2022-11-21 23.0 mins</title></rect><rect fill="#80c6fc" height="4" rx="1" ry="1" width="4" x="263.8000000000001" y="25.1"><title>2022-11-22 7.08 mins</title></rect><rect fill="#EBEDF0" height="4" rx="1" ry="1" width="4" x="263.8000000000001" y="30.5"><title>2022-11-23</title></rect><rect fill="#EBEDF0" height="4" rx="1" ry="1" width="4" x="263.8000000000001" y="35.9"><title>2022-11-24</title></rect><rect fill="#EBEDF0" height="4" rx="1" ry="1" width="4" x="263.8000000000001" y="41.300000000000004"><title>2022-11-25</title></rect><rect fill="#EBEDF0" height="4" rx="1" ry="1" width="4" x="263.8000000000001" y="46.699999999999996"><title>2022-11-26</title></rect><rect fill="#EBEDF0" height="4" rx="1" ry="1" width="4" x="263.8000000000001" y="52.1"><title>2022-11-27</title></rect><rect fill="#EBEDF0" height="4" rx="1" ry="1" width="4" x="269.2000000000001" y="19.7"><title>2022-11-28</title></rect><rect fill="#EBEDF0" height="4" rx="1" ry="1" width="4" x="269.2000000000001" y="25.1"><title>2022-11-29</title></rect><rect fill="#EBEDF0" height="4" rx="1" ry="1" width="4" x="269.2000000000001" y="30.5"><title>2022-11-30</title></rect><rect fill="#80c5fc" height="4" rx="1" ry="1" width="4" x="269.2000000000001" y="35.9"><title>2022-12-01 10.28 mins</title></rect><rect fill="#EBEDF0" height="4" rx="1" ry="1" width="4" x="269.2000000000001" y="41.300000000000004"><title>2022-12-02</title></rect><rect fill="#EBEDF0" height="4" rx="1" ry="1" width="4" x="269.2000000000001" y="46.699999999999996"><title>2022-12-03</title></rect><rect fill="#EBEDF0" height="4" rx="1" ry="1" width="4" x="269.2000000000001" y="52.1"><title>2022-12-04</title></rect><text fill="#000000" style="font-size:2.5px; font-family:Arial" x="274.6000000000001" y="18.3">Dec</text><rect fill="#EBEDF0" height="4" rx="1" ry="1" width="4" x="274.6000000000001" y="19.7"><title>2022-12-05</title></rect><rect fill="#EBEDF0" height="4" rx="1" ry="1" width="4" x="274.6000000000001" y="25.1"><title>2022-12-06</title></rect><rect fill="#EBEDF0" height="4" rx="1" ry="1" width="4" x="274.6000000000001" y="30.5"><title>2022-12-07</title></rect><rect fill="#EBEDF0" height="4" rx="1" ry="1" width="4" x="274.6000000000001" y="35.9"><title>2022-12-08</title></rect><rect fill="#EBEDF0" height="4" rx="1" ry="1" width="4" x="274.6000000000001" y="41.300000000000004"><title>2022-12-09</title></rect><rect fill="#EBEDF0" height="4" rx="1" ry="1" width="4" x="274.6000000000001" y="46.699999999999996"><title>2022-12-10</title></rect><rect fill="#EBEDF0" height="4" rx="1" ry="1" width="4" x="274.6000000000001" y="52.1"><title>2022-12-11</title></rect><rect fill="#EBEDF0" height="4" rx="1" ry="1" width="4" x="280.00000000000006" y="19.7"><title>2022-12-12</title></rect><rect fill="#EBEDF0" height="4" rx="1" ry="1" width="4" x="280.00000000000006" y="25.1"><title>2022-12-13</title></rect><rect fill="#7ec5fc" height="4" rx="1" ry="1" width="4" x="280.00000000000006" y="30.5"><title>2022-12-14 21.08 mins</title></rect><rect fill="#58b5fd" height="4" rx="1" ry="1" width="4" x="280.00000000000006" y="35.9"><title>2022-12-15 29.77 mins</title></rect><rect fill="#81c6fc" height="4" rx="1" ry="1" width="4" x="280.00000000000006" y="41.300000000000004"><title>2022-12-16 3.18 mins</title></rect><rect fill="#EBEDF0" height="4" rx="1" ry="1" width="4" x="280.00000000000006" y="46.699999999999996"><title>2022-12-17</title></rect><rect fill="#EBEDF0" height="4" rx="1" ry="1" width="4" x="280.00000000000006" y="52.1"><title>2022-12-18</title></rect><rect fill="#7ec5fc" height="4" rx="1" ry="1" width="4" x="285.40000000000003" y="19.7"><title>2022-12-19 18.43 mins</title></rect><rect fill="#58b5fd" height="4" rx="1" ry="1" width="4" x="285.40000000000003" y="25.1"><title>2022-12-20 28.23 mins</title></rect><rect fill="#EBEDF0" height="4" rx="1" ry="1" width="4" x="285.40000000000003" y="30.5"><title>2022-12-21</title></rect><rect fill="#EBEDF0" height="4" rx="1" ry="1" width="4" x="285.40000000000003" y="35.9"><title>2022-12-22</title></rect><rect fill="#EBEDF0" height="4" rx="1" ry="1" width="4" x="285.40000000000003" y="41.300000000000004"><title>2022-12-23</title></rect><rect fill="#EBEDF0" height="4" rx="1" ry="1" width="4" x="285.40000000000003" y="46.699999999999996"><title>2022-12-24</title></rect><rect fill="#EBEDF0" height="4" rx="1" ry="1" width="4" x="285.40000000000003" y="52.1"><title>2022-12-25</title></rect><rect fill="#EBEDF0" height="4" rx="1" ry="1" width="4" x="290.8" y="19.7"><title>2022-12-26</title></rect><rect fill="#EBEDF0" height="4" rx="1" ry="1" width="4" x="290.8" y="25.1"><title>2022-12-27</title></rect><rect fill="#80c6fc" height="4" rx="1" ry="1" width="4" x="290.8" y="30.5"><title>2022-12-28 6.67 mins</title></rect><rect fill="#80c6fc" height="4" rx="1" ry="1" width="4" x="290.8" y="35.9"><title>2022-12-29 4.27 mins</title></rect><rect fill="#EBEDF0" height="4" rx="1" ry="1" width="4" x="290.8" y="41.300000000000004"><title>2022-12-30</title></rect><rect fill="#EBEDF0" height="4" rx="1" ry="1" width="4" x="290.8" y="46.699999999999996"><title>2022-12-31</title></rect></svg>