<?xml version="1.0" encoding="utf-8" ?>
<svg baseProfile="full" height="57.5mm" version="1.1" viewBox="0,0,306.20000000000005,57.5" width="306.20000000000005mm" xmlns="http://www.w3.org/2000/svg" xmlns:ev="http://www.w3.org/2001/xml-events" xmlns:xlink="http://www.w3.org/1999/xlink"><defs /><rect fill="#FFFFFF" height="57.5" width="306.20000000000005" x="0" y="0" /><text fill="#000000" style="font-size:6px; font-family:Arial; font-weight:bold;" x="10" y="10">elvinn 的微信读书记录</text><text fill="#000000" style="font-size:3px; font-family:Arial;" x="10" y="14.4">2020: 95 hours</text><text fill="#000000" style="font-size:2.5px; font-family:Arial" x="10" y="18.3">Jan</text><rect fill="#EBEDF0" height="4" rx="1" ry="1" width="4" x="10" y="19.7"><title>2019-12-30</title></rect><rect fill="#EBEDF0" height="4" rx="1" ry="1" width="4" x="10" y="25.1"><title>2019-12-31</title></rect><rect fill="#EBEDF0" height="4" rx="1" ry="1" width="4" x="10" y="30.5"><title>2020-01-01</title></rect><rect fill="#81c6fc" height="4" rx="1" ry="1" width="4" x="10" y="35.9"><title>2020-01-02 0.3 mins</title></rect><rect fill="#34A7FF" height="4" rx="1" ry="1" width="4" x="10" y="41.300000000000004"><title>2020-01-03 122.97 mins</title></rect><rect fill="#34A7FF" height="4" rx="1" ry="1" width="4" x="10" y="46.699999999999996"><title>2020-01-04 93.1 mins</title></rect><rect fill="#EBEDF0" height="4" rx="1" ry="1" width="4" x="10" y="52.1"><title>2020-01-05</title></rect><rect fill="#80c5fc" height="4" rx="1" ry="1" width="4" x="15.4" y="19.7"><title>2020-01-06 9.27 mins</title></rect><rect fill="#57b5fd" height="4" rx="1" ry="1" width="4" x="15.4" y="25.1"><title>2020-01-07 48.5 mins</title></rect><rect fill="#7ec5fc" height="4" rx="1" ry="1" width="4" x="15.4" y="30.5"><title>2020-01-08 21.82 mins</title></rect><rect fill="#58b5fd" height="4" rx="1" ry="1" width="4" x="15.4" y="35.9"><title>2020-01-09 35.37 mins</title></rect><rect fill="#56b5fd" height="4" rx="1" ry="1" width="4" x="15.4" y="41.300000000000004"><title>2020-01-10 53.57 mins</title></rect><rect fill="#EBEDF0" height="4" rx="1" ry="1" width="4" x="15.4" y="46.699999999999996"><title>2020-01-11</title></rect><rect fill="#81c6fc" height="4" rx="1" ry="1" width="4" x="15.4" y="52.1"><title>2020-01-12 0.02 mins</title></rect><rect fill="#EBEDF0" height="4" rx="1" ry="1" width="4" x="20.8" y="19.7"><title>2020-01-13</title></rect><rect fill="#58b5fd" height="4" rx="1" ry="1" width="4" x="20.8" y="25.1"><title>2020-01-14 29.28 mins</title></rect><rect fill="#EBEDF0" height="4" rx="1" ry="1" width="4" x="20.8" y="30.5"><title>2020-01-15</title></rect><rect fill="#57b5fd" height="4" rx="1" ry="1" width="4" x="20.8" y="35.9"><title>2020-01-16 44.33 mins</title></rect><rect fill="#58b5fd" height="4" rx="1" ry="1" width="4" x="20.8" y="41.300000000000004"><title>2020-01-17 24.57 mins</title></rect><rect fill="#EBEDF0" height="4" rx="1" ry="1" width="4" x="20.8" y="46.699999999999996"><title>2020-01-18</title></rect><rect fill="#81c6fc" height="4" rx="1" ry="1" width="4" x="20.8" y="52.1"><title>2020-01-19 1.13 mins</title></rect><rect fill="#7fc5fc" height="4" rx="1" ry="1" width="4" x="26.200000000000003" y="19.7"><title>2020-01-20 17.0 mins</title></rect><rect fill="#81c6fc" height="4" rx="1" ry="1" width="4" x="26.200000000000003" y="25.1"><title>2020-01-21 1.22 mins</title></rect><rect fill="#EBEDF0" height="4" rx="1" ry="1" width="4" x="26.200000000000003" y="30.5"><title>2020-01-22</title></rect><rect fill="#EBEDF0" height="4" rx="1" ry="1" width="4" x="26.200000000000003" y="35.9"><title>2020-01-23</title></rect><rect fill="#EBEDF0" height="4" rx="1" ry="1" width="4" x="26.200000000000003" y="41.300000000000004"><title>2020-01-24</title></rect><rect fill="#EBEDF0" height="4" rx="1" ry="1" width="4" x="26.200000000000003" y="46.699999999999996"><title>2020-01-25</title></rect><rect fill="#EBEDF0" height="4" rx="1" ry="1" width="4" x="26.200000000000003" y="52.1"><title>2020-01-26</title></rect><rect fill="#58b5fd" height="4" rx="1" ry="1" width="4" x="31.6" y="19.7"><title>2020-01-27 35.78 mins</title></rect><rect fill="#34A7FF" height="4" rx="1" ry="1" width="4" x="31.6" y="25.1"><title>2020-01-28 117.57 mins</title></rect><rect fill="#34A7FF" height="4" rx="1" ry="1" width="4" x="31.6" y="30.5"><title>2020-01-29 108.65 mins</title></rect><rect fill="#EBEDF0" height="4" rx="1" ry="1" width="4" x="31.6" y="35.9"><title>2020-01-30</title></rect><rect fill="#34A7FF" height="4" rx="1" ry="1" width="4" x="31.6" y="41.300000000000004"><title>2020-01-31 373.02 mins</title></rect><rect fill="#34A7FF" height="4" rx="1" ry="1" width="4" x="31.6" y="46.699999999999996"><title>2020-02-01 546.32 mins</title></rect><rect fill="#34A7FF" height="4" rx="1" ry="1" width="4" x="31.6" y="52.1"><title>2020-02-02 508.77 mins</title></rect><text fill="#000000" style="font-size:2.5px; font-family:Arial" x="37.0" y="18.3">Feb</text><rect fill="#EBEDF0" height="4" rx="1" ry="1" width="4" x="37.0" y="19.7"><title>2020-02-03</title></rect><rect fill="#EBEDF0" height="4" rx="1" ry="1" width="4" x="37.0" y="25.1"><title>2020-02-04</title></rect><rect fill="#EBEDF0" height="4" rx="1" ry="1" width="4" x="37.0" y="30.5"><title>2020-02-05</title></rect><rect fill="#EBEDF0" height="4" rx="1" ry="1" width="4" x="37.0" y="35.9"><title>2020-02-06</title></rect><rect fill="#EBEDF0" height="4" rx="1" ry="1" width="4" x="37.0" y="41.300000000000004"><title>2020-02-07</title></rect><rect fill="#EBEDF0" height="4" rx="1" ry="1" width="4" x="37.0" y="46.699999999999996"><title>2020-02-08</title></rect><rect fill="#EBEDF0" height="4" rx="1" ry="1" width="4" x="37.0" y="52.1"><title>2020-02-09</title></rect><rect fill="#EBEDF0" height="4" rx="1" ry="1" width="4" x="42.4" y="19.7"><title>2020-02-10</title></rect><rect fill="#EBEDF0" height="4" rx="1" ry="1" width="4" x="42.4" y="25.1"><title>2020-02-11</title></rect><rect fill="#81c6fc" height="4" rx="1" ry="1" width="4" x="42.4" y="30.5"><title>2020-02-12 1.57 mins</title></rect><rect fill="#58b5fd" height="4" rx="1" ry="1" width="4" x="42.4" y="35.9"><title>2020-02-13 31.07 mins</title></rect><rect fill="#EBEDF0" height="4" rx="1" ry="1" width="4" x="42.4" y="41.300000000000004"><title>2020-02-14</title></rect><rect fill="#EBEDF0" height="4" rx="1" ry="1" width="4" x="42.4" y="46.699999999999996"><title>2020-02-15</title></rect><rect fill="#EBEDF0" height="4" rx="1" ry="1" width="4" x="42.4" y="52.1"><title>2020-02-16</title></rect><rect fill="#7fc5fc" height="4" rx="1" ry="1" width="4" x="47.8" y="19.7"><title>2020-02-17 16.85 mins</title></rect><rect fill="#81c6fc" height="4" rx="1" ry="1" width="4" x="47.8" y="25.1"><title>2020-02-18 3.13 mins</title></rect><rect fill="#7ec5fc" height="4" rx="1" ry="1" width="4" x="47.8" y="30.5"><title>2020-02-19 23.55 mins</title></rect><rect fill="#7ec5fc" height="4" rx="1" ry="1" width="4" x="47.8" y="35.9"><title>2020-02-20 23.12 mins</title></rect><rect fill="#EBEDF0" height="4" rx="1" ry="1" width="4" x="47.8" y="41.300000000000004"><title>2020-02-21</title></rect><rect fill="#34A7FF" height="4" rx="1" ry="1" width="4" x="47.8" y="46.699999999999996"><title>2020-02-22 128.65 mins</title></rect><rect fill="#56b4fd" height="4" rx="1" ry="1" width="4" x="47.8" y="52.1"><title>2020-02-23 58.1 mins</title></rect><rect fill="#EBEDF0" height="4" rx="1" ry="1" width="4" x="53.199999999999996" y="19.7"><title>2020-02-24</title></rect><rect fill="#EBEDF0" height="4" rx="1" ry="1" width="4" x="53.199999999999996" y="25.1"><title>2020-02-25</title></rect><rect fill="#81c6fc" height="4" rx="1" ry="1" width="4" x="53.199999999999996" y="30.5"><title>2020-02-26 0.05 mins</title></rect><rect fill="#7ec5fc" height="4" rx="1" ry="1" width="4" x="53.199999999999996" y="35.9"><title>2020-02-27 21.83 mins</title></rect><rect fill="#7fc5fc" height="4" rx="1" ry="1" width="4" x="53.199999999999996" y="41.300000000000004"><title>2020-02-28 13.22 mins</title></rect><rect fill="#EBEDF0" height="4" rx="1" ry="1" width="4" x="53.199999999999996" y="46.699999999999996"><title>2020-02-29</title></rect><rect fill="#EBEDF0" height="4" rx="1" ry="1" width="4" x="53.199999999999996" y="52.1"><title>2020-03-01</title></rect><text fill="#000000" style="font-size:2.5px; font-family:Arial" x="58.599999999999994" y="18.3">Mar</text><rect fill="#80c6fc" height="4" rx="1" ry="1" width="4" x="58.599999999999994" y="19.7"><title>2020-03-02 8.12 mins</title></rect><rect fill="#EBEDF0" height="4" rx="1" ry="1" width="4" x="58.599999999999994" y="25.1"><title>2020-03-03</title></rect><rect fill="#EBEDF0" height="4" rx="1" ry="1" width="4" x="58.599999999999994" y="30.5"><title>2020-03-04</title></rect><rect fill="#80c6fc" height="4" rx="1" ry="1" width="4" x="58.599999999999994" y="35.9"><title>2020-03-05 5.03 mins</title></rect><rect fill="#EBEDF0" height="4" rx="1" ry="1" width="4" x="58.599999999999994" y="41.300000000000004"><title>2020-03-06</title></rect><rect fill="#34A7FF" height="4" rx="1" ry="1" width="4" x="58.599999999999994" y="46.699999999999996"><title>2020-03-07 116.12 mins</title></rect><rect fill="#34A7FF" height="4" rx="1" ry="1" width="4" x="58.599999999999994" y="52.1"><title>2020-03-08 226.38 mins</title></rect><rect fill="#81c6fc" height="4" rx="1" ry="1" width="4" x="63.99999999999999" y="19.7"><title>2020-03-09 0.9 mins</title></rect><rect fill="#81c6fc" height="4" rx="1" ry="1" width="4" x="63.99999999999999" y="25.1"><title>2020-03-10 0.05 mins</title></rect><rect fill="#7ec5fc" height="4" rx="1" ry="1" width="4" x="63.99999999999999" y="30.5"><title>2020-03-11 20.98 mins</title></rect><rect fill="#EBEDF0" height="4" rx="1" ry="1" width="4" x="63.99999999999999" y="35.9"><title>2020-03-12</title></rect><rect fill="#EBEDF0" height="4" rx="1" ry="1" width="4" x="63.99999999999999" y="41.300000000000004"><title>2020-03-13</title></rect><rect fill="#EBEDF0" height="4" rx="1" ry="1" width="4" x="63.99999999999999" y="46.699999999999996"><title>2020-03-14</title></rect><rect fill="#EBEDF0" height="4" rx="1" ry="1" width="4" x="63.99999999999999" y="52.1"><title>2020-03-15</title></rect><rect fill="#EBEDF0" height="4" rx="1" ry="1" width="4" x="69.39999999999999" y="19.7"><title>2020-03-16</title></rect><rect fill="#EBEDF0" height="4" rx="1" ry="1" width="4" x="69.39999999999999" y="25.1"><title>2020-03-17</title></rect><rect fill="#EBEDF0" height="4" rx="1" ry="1" width="4" x="69.39999999999999" y="30.5"><title>2020-03-18</title></rect><rect fill="#EBEDF0" height="4" rx="1" ry="1" width="4" x="69.39999999999999" y="35.9"><title>2020-03-19</title></rect><rect fill="#EBEDF0" height="4" rx="1" ry="1" width="4" x="69.39999999999999" y="41.300000000000004"><title>2020-03-20</title></rect><rect fill="#34A7FF" height="4" rx="1" ry="1" width="4" x="69.39999999999999" y="46.699999999999996"><title>2020-03-21 133.62 mins</title></rect><rect fill="#EBEDF0" height="4" rx="1" ry="1" width="4" x="69.39999999999999" y="52.1"><title>2020-03-22</title></rect><rect fill="#EBEDF0" height="4" rx="1" ry="1" width="4" x="74.8" y="19.7"><title>2020-03-23</title></rect><rect fill="#EBEDF0" height="4" rx="1" ry="1" width="4" x="74.8" y="25.1"><title>2020-03-24</title></rect><rect fill="#EBEDF0" height="4" rx="1" ry="1" width="4" x="74.8" y="30.5"><title>2020-03-25</title></rect><rect fill="#EBEDF0" height="4" rx="1" ry="1" width="4" x="74.8" y="35.9"><title>2020-03-26</title></rect><rect fill="#58b5fd" height="4" rx="1" ry="1" width="4" x="74.8" y="41.300000000000004"><title>2020-03-27 32.13 mins</title></rect><rect fill="#EBEDF0" height="4" rx="1" ry="1" width="4" x="74.8" y="46.699999999999996"><title>2020-03-28</title></rect><rect fill="#56b4fd" height="4" rx="1" ry="1" width="4" x="74.8" y="52.1"><title>2020-03-29 59.97 mins</title></rect><rect fill="#EBEDF0" height="4" rx="1" ry="1" width="4" x="80.2" y="19.7"><title>2020-03-30</title></rect><rect fill="#58b5fd" height="4" rx="1" ry="1" width="4" x="80.2" y="25.1"><title>2020-03-31 27.8 mins</title></rect><rect fill="#7fc5fc" height="4" rx="1" ry="1" width="4" x="80.2" y="30.5"><title>2020-04-01 12.93 mins</title></rect><rect fill="#58b5fd" height="4" rx="1" ry="1" width="4" x="80.2" y="35.9"><title>2020-04-02 31.75 mins</title></rect><rect fill="#EBEDF0" height="4" rx="1" ry="1" width="4" x="80.2" y="41.300000000000004"><title>2020-04-03</title></rect><rect fill="#58b5fd" height="4" rx="1" ry="1" width="4" x="80.2" y="46.699999999999996"><title>2020-04-04 32.7 mins</title></rect><rect fill="#81c6fc" height="4" rx="1" ry="1" width="4" x="80.2" y="52.1"><title>2020-04-05 0.27 mins</title></rect><text fill="#000000" style="font-size:2.5px; font-family:Arial" x="85.60000000000001" y="18.3">Apr</text><rect fill="#80c6fc" height="4" rx="1" ry="1" width="4" x="85.60000000000001" y="19.7"><title>2020-04-06 4.62 mins</title></rect><rect fill="#80c6fc" height="4" rx="1" ry="1" width="4" x="85.60000000000001" y="25.1"><title>2020-04-07 5.68 mins</title></rect><rect fill="#57b5fd" height="4" rx="1" ry="1" width="4" x="85.60000000000001" y="30.5"><title>2020-04-08 46.58 mins</title></rect><rect fill="#57b5fd" height="4" rx="1" ry="1" width="4" x="85.60000000000001" y="35.9"><title>2020-04-09 46.55 mins</title></rect><rect fill="#EBEDF0" height="4" rx="1" ry="1" width="4" x="85.60000000000001" y="41.300000000000004"><title>2020-04-10</title></rect><rect fill="#34A7FF" height="4" rx="1" ry="1" width="4" x="85.60000000000001" y="46.699999999999996"><title>2020-04-11 136.72 mins</title></rect><rect fill="#34A7FF" height="4" rx="1" ry="1" width="4" x="85.60000000000001" y="52.1"><title>2020-04-12 84.33 mins</title></rect><rect fill="#EBEDF0" height="4" rx="1" ry="1" width="4" x="91.00000000000001" y="19.7"><title>2020-04-13</title></rect><rect fill="#EBEDF0" height="4" rx="1" ry="1" width="4" x="91.00000000000001" y="25.1"><title>2020-04-14</title></rect><rect fill="#80c6fc" height="4" rx="1" ry="1" width="4" x="91.00000000000001" y="30.5"><title>2020-04-15 3.78 mins</title></rect><rect fill="#EBEDF0" height="4" rx="1" ry="1" width="4" x="91.00000000000001" y="35.9"><title>2020-04-16</title></rect><rect fill="#80c5fc" height="4" rx="1" ry="1" width="4" x="91.00000000000001" y="41.300000000000004"><title>2020-04-17 10.75 mins</title></rect><rect fill="#EBEDF0" height="4" rx="1" ry="1" width="4" x="91.00000000000001" y="46.699999999999996"><title>2020-04-18</title></rect><rect fill="#7fc5fc" height="4" rx="1" ry="1" width="4" x="91.00000000000001" y="52.1"><title>2020-04-19 13.67 mins</title></rect><rect fill="#81c6fc" height="4" rx="1" ry="1" width="4" x="96.40000000000002" y="19.7"><title>2020-04-20 3.1 mins</title></rect><rect fill="#EBEDF0" height="4" rx="1" ry="1" width="4" x="96.40000000000002" y="25.1"><title>2020-04-21</title></rect><rect fill="#EBEDF0" height="4" rx="1" ry="1" width="4" x="96.40000000000002" y="30.5"><title>2020-04-22</title></rect><rect fill="#EBEDF0" height="4" rx="1" ry="1" width="4" x="96.40000000000002" y="35.9"><title>2020-04-23</title></rect><rect fill="#EBEDF0" height="4" rx="1" ry="1" width="4" x="96.40000000000002" y="41.300000000000004"><title>2020-04-24</title></rect><rect fill="#EBEDF0" height="4" rx="1" ry="1" width="4" x="96.40000000000002" y="46.699999999999996"><title>2020-04-25</title></rect><rect fill="#EBEDF0" height="4" rx="1" ry="1" width="4" x="96.40000000000002" y="52.1"><title>2020-04-26</title></rect><rect fill="#81c6fc" height="4" rx="1" ry="1" width="4" x="101.80000000000003" y="19.7"><title>2020-04-27 0.07 mins</title></rect><rect fill="#EBEDF0" height="4" rx="1" ry="1" width="4" x="101.80000000000003" y="25.1"><title>2020-04-28</title></rect><rect fill="#EBEDF0" height="4" rx="1" ry="1" width="4" x="101.80000000000003" y="30.5"><title>2020-04-29</title></rect><rect fill="#EBEDF0" height="4" rx="1" ry="1" width="4" x="101.80000000000003" y="35.9"><title>2020-04-30</title></rect><rect fill="#EBEDF0" height="4" rx="1" ry="1" width="4" x="101.80000000000003" y="41.300000000000004"><title>2020-05-01</title></rect><rect fill="#EBEDF0" height="4" rx="1" ry="1" width="4" x="101.80000000000003" y="46.699999999999996"><title>2020-05-02</title></rect><rect fill="#EBEDF0" height="4" rx="1" ry="1" width="4" x="101.80000000000003" y="52.1"><title>2020-05-03</title></rect><text fill="#000000" style="font-size:2.5px; font-family:Arial" x="107.20000000000003" y="18.3">May</text><rect fill="#7ec5fc" height="4" rx="1" ry="1" width="4" x="107.20000000000003" y="19.7"><title>2020-05-04 20.0 mins</title></rect><rect fill="#EBEDF0" height="4" rx="1" ry="1" width="4" x="107.20000000000003" y="25.1"><title>2020-05-05</title></rect><rect fill="#58b5fd" height="4" rx="1" ry="1" width="4" x="107.20000000000003" y="30.5"><title>2020-05-06 23.85 mins</title></rect><rect fill="#7fc5fc" height="4" rx="1" ry="1" width="4" x="107.20000000000003" y="35.9"><title>2020-05-07 14.6 mins</title></rect><rect fill="#80c6fc" height="4" rx="1" ry="1" width="4" x="107.20000000000003" y="41.300000000000004"><title>2020-05-08 6.8 mins</title></rect><rect fill="#EBEDF0" height="4" rx="1" ry="1" width="4" x="107.20000000000003" y="46.699999999999996"><title>2020-05-09</title></rect><rect fill="#EBEDF0" height="4" rx="1" ry="1" width="4" x="107.20000000000003" y="52.1"><title>2020-05-10</title></rect><rect fill="#80c5fc" height="4" rx="1" ry="1" width="4" x="112.60000000000004" y="19.7"><title>2020-05-11 10.08 mins</title></rect><rect fill="#EBEDF0" height="4" rx="1" ry="1" width="4" x="112.60000000000004" y="25.1"><title>2020-05-12</title></rect><rect fill="#7ec5fc" height="4" rx="1" ry="1" width="4" x="112.60000000000004" y="30.5"><title>2020-05-13 22.85 mins</title></rect><rect fill="#56b5fd" height="4" rx="1" ry="1" width="4" x="112.60000000000004" y="35.9"><title>2020-05-14 51.15 mins</title></rect><rect fill="#EBEDF0" height="4" rx="1" ry="1" width="4" x="112.60000000000004" y="41.300000000000004"><title>2020-05-15</title></rect><rect fill="#EBEDF0" height="4" rx="1" ry="1" width="4" x="112.60000000000004" y="46.699999999999996"><title>2020-05-16</title></rect><rect fill="#EBEDF0" height="4" rx="1" ry="1" width="4" x="112.60000000000004" y="52.1"><title>2020-05-17</title></rect><rect fill="#EBEDF0" height="4" rx="1" ry="1" width="4" x="118.00000000000004" y="19.7"><title>2020-05-18</title></rect><rect fill="#EBEDF0" height="4" rx="1" ry="1" width="4" x="118.00000000000004" y="25.1"><title>2020-05-19</title></rect><rect fill="#EBEDF0" height="4" rx="1" ry="1" width="4" x="118.00000000000004" y="30.5"><title>2020-05-20</title></rect><rect fill="#57b5fd" height="4" rx="1" ry="1" width="4" x="118.00000000000004" y="35.9"><title>2020-05-21 46.7 mins</title></rect><rect fill="#7fc5fc" height="4" rx="1" ry="1" width="4" x="118.00000000000004" y="41.300000000000004"><title>2020-05-22 16.52 mins</title></rect><rect fill="#EBEDF0" height="4" rx="1" ry="1" width="4" x="118.00000000000004" y="46.699999999999996"><title>2020-05-23</title></rect><rect fill="#EBEDF0" height="4" rx="1" ry="1" width="4" x="118.00000000000004" y="52.1"><title>2020-05-24</title></rect><rect fill="#34A7FF" height="4" rx="1" ry="1" width="4" x="123.40000000000005" y="19.7"><title>2020-05-25 62.1 mins</title></rect><rect fill="#81c6fc" height="4" rx="1" ry="1" width="4" x="123.40000000000005" y="25.1"><title>2020-05-26 2.4 mins</title></rect><rect fill="#80c5fc" height="4" rx="1" ry="1" width="4" x="123.40000000000005" y="30.5"><title>2020-05-27 9.03 mins</title></rect><rect fill="#58b5fd" height="4" rx="1" ry="1" width="4" x="123.40000000000005" y="35.9"><title>2020-05-28 31.47 mins</title></rect><rect fill="#EBEDF0" height="4" rx="1" ry="1" width="4" x="123.40000000000005" y="41.300000000000004"><title>2020-05-29</title></rect><rect fill="#EBEDF0" height="4" rx="1" ry="1" width="4" x="123.40000000000005" y="46.699999999999996"><title>2020-05-30</title></rect><rect fill="#EBEDF0" height="4" rx="1" ry="1" width="4" x="123.40000000000005" y="52.1"><title>2020-05-31</title></rect><text fill="#000000" style="font-size:2.5px; font-family:Arial" x="128.80000000000004" y="18.3">Jun</text><rect fill="#EBEDF0" height="4" rx="1" ry="1" width="4" x="128.80000000000004" y="19.7"><title>2020-06-01</title></rect><rect fill="#34A7FF" height="4" rx="1" ry="1" width="4" x="128.80000000000004" y="25.1"><title>2020-06-02 115.1 mins</title></rect><rect fill="#56b5fd" height="4" rx="1" ry="1" width="4" x="128.80000000000004" y="30.5"><title>2020-06-03 51.68 mins</title></rect><rect fill="#7ec5fc" height="4" rx="1" ry="1" width="4" x="128.80000000000004" y="35.9"><title>2020-06-04 22.08 mins</title></rect><rect fill="#58b5fd" height="4" rx="1" ry="1" width="4" x="128.80000000000004" y="41.300000000000004"><title>2020-06-05 34.15 mins</title></rect><rect fill="#34A7FF" height="4" rx="1" ry="1" width="4" x="128.80000000000004" y="46.699999999999996"><title>2020-06-06 69.07 mins</title></rect><rect fill="#80c6fc" height="4" rx="1" ry="1" width="4" x="128.80000000000004" y="52.1"><title>2020-06-07 6.93 mins</title></rect><rect fill="#34A7FF" height="4" rx="1" ry="1" width="4" x="134.20000000000005" y="19.7"><title>2020-06-08 164.05 mins</title></rect><rect fill="#EBEDF0" height="4" rx="1" ry="1" width="4" x="134.20000000000005" y="25.1"><title>2020-06-09</title></rect><rect fill="#58b5fd" height="4" rx="1" ry="1" width="4" x="134.20000000000005" y="30.5"><title>2020-06-10 24.47 mins</title></rect><rect fill="#58b5fd" height="4" rx="1" ry="1" width="4" x="134.20000000000005" y="35.9"><title>2020-06-11 24.33 mins</title></rect><rect fill="#EBEDF0" height="4" rx="1" ry="1" width="4" x="134.20000000000005" y="41.300000000000004"><title>2020-06-12</title></rect><rect fill="#EBEDF0" height="4" rx="1" ry="1" width="4" x="134.20000000000005" y="46.699999999999996"><title>2020-06-13</title></rect><rect fill="#EBEDF0" height="4" rx="1" ry="1" width="4" x="134.20000000000005" y="52.1"><title>2020-06-14</title></rect><rect fill="#EBEDF0" height="4" rx="1" ry="1" width="4" x="139.60000000000005" y="19.7"><title>2020-06-15</title></rect><rect fill="#EBEDF0" height="4" rx="1" ry="1" width="4" x="139.60000000000005" y="25.1"><title>2020-06-16</title></rect><rect fill="#EBEDF0" height="4" rx="1" ry="1" width="4" x="139.60000000000005" y="30.5"><title>2020-06-17</title></rect><rect fill="#EBEDF0" height="4" rx="1" ry="1" width="4" x="139.60000000000005" y="35.9"><title>2020-06-18</title></rect><rect fill="#EBEDF0" height="4" rx="1" ry="1" width="4" x="139.60000000000005" y="41.300000000000004"><title>2020-06-19</title></rect><rect fill="#80c6fc" height="4" rx="1" ry="1" width="4" x="139.60000000000005" y="46.699999999999996"><title>2020-06-20 6.0 mins</title></rect><rect fill="#EBEDF0" height="4" rx="1" ry="1" width="4" x="139.60000000000005" y="52.1"><title>2020-06-21</title></rect><rect fill="#EBEDF0" height="4" rx="1" ry="1" width="4" x="145.00000000000006" y="19.7"><title>2020-06-22</title></rect><rect fill="#EBEDF0" height="4" rx="1" ry="1" width="4" x="145.00000000000006" y="25.1"><title>2020-06-23</title></rect><rect fill="#EBEDF0" height="4" rx="1" ry="1" width="4" x="145.00000000000006" y="30.5"><title>2020-06-24</title></rect><rect fill="#34A7FF" height="4" rx="1" ry="1" width="4" x="145.00000000000006" y="35.9"><title>2020-06-25 72.3 mins</title></rect><rect fill="#EBEDF0" height="4" rx="1" ry="1" width="4" x="145.00000000000006" y="41.300000000000004"><title>2020-06-26</title></rect><rect fill="#EBEDF0" height="4" rx="1" ry="1" width="4" x="145.00000000000006" y="46.699999999999996"><title>2020-06-27</title></rect><rect fill="#EBEDF0" height="4" rx="1" ry="1" width="4" x="145.00000000000006" y="52.1"><title>2020-06-28</title></rect><rect fill="#58b5fd" height="4" rx="1" ry="1" width="4" x="150.40000000000006" y="19.7"><title>2020-06-29 25.62 mins</title></rect><rect fill="#EBEDF0" height="4" rx="1" ry="1" width="4" x="150.40000000000006" y="25.1"><title>2020-06-30</title></rect><rect fill="#EBEDF0" height="4" rx="1" ry="1" width="4" x="150.40000000000006" y="30.5"><title>2020-07-01</title></rect><rect fill="#7fc5fc" height="4" rx="1" ry="1" width="4" x="150.40000000000006" y="35.9"><title>2020-07-02 12.93 mins</title></rect><rect fill="#81c6fc" height="4" rx="1" ry="1" width="4" x="150.40000000000006" y="41.300000000000004"><title>2020-07-03 0.6 mins</title></rect><rect fill="#81c6fc" height="4" rx="1" ry="1" width="4" x="150.40000000000006" y="46.699999999999996"><title>2020-07-04 3.35 mins</title></rect><rect fill="#EBEDF0" height="4" rx="1" ry="1" width="4" x="150.40000000000006" y="52.1"><title>2020-07-05</title></rect><text fill="#000000" style="font-size:2.5px; font-family:Arial" x="155.80000000000007" y="18.3">Jul</text><rect fill="#80c6fc" height="4" rx="1" ry="1" width="4" x="155.80000000000007" y="19.7"><title>2020-07-06 5.68 mins</title></rect><rect fill="#80c5fc" height="4" rx="1" ry="1" width="4" x="155.80000000000007" y="25.1"><title>2020-07-07 9.33 mins</title></rect><rect fill="#7fc5fc" height="4" rx="1" ry="1" width="4" x="155.80000000000007" y="30.5"><title>2020-07-08 12.45 mins</title></rect><rect fill="#EBEDF0" height="4" rx="1" ry="1" width="4" x="155.80000000000007" y="35.9"><title>2020-07-09</title></rect><rect fill="#EBEDF0" height="4" rx="1" ry="1" width="4" x="155.80000000000007" y="41.300000000000004"><title>2020-07-10</title></rect><rect fill="#81c6fc" height="4" rx="1" ry="1" width="4" x="155.80000000000007" y="46.699999999999996"><title>2020-07-11 0.03 mins</title></rect><rect fill="#EBEDF0" height="4" rx="1" ry="1" width="4" x="155.80000000000007" y="52.1"><title>2020-07-12</title></rect><rect fill="#EBEDF0" height="4" rx="1" ry="1" width="4" x="161.20000000000007" y="19.7"><title>2020-07-13</title></rect><rect fill="#81c6fc" height="4" rx="1" ry="1" width="4" x="161.20000000000007" y="25.1"><title>2020-07-14 0.25 mins</title></rect><rect fill="#EBEDF0" height="4" rx="1" ry="1" width="4" x="161.20000000000007" y="30.5"><title>2020-07-15</title></rect><rect fill="#EBEDF0" height="4" rx="1" ry="1" width="4" x="161.20000000000007" y="35.9"><title>2020-07-16</title></rect><rect fill="#EBEDF0" height="4" rx="1" ry="1" width="4" x="161.20000000000007" y="41.300000000000004"><title>2020-07-17</title></rect><rect fill="#EBEDF0" height="4" rx="1" ry="1" width="4" x="161.20000000000007" y="46.699999999999996"><title>2020-07-18</title></rect><rect fill="#EBEDF0" height="4" rx="1" ry="1" width="4" x="161.20000000000007" y="52.1"><title>2020-07-19</title></rect><rect fill="#EBEDF0" height="4" rx="1" ry="1" width="4" x="166.60000000000008" y="19.7"><title>2020-07-20</title></rect><rect fill="#EBEDF0" height="4" rx="1" ry="1" width="4" x="166.60000000000008" y="25.1"><title>2020-07-21</title></rect><rect fill="#EBEDF0" height="4" rx="1" ry="1" width="4" x="166.60000000000008" y="30.5"><title>2020-07-22</title></rect><rect fill="#EBEDF0" height="4" rx="1" ry="1" width="4" x="166.60000000000008" y="35.9"><title>2020-07-23</title></rect><rect fill="#EBEDF0" height="4" rx="1" ry="1" width="4" x="166.60000000000008" y="41.300000000000004"><title>2020-07-24</title></rect><rect fill="#EBEDF0" height="4" rx="1" ry="1" width="4" x="166.60000000000008" y="46.699999999999996"><title>2020-07-25</title></rect><rect fill="#EBEDF0" height="4" rx="1" ry="1" width="4" x="166.60000000000008" y="52.1"><title>2020-07-26</title></rect><rect fill="#EBEDF0" height="4" rx="1" ry="1" width="4" x="172.00000000000009" y="19.7"><title>2020-07-27</title></rect><rect fill="#EBEDF0" height="4" rx="1" ry="1" width="4" x="172.00000000000009" y="25.1"><title>2020-07-28</title></rect><rect fill="#81c6fc" height="4" rx="1" ry="1" width="4" x="172.00000000000009" y="30.5"><title>2020-07-29 1.18 mins</title></rect><rect fill="#57b5fd" height="4" rx="1" ry="1" width="4" x="172.00000000000009" y="35.9"><title>2020-07-30 43.8 mins</title></rect><rect fill="#EBEDF0" height="4" rx="1" ry="1" width="4" x="172.00000000000009" y="41.300000000000004"><title>2020-07-31</title></rect><rect fill="#EBEDF0" height="4" rx="1" ry="1" width="4" x="172.00000000000009" y="46.699999999999996"><title>2020-08-01</title></rect><rect fill="#EBEDF0" height="4" rx="1" ry="1" width="4" x="172.00000000000009" y="52.1"><title>2020-08-02</title></rect><text fill="#000000" style="font-size:2.5px; font-family:Arial" x="177.4000000000001" y="18.3">Aug</text><rect fill="#7ec5fc" height="4" rx="1" ry="1" width="4" x="177.4000000000001" y="19.7"><title>2020-08-03 21.38 mins</title></rect><rect fill="#EBEDF0" height="4" rx="1" ry="1" width="4" x="177.4000000000001" y="25.1"><title>2020-08-04</title></rect><rect fill="#EBEDF0" height="4" rx="1" ry="1" width="4" x="177.4000000000001" y="30.5"><title>2020-08-05</title></rect><rect fill="#EBEDF0" height="4" rx="1" ry="1" width="4" x="177.4000000000001" y="35.9"><title>2020-08-06</title></rect><rect fill="#EBEDF0" height="4" rx="1" ry="1" width="4" x="177.4000000000001" y="41.300000000000004"><title>2020-08-07</title></rect><rect fill="#EBEDF0" height="4" rx="1" ry="1" width="4" x="177.4000000000001" y="46.699999999999996"><title>2020-08-08</title></rect><rect fill="#EBEDF0" height="4" rx="1" ry="1" width="4" x="177.4000000000001" y="52.1"><title>2020-08-09</title></rect><rect fill="#EBEDF0" height="4" rx="1" ry="1" width="4" x="182.8000000000001" y="19.7"><title>2020-08-10</title></rect><rect fill="#EBEDF0" height="4" rx="1" ry="1" width="4" x="182.8000000000001" y="25.1"><title>2020-08-11</title></rect><rect fill="#81c6fc" height="4" rx="1" ry="1" width="4" x="182.8000000000001" y="30.5"><title>2020-08-12 0.35 mins</title></rect><rect fill="#EBEDF0" height="4" rx="1" ry="1" width="4" x="182.8000000000001" y="35.9"><title>2020-08-13</title></rect><rect fill="#EBEDF0" height="4" rx="1" ry="1" width="4" x="182.8000000000001" y="41.300000000000004"><title>2020-08-14</title></rect><rect fill="#EBEDF0" height="4" rx="1" ry="1" width="4" x="182.8000000000001" y="46.699999999999996"><title>2020-08-15</title></rect><rect fill="#81c6fc" height="4" rx="1" ry="1" width="4" x="182.8000000000001" y="52.1"><title>2020-08-16 0.37 mins</title></rect><rect fill="#EBEDF0" height="4" rx="1" ry="1" width="4" x="188.2000000000001" y="19.7"><title>2020-08-17</title></rect><rect fill="#EBEDF0" height="4" rx="1" ry="1" width="4" x="188.2000000000001" y="25.1"><title>2020-08-18</title></rect><rect fill="#7fc5fc" height="4" rx="1" ry="1" width="4" x="188.2000000000001" y="30.5"><title>2020-08-19 11.73 mins</title></rect><rect fill="#EBEDF0" height="4" rx="1" ry="1" width="4" x="188.2000000000001" y="35.9"><title>2020-08-20</title></rect><rect fill="#EBEDF0" height="4" rx="1" ry="1" width="4" x="188.2000000000001" y="41.300000000000004"><title>2020-08-21</title></rect><rect fill="#EBEDF0" height="4" rx="1" ry="1" width="4" x="188.2000000000001" y="46.699999999999996"><title>2020-08-22</title></rect><rect fill="#EBEDF0" height="4" rx="1" ry="1" width="4" x="188.2000000000001" y="52.1"><title>2020-08-23</title></rect><rect fill="#EBEDF0" height="4" rx="1" ry="1" width="4" x="193.6000000000001" y="19.7"><title>2020-08-24</title></rect><rect fill="#EBEDF0" height="4" rx="1" ry="1" width="4" x="193.6000000000001" y="25.1"><title>2020-08-25</title></rect><rect fill="#EBEDF0" height="4" rx="1" ry="1" width="4" x="193.6000000000001" y="30.5"><title>2020-08-26</title></rect><rect fill="#EBEDF0" height="4" rx="1" ry="1" width="4" x="193.6000000000001" y="35.9"><title>2020-08-27</title></rect><rect fill="#EBEDF0" height="4" rx="1" ry="1" width="4" x="193.6000000000001" y="41.300000000000004"><title>2020-08-28</title></rect><rect fill="#EBEDF0" height="4" rx="1" ry="1" width="4" x="193.6000000000001" y="46.699999999999996"><title>2020-08-29</title></rect><rect fill="#81c6fc" height="4" rx="1" ry="1" width="4" x="193.6000000000001" y="52.1"><title>2020-08-30 2.45 mins</title></rect><rect fill="#EBEDF0" height="4" rx="1" ry="1" width="4" x="199.0000000000001" y="19.7"><title>2020-08-31</title></rect><rect fill="#EBEDF0" height="4" rx="1" ry="1" width="4" x="199.0000000000001" y="25.1"><title>2020-09-01</title></rect><rect fill="#EBEDF0" height="4" rx="1" ry="1" width="4" x="199.0000000000001" y="30.5"><title>2020-09-02</title></rect><rect fill="#EBEDF0" height="4" rx="1" ry="1" width="4" x="199.0000000000001" y="35.9"><title>2020-09-03</title></rect><rect fill="#EBEDF0" height="4" rx="1" ry="1" width="4" x="199.0000000000001" y="41.300000000000004"><title>2020-09-04</title></rect><rect fill="#EBEDF0" height="4" rx="1" ry="1" width="4" x="199.0000000000001" y="46.699999999999996"><title>2020-09-05</title></rect><rect fill="#81c6fc" height="4" rx="1" ry="1" width="4" x="199.0000000000001" y="52.1"><title>2020-09-06 1.6 mins</title></rect><text fill="#000000" style="font-size:2.5px; font-family:Arial" x="204.40000000000012" y="18.3">Sep</text><rect fill="#EBEDF0" height="4" rx="1" ry="1" width="4" x="204.40000000000012" y="19.7"><title>2020-09-07</title></rect><rect fill="#80c6fc" height="4" rx="1" ry="1" width="4" x="204.40000000000012" y="25.1"><title>2020-09-08 6.33 mins</title></rect><rect fill="#EBEDF0" height="4" rx="1" ry="1" width="4" x="204.40000000000012" y="30.5"><title>2020-09-09</title></rect><rect fill="#EBEDF0" height="4" rx="1" ry="1" width="4" x="204.40000000000012" y="35.9"><title>2020-09-10</title></rect><rect fill="#EBEDF0" height="4" rx="1" ry="1" width="4" x="204.40000000000012" y="41.300000000000004"><title>2020-09-11</title></rect><rect fill="#EBEDF0" height="4" rx="1" ry="1" width="4" x="204.40000000000012" y="46.699999999999996"><title>2020-09-12</title></rect><rect fill="#EBEDF0" height="4" rx="1" ry="1" width="4" x="204.40000000000012" y="52.1"><title>2020-09-13</title></rect><rect fill="#EBEDF0" height="4" rx="1" ry="1" width="4" x="209.80000000000013" y="19.7"><title>2020-09-14</title></rect><rect fill="#80c6fc" height="4" rx="1" ry="1" width="4" x="209.80000000000013" y="25.1"><title>2020-09-15 6.2 mins</title></rect><rect fill="#EBEDF0" height="4" rx="1" ry="1" width="4" x="209.80000000000013" y="30.5"><title>2020-09-16</title></rect><rect fill="#EBEDF0" height="4" rx="1" ry="1" width="4" x="209.80000000000013" y="35.9"><title>2020-09-17</title></rect><rect fill="#EBEDF0" height="4" rx="1" ry="1" width="4" x="209.80000000000013" y="41.300000000000004"><title>2020-09-18</title></rect><rect fill="#EBEDF0" height="4" rx="1" ry="1" width="4" x="209.80000000000013" y="46.699999999999996"><title>2020-09-19</title></rect><rect fill="#EBEDF0" height="4" rx="1" ry="1" width="4" x="209.80000000000013" y="52.1"><title>2020-09-20</title></rect><rect fill="#EBEDF0" height="4" rx="1" ry="1" width="4" x="215.20000000000013" y="19.7"><title>2020-09-21</title></rect><rect fill="#EBEDF0" height="4" rx="1" ry="1" width="4" x="215.20000000000013" y="25.1"><title>2020-09-22</title></rect><rect fill="#EBEDF0" height="4" rx="1" ry="1" width="4" x="215.20000000000013" y="30.5"><title>2020-09-23</title></rect><rect fill="#EBEDF0" height="4" rx="1" ry="1" width="4" x="215.20000000000013" y="35.9"><title>2020-09-24</title></rect><rect fill="#EBEDF0" height="4" rx="1" ry="1" width="4" x="215.20000000000013" y="41.300000000000004"><title>2020-09-25</title></rect><rect fill="#EBEDF0" height="4" rx="1" ry="1" width="4" x="215.20000000000013" y="46.699999999999996"><title>2020-09-26</title></rect><rect fill="#EBEDF0" height="4" rx="1" ry="1" width="4" x="215.20000000000013" y="52.1"><title>2020-09-27</title></rect><rect fill="#EBEDF0" height="4" rx="1" ry="1" width="4" x="220.60000000000014" y="19.7"><title>2020-09-28</title></rect><rect fill="#81c6fc" height="4" rx="1" ry="1" width="4" x="220.60000000000014" y="25.1"><title>2020-09-29 0.18 mins</title></rect><rect fill="#EBEDF0" height="4" rx="1" ry="1" width="4" x="220.60000000000014" y="30.5"><title>2020-09-30</title></rect><rect fill="#EBEDF0" height="4" rx="1" ry="1" width="4" x="220.60000000000014" y="35.9"><title>2020-10-01</title></rect><rect fill="#EBEDF0" height="4" rx="1" ry="1" width="4" x="220.60000000000014" y="41.300000000000004"><title>2020-10-02</title></rect><rect fill="#EBEDF0" height="4" rx="1" ry="1" width="4" x="220.60000000000014" y="46.699999999999996"><title>2020-10-03</title></rect><rect fill="#EBEDF0" height="4" rx="1" ry="1" width="4" x="220.60000000000014" y="52.1"><title>2020-10-04</title></rect><text fill="#000000" style="font-size:2.5px; font-family:Arial" x="226.00000000000014" y="18.3">Oct</text><rect fill="#EBEDF0" height="4" rx="1" ry="1" width="4" x="226.00000000000014" y="19.7"><title>2020-10-05</title></rect><rect fill="#EBEDF0" height="4" rx="1" ry="1" width="4" x="226.00000000000014" y="25.1"><title>2020-10-06</title></rect><rect fill="#EBEDF0" height="4" rx="1" ry="1" width="4" x="226.00000000000014" y="30.5"><title>2020-10-07</title></rect><rect fill="#EBEDF0" height="4" rx="1" ry="1" width="4" x="226.00000000000014" y="35.9"><title>2020-10-08</title></rect><rect fill="#7ec5fc" height="4" rx="1" ry="1" width="4" x="226.00000000000014" y="41.300000000000004"><title>2020-10-09 22.25 mins</title></rect><rect fill="#81c6fc" height="4" rx="1" ry="1" width="4" x="226.00000000000014" y="46.699999999999996"><title>2020-10-10 2.17 mins</title></rect><rect fill="#80c6fc" height="4" rx="1" ry="1" width="4" x="226.00000000000014" y="52.1"><title>2020-10-11 5.35 mins</title></rect><rect fill="#34A7FF" height="4" rx="1" ry="1" width="4" x="231.40000000000015" y="19.7"><title>2020-10-12 105.38 mins</title></rect><rect fill="#81c6fc" height="4" rx="1" ry="1" width="4" x="231.40000000000015" y="25.1"><title>2020-10-13 0.22 mins</title></rect><rect fill="#EBEDF0" height="4" rx="1" ry="1" width="4" x="231.40000000000015" y="30.5"><title>2020-10-14</title></rect><rect fill="#EBEDF0" height="4" rx="1" ry="1" width="4" x="231.40000000000015" y="35.9"><title>2020-10-15</title></rect><rect fill="#EBEDF0" height="4" rx="1" ry="1" width="4" x="231.40000000000015" y="41.300000000000004"><title>2020-10-16</title></rect><rect fill="#EBEDF0" height="4" rx="1" ry="1" width="4" x="231.40000000000015" y="46.699999999999996"><title>2020-10-17</title></rect><rect fill="#EBEDF0" height="4" rx="1" ry="1" width="4" x="231.40000000000015" y="52.1"><title>2020-10-18</title></rect><rect fill="#EBEDF0" height="4" rx="1" ry="1" width="4" x="236.80000000000015" y="19.7"><title>2020-10-19</title></rect><rect fill="#EBEDF0" height="4" rx="1" ry="1" width="4" x="236.80000000000015" y="25.1"><title>2020-10-20</title></rect><rect fill="#EBEDF0" height="4" rx="1" ry="1" width="4" x="236.80000000000015" y="30.5"><title>2020-10-21</title></rect><rect fill="#EBEDF0" height="4" rx="1" ry="1" width="4" x="236.80000000000015" y="35.9"><title>2020-10-22</title></rect><rect fill="#EBEDF0" height="4" rx="1" ry="1" width="4" x="236.80000000000015" y="41.300000000000004"><title>2020-10-23</title></rect><rect fill="#EBEDF0" height="4" rx="1" ry="1" width="4" x="236.80000000000015" y="46.699999999999996"><title>2020-10-24</title></rect><rect fill="#EBEDF0" height="4" rx="1" ry="1" width="4" x="236.80000000000015" y="52.1"><title>2020-10-25</title></rect><rect fill="#EBEDF0" height="4" rx="1" ry="1" width="4" x="242.20000000000016" y="19.7"><title>2020-10-26</title></rect><rect fill="#EBEDF0" height="4" rx="1" ry="1" width="4" x="242.20000000000016" y="25.1"><title>2020-10-27</title></rect><rect fill="#EBEDF0" height="4" rx="1" ry="1" width="4" x="242.20000000000016" y="30.5"><title>2020-10-28</title></rect><rect fill="#EBEDF0" height="4" rx="1" ry="1" width="4" x="242.20000000000016" y="35.9"><title>2020-10-29</title></rect><rect fill="#EBEDF0" height="4" rx="1" ry="1" width="4" x="242.20000000000016" y="41.300000000000004"><title>2020-10-30</title></rect><rect fill="#EBEDF0" height="4" rx="1" ry="1" width="4" x="242.20000000000016" y="46.699999999999996"><title>2020-10-31</title></rect><rect fill="#EBEDF0" height="4" rx="1" ry="1" width="4" x="242.20000000000016" y="52.1"><title>2020-11-01</title></rect><text fill="#000000" style="font-size:2.5px; font-family:Arial" x="247.60000000000016" y="18.3">Nov</text><rect fill="#EBEDF0" height="4" rx="1" ry="1" width="4" x="247.60000000000016" y="19.7"><title>2020-11-02</title></rect><rect fill="#EBEDF0" height="4" rx="1" ry="1" width="4" x="247.60000000000016" y="25.1"><title>2020-11-03</title></rect><rect fill="#EBEDF0" height="4" rx="1" ry="1" width="4" x="247.60000000000016" y="30.5"><title>2020-11-04</title></rect><rect fill="#EBEDF0" height="4" rx="1" ry="1" width="4" x="247.60000000000016" y="35.9"><title>2020-11-05</title></rect><rect fill="#EBEDF0" height="4" rx="1" ry="1" width="4" x="247.60000000000016" y="41.300000000000004"><title>2020-11-06</title></rect><rect fill="#EBEDF0" height="4" rx="1" ry="1" width="4" x="247.60000000000016" y="46.699999999999996"><title>2020-11-07</title></rect><rect fill="#EBEDF0" height="4" rx="1" ry="1" width="4" x="247.60000000000016" y="52.1"><title>2020-11-08</title></rect><rect fill="#EBEDF0" height="4" rx="1" ry="1" width="4" x="253.00000000000017" y="19.7"><title>2020-11-09</title></rect><rect fill="#EBEDF0" height="4" rx="1" ry="1" width="4" x="253.00000000000017" y="25.1"><title>2020-11-10</title></rect><rect fill="#EBEDF0" height="4" rx="1" ry="1" width="4" x="253.00000000000017" y="30.5"><title>2020-11-11</title></rect><rect fill="#EBEDF0" height="4" rx="1" ry="1" width="4" x="253.00000000000017" y="35.9"><title>2020-11-12</title></rect><rect fill="#EBEDF0" height="4" rx="1" ry="1" width="4" x="253.00000000000017" y="41.300000000000004"><title>2020-11-13</title></rect><rect fill="#EBEDF0" height="4" rx="1" ry="1" width="4" x="253.00000000000017" y="46.699999999999996"><title>2020-11-14</title></rect><rect fill="#EBEDF0" height="4" rx="1" ry="1" width="4" x="253.00000000000017" y="52.1"><title>2020-11-15</title></rect><rect fill="#81c6fc" height="4" rx="1" ry="1" width="4" x="258.40000000000015" y="19.7"><title>2020-11-16 0.13 mins</title></rect><rect fill="#EBEDF0" height="4" rx="1" ry="1" width="4" x="258.40000000000015" y="25.1"><title>2020-11-17</title></rect><rect fill="#EBEDF0" height="4" rx="1" ry="1" width="4" x="258.40000000000015" y="30.5"><title>2020-11-18</title></rect><rect fill="#EBEDF0" height="4" rx="1" ry="1" width="4" x="258.40000000000015" y="35.9"><title>2020-11-19</title></rect><rect fill="#EBEDF0" height="4" rx="1" ry="1" width="4" x="258.40000000000015" y="41.300000000000004"><title>2020-11-20</title></rect><rect fill="#EBEDF0" height="4" rx="1" ry="1" width="4" x="258.40000000000015" y="46.699999999999996"><title>2020-11-21</title></rect><rect fill="#EBEDF0" height="4" rx="1" ry="1" width="4" x="258.40000000000015" y="52.1"><title>2020-11-22</title></rect><rect fill="#EBEDF0" height="4" rx="1" ry="1" width="4" x="263.8000000000001" y="19.7"><title>2020-11-23</title></rect><rect fill="#EBEDF0" height="4" rx="1" ry="1" width="4" x="263.8000000000001" y="25.1"><title>2020-11-24</title></rect><rect fill="#EBEDF0" height="4" rx="1" ry="1" width="4" x="263.8000000000001" y="30.5"><title>2020-11-25</title></rect><rect fill="#EBEDF0" height="4" rx="1" ry="1" width="4" x="263.8000000000001" y="35.9"><title>2020-11-26</title></rect><rect fill="#EBEDF0" height="4" rx="1" ry="1" width="4" x="263.8000000000001" y="41.300000000000004"><title>2020-11-27</title></rect><rect fill="#EBEDF0" height="4" rx="1" ry="1" width="4" x="263.8000000000001" y="46.699999999999996"><title>2020-11-28</title></rect><rect fill="#EBEDF0" height="4" rx="1" ry="1" width="4" x="263.8000000000001" y="52.1"><title>2020-11-29</title></rect><rect fill="#EBEDF0" height="4" rx="1" ry="1" width="4" x="269.2000000000001" y="19.7"><title>2020-11-30</title></rect><rect fill="#EBEDF0" height="4" rx="1" ry="1" width="4" x="269.2000000000001" y="25.1"><title>2020-12-01</title></rect><rect fill="#EBEDF0" height="4" rx="1" ry="1" width="4" x="269.2000000000001" y="30.5"><title>2020-12-02</title></rect><rect fill="#EBEDF0" height="4" rx="1" ry="1" width="4" x="269.2000000000001" y="35.9"><title>2020-12-03</title></rect><rect fill="#EBEDF0" height="4" rx="1" ry="1" width="4" x="269.2000000000001" y="41.300000000000004"><title>2020-12-04</title></rect><rect fill="#7fc5fc" height="4" rx="1" ry="1" width="4" x="269.2000000000001" y="46.699999999999996"><title>2020-12-05 13.97 mins</title></rect><rect fill="#EBEDF0" height="4" rx="1" ry="1" width="4" x="269.2000000000001" y="52.1"><title>2020-12-06</title></rect><text fill="#000000" style="font-size:2.5px; font-family:Arial" x="274.6000000000001" y="18.3">Dec</text><rect fill="#7fc5fc" height="4" rx="1" ry="1" width="4" x="274.6000000000001" y="19.7"><title>2020-12-07 16.47 mins</title></rect><rect fill="#80c5fc" height="4" rx="1" ry="1" width="4" x="274.6000000000001" y="25.1"><title>2020-12-08 9.52 mins</title></rect><rect fill="#EBEDF0" height="4" rx="1" ry="1" width="4" x="274.6000000000001" y="30.5"><title>2020-12-09</title></rect><rect fill="#EBEDF0" height="4" rx="1" ry="1" width="4" x="274.6000000000001" y="35.9"><title>2020-12-10</title></rect><rect fill="#EBEDF0" height="4" rx="1" ry="1" width="4" x="274.6000000000001" y="41.300000000000004"><title>2020-12-11</title></rect><rect fill="#EBEDF0" height="4" rx="1" ry="1" width="4" x="274.6000000000001" y="46.699999999999996"><title>2020-12-12</title></rect><rect fill="#EBEDF0" height="4" rx="1" ry="1" width="4" x="274.6000000000001" y="52.1"><title>2020-12-13</title></rect><rect fill="#EBEDF0" height="4" rx="1" ry="1" width="4" x="280.00000000000006" y="19.7"><title>2020-12-14</title></rect><rect fill="#EBEDF0" height="4" rx="1" ry="1" width="4" x="280.00000000000006" y="25.1"><title>2020-12-15</title></rect><rect fill="#EBEDF0" height="4" rx="1" ry="1" width="4" x="280.00000000000006" y="30.5"><title>2020-12-16</title></rect><rect fill="#EBEDF0" height="4" rx="1" ry="1" width="4" x="280.00000000000006" y="35.9"><title>2020-12-17</title></rect><rect fill="#7fc5fc" height="4" rx="1" ry="1" width="4" x="280.00000000000006" y="41.300000000000004"><title>2020-12-18 10.97 mins</title></rect><rect fill="#80c6fc" height="4" rx="1" ry="1" width="4" x="280.00000000000006" y="46.699999999999996"><title>2020-12-19 7.67 mins</title></rect><rect fill="#34A7FF" height="4" rx="1" ry="1" width="4" x="280.00000000000006" y="52.1"><title>2020-12-20 231.47 mins</title></rect><rect fill="#34A7FF" height="4" rx="1" ry="1" width="4" x="285.40000000000003" y="19.7"><title>2020-12-21 91.82 mins</title></rect><rect fill="#34A7FF" height="4" rx="1" ry="1" width="4" x="285.40000000000003" y="25.1"><title>2020-12-22 107.62 mins</title></rect><rect fill="#34A7FF" height="4" rx="1" ry="1" width="4" x="285.40000000000003" y="30.5"><title>2020-12-23 99.78 mins</title></rect><rect fill="#34A7FF" height="4" rx="1" ry="1" width="4" x="285.40000000000003" y="35.9"><title>2020-12-24 61.85 mins</title></rect><rect fill="#7ec5fc" height="4" rx="1" ry="1" width="4" x="285.40000000000003" y="41.300000000000004"><title>2020-12-25 19.32 mins</title></rect><rect fill="#7fc5fc" height="4" rx="1" ry="1" width="4" x="285.40000000000003" y="46.699999999999996"><title>2020-12-26 15.02 mins</title></rect><rect fill="#34A7FF" height="4" rx="1" ry="1" width="4" x="285.40000000000003" y="52.1"><title>2020-12-27 73.13 mins</title></rect><rect fill="#80c6fc" height="4" rx="1" ry="1" width="4" x="290.8" y="19.7"><title>2020-12-28 5.03 mins</title></rect><rect fill="#56b5fd" height="4" rx="1" ry="1" width="4" x="290.8" y="25.1"><title>2020-12-29 51.37 mins</title></rect><rect fill="#58b5fd" height="4" rx="1" ry="1" width="4" x="290.8" y="30.5"><title>2020-12-30 28.73 mins</title></rect><rect fill="#34A7FF" height="4" rx="1" ry="1" width="4" x="290.8" y="35.9"><title>2020-12-31 78.02 mins</title></rect></svg>