<?xml version="1.0" encoding="utf-8" ?>
<svg baseProfile="full" height="57.5mm" version="1.1" viewBox="0,0,306.20000000000005,57.5" width="306.20000000000005mm" xmlns="http://www.w3.org/2000/svg" xmlns:ev="http://www.w3.org/2001/xml-events" xmlns:xlink="http://www.w3.org/1999/xlink"><defs /><rect fill="#FFFFFF" height="57.5" width="306.20000000000005" x="0" y="0" /><text fill="#000000" style="font-size:6px; font-family:Arial; font-weight:bold;" x="10" y="10">elvinn 的微信读书记录</text><text fill="#000000" style="font-size:3px; font-family:Arial;" x="10" y="14.4">2021: 90 hours</text><text fill="#000000" style="font-size:2.5px; font-family:Arial" x="10" y="18.3">Jan</text><rect fill="#80c6fc" height="4" rx="1" ry="1" width="4" x="10" y="19.7"><title>2020-12-28 5.03 mins</title></rect><rect fill="#56b5fd" height="4" rx="1" ry="1" width="4" x="10" y="25.1"><title>2020-12-29 51.37 mins</title></rect><rect fill="#58b5fd" height="4" rx="1" ry="1" width="4" x="10" y="30.5"><title>2020-12-30 28.73 mins</title></rect><rect fill="#34A7FF" height="4" rx="1" ry="1" width="4" x="10" y="35.9"><title>2020-12-31 78.02 mins</title></rect><rect fill="#34A7FF" height="4" rx="1" ry="1" width="4" x="10" y="41.300000000000004"><title>2021-01-01 88.53 mins</title></rect><rect fill="#34A7FF" height="4" rx="1" ry="1" width="4" x="10" y="46.699999999999996"><title>2021-01-02 192.88 mins</title></rect><rect fill="#34A7FF" height="4" rx="1" ry="1" width="4" x="10" y="52.1"><title>2021-01-03 125.72 mins</title></rect><rect fill="#34A7FF" height="4" rx="1" ry="1" width="4" x="15.4" y="19.7"><title>2021-01-04 64.07 mins</title></rect><rect fill="#57b5fd" height="4" rx="1" ry="1" width="4" x="15.4" y="25.1"><title>2021-01-05 39.53 mins</title></rect><rect fill="#57b5fd" height="4" rx="1" ry="1" width="4" x="15.4" y="30.5"><title>2021-01-06 41.67 mins</title></rect><rect fill="#57b5fd" height="4" rx="1" ry="1" width="4" x="15.4" y="35.9"><title>2021-01-07 44.25 mins</title></rect><rect fill="#EBEDF0" height="4" rx="1" ry="1" width="4" x="15.4" y="41.300000000000004"><title>2021-01-08</title></rect><rect fill="#80c6fc" height="4" rx="1" ry="1" width="4" x="15.4" y="46.699999999999996"><title>2021-01-09 5.23 mins</title></rect><rect fill="#81c6fc" height="4" rx="1" ry="1" width="4" x="15.4" y="52.1"><title>2021-01-10 0.45 mins</title></rect><rect fill="#EBEDF0" height="4" rx="1" ry="1" width="4" x="20.8" y="19.7"><title>2021-01-11</title></rect><rect fill="#34A7FF" height="4" rx="1" ry="1" width="4" x="20.8" y="25.1"><title>2021-01-12 119.98 mins</title></rect><rect fill="#56b4fd" height="4" rx="1" ry="1" width="4" x="20.8" y="30.5"><title>2021-01-13 60.2 mins</title></rect><rect fill="#34A7FF" height="4" rx="1" ry="1" width="4" x="20.8" y="35.9"><title>2021-01-14 85.5 mins</title></rect><rect fill="#34A7FF" height="4" rx="1" ry="1" width="4" x="20.8" y="41.300000000000004"><title>2021-01-15 82.67 mins</title></rect><rect fill="#34A7FF" height="4" rx="1" ry="1" width="4" x="20.8" y="46.699999999999996"><title>2021-01-16 192.53 mins</title></rect><rect fill="#EBEDF0" height="4" rx="1" ry="1" width="4" x="20.8" y="52.1"><title>2021-01-17</title></rect><rect fill="#57b5fd" height="4" rx="1" ry="1" width="4" x="26.200000000000003" y="19.7"><title>2021-01-18 45.2 mins</title></rect><rect fill="#34A7FF" height="4" rx="1" ry="1" width="4" x="26.200000000000003" y="25.1"><title>2021-01-19 84.57 mins</title></rect><rect fill="#56b5fd" height="4" rx="1" ry="1" width="4" x="26.200000000000003" y="30.5"><title>2021-01-20 52.92 mins</title></rect><rect fill="#7ec5fc" height="4" rx="1" ry="1" width="4" x="26.200000000000003" y="35.9"><title>2021-01-21 22.4 mins</title></rect><rect fill="#58b5fd" height="4" rx="1" ry="1" width="4" x="26.200000000000003" y="41.300000000000004"><title>2021-01-22 28.25 mins</title></rect><rect fill="#80c6fc" height="4" rx="1" ry="1" width="4" x="26.200000000000003" y="46.699999999999996"><title>2021-01-23 4.67 mins</title></rect><rect fill="#58b5fd" height="4" rx="1" ry="1" width="4" x="26.200000000000003" y="52.1"><title>2021-01-24 34.27 mins</title></rect><rect fill="#34A7FF" height="4" rx="1" ry="1" width="4" x="31.6" y="19.7"><title>2021-01-25 82.53 mins</title></rect><rect fill="#34A7FF" height="4" rx="1" ry="1" width="4" x="31.6" y="25.1"><title>2021-01-26 90.85 mins</title></rect><rect fill="#80c6fc" height="4" rx="1" ry="1" width="4" x="31.6" y="30.5"><title>2021-01-27 4.73 mins</title></rect><rect fill="#57b5fd" height="4" rx="1" ry="1" width="4" x="31.6" y="35.9"><title>2021-01-28 50.48 mins</title></rect><rect fill="#57b5fd" height="4" rx="1" ry="1" width="4" x="31.6" y="41.300000000000004"><title>2021-01-29 39.15 mins</title></rect><rect fill="#7fc5fc" height="4" rx="1" ry="1" width="4" x="31.6" y="46.699999999999996"><title>2021-01-30 10.98 mins</title></rect><rect fill="#34A7FF" height="4" rx="1" ry="1" width="4" x="31.6" y="52.1"><title>2021-01-31 285.6 mins</title></rect><text fill="#000000" style="font-size:2.5px; font-family:Arial" x="37.0" y="18.3">Feb</text><rect fill="#56b4fd" height="4" rx="1" ry="1" width="4" x="37.0" y="19.7"><title>2021-02-01 59.92 mins</title></rect><rect fill="#57b5fd" height="4" rx="1" ry="1" width="4" x="37.0" y="25.1"><title>2021-02-02 43.88 mins</title></rect><rect fill="#34A7FF" height="4" rx="1" ry="1" width="4" x="37.0" y="30.5"><title>2021-02-03 107.53 mins</title></rect><rect fill="#57b5fd" height="4" rx="1" ry="1" width="4" x="37.0" y="35.9"><title>2021-02-04 45.95 mins</title></rect><rect fill="#7fc5fc" height="4" rx="1" ry="1" width="4" x="37.0" y="41.300000000000004"><title>2021-02-05 14.13 mins</title></rect><rect fill="#34A7FF" height="4" rx="1" ry="1" width="4" x="37.0" y="46.699999999999996"><title>2021-02-06 77.47 mins</title></rect><rect fill="#57b5fd" height="4" rx="1" ry="1" width="4" x="37.0" y="52.1"><title>2021-02-07 45.52 mins</title></rect><rect fill="#EBEDF0" height="4" rx="1" ry="1" width="4" x="42.4" y="19.7"><title>2021-02-08</title></rect><rect fill="#EBEDF0" height="4" rx="1" ry="1" width="4" x="42.4" y="25.1"><title>2021-02-09</title></rect><rect fill="#EBEDF0" height="4" rx="1" ry="1" width="4" x="42.4" y="30.5"><title>2021-02-10</title></rect><rect fill="#EBEDF0" height="4" rx="1" ry="1" width="4" x="42.4" y="35.9"><title>2021-02-11</title></rect><rect fill="#EBEDF0" height="4" rx="1" ry="1" width="4" x="42.4" y="41.300000000000004"><title>2021-02-12</title></rect><rect fill="#EBEDF0" height="4" rx="1" ry="1" width="4" x="42.4" y="46.699999999999996"><title>2021-02-13</title></rect><rect fill="#EBEDF0" height="4" rx="1" ry="1" width="4" x="42.4" y="52.1"><title>2021-02-14</title></rect><rect fill="#EBEDF0" height="4" rx="1" ry="1" width="4" x="47.8" y="19.7"><title>2021-02-15</title></rect><rect fill="#58b5fd" height="4" rx="1" ry="1" width="4" x="47.8" y="25.1"><title>2021-02-16 25.12 mins</title></rect><rect fill="#EBEDF0" height="4" rx="1" ry="1" width="4" x="47.8" y="30.5"><title>2021-02-17</title></rect><rect fill="#81c6fc" height="4" rx="1" ry="1" width="4" x="47.8" y="35.9"><title>2021-02-18 2.0 mins</title></rect><rect fill="#80c6fc" height="4" rx="1" ry="1" width="4" x="47.8" y="41.300000000000004"><title>2021-02-19 5.85 mins</title></rect><rect fill="#80c6fc" height="4" rx="1" ry="1" width="4" x="47.8" y="46.699999999999996"><title>2021-02-20 7.63 mins</title></rect><rect fill="#81c6fc" height="4" rx="1" ry="1" width="4" x="47.8" y="52.1"><title>2021-02-21 0.35 mins</title></rect><rect fill="#58b5fd" height="4" rx="1" ry="1" width="4" x="53.199999999999996" y="19.7"><title>2021-02-22 27.52 mins</title></rect><rect fill="#34A7FF" height="4" rx="1" ry="1" width="4" x="53.199999999999996" y="25.1"><title>2021-02-23 103.9 mins</title></rect><rect fill="#80c5fc" height="4" rx="1" ry="1" width="4" x="53.199999999999996" y="30.5"><title>2021-02-24 9.2 mins</title></rect><rect fill="#80c6fc" height="4" rx="1" ry="1" width="4" x="53.199999999999996" y="35.9"><title>2021-02-25 7.23 mins</title></rect><rect fill="#81c6fc" height="4" rx="1" ry="1" width="4" x="53.199999999999996" y="41.300000000000004"><title>2021-02-26 0.02 mins</title></rect><rect fill="#EBEDF0" height="4" rx="1" ry="1" width="4" x="53.199999999999996" y="46.699999999999996"><title>2021-02-27</title></rect><rect fill="#EBEDF0" height="4" rx="1" ry="1" width="4" x="53.199999999999996" y="52.1"><title>2021-02-28</title></rect><text fill="#000000" style="font-size:2.5px; font-family:Arial" x="58.599999999999994" y="18.3">Mar</text><rect fill="#7ec5fc" height="4" rx="1" ry="1" width="4" x="58.599999999999994" y="19.7"><title>2021-03-01 18.58 mins</title></rect><rect fill="#56b5fd" height="4" rx="1" ry="1" width="4" x="58.599999999999994" y="25.1"><title>2021-03-02 51.6 mins</title></rect><rect fill="#34A7FF" height="4" rx="1" ry="1" width="4" x="58.599999999999994" y="30.5"><title>2021-03-03 76.43 mins</title></rect><rect fill="#80c5fc" height="4" rx="1" ry="1" width="4" x="58.599999999999994" y="35.9"><title>2021-03-04 10.45 mins</title></rect><rect fill="#81c6fc" height="4" rx="1" ry="1" width="4" x="58.599999999999994" y="41.300000000000004"><title>2021-03-05 1.98 mins</title></rect><rect fill="#57b5fd" height="4" rx="1" ry="1" width="4" x="58.599999999999994" y="46.699999999999996"><title>2021-03-06 49.45 mins</title></rect><rect fill="#57b5fd" height="4" rx="1" ry="1" width="4" x="58.599999999999994" y="52.1"><title>2021-03-07 43.3 mins</title></rect><rect fill="#56b5fd" height="4" rx="1" ry="1" width="4" x="63.99999999999999" y="19.7"><title>2021-03-08 51.45 mins</title></rect><rect fill="#56b4fd" height="4" rx="1" ry="1" width="4" x="63.99999999999999" y="25.1"><title>2021-03-09 57.45 mins</title></rect><rect fill="#EBEDF0" height="4" rx="1" ry="1" width="4" x="63.99999999999999" y="30.5"><title>2021-03-10</title></rect><rect fill="#34A7FF" height="4" rx="1" ry="1" width="4" x="63.99999999999999" y="35.9"><title>2021-03-11 66.5 mins</title></rect><rect fill="#EBEDF0" height="4" rx="1" ry="1" width="4" x="63.99999999999999" y="41.300000000000004"><title>2021-03-12</title></rect><rect fill="#80c5fc" height="4" rx="1" ry="1" width="4" x="63.99999999999999" y="46.699999999999996"><title>2021-03-13 9.95 mins</title></rect><rect fill="#34A7FF" height="4" rx="1" ry="1" width="4" x="63.99999999999999" y="52.1"><title>2021-03-14 198.38 mins</title></rect><rect fill="#34A7FF" height="4" rx="1" ry="1" width="4" x="69.39999999999999" y="19.7"><title>2021-03-15 71.85 mins</title></rect><rect fill="#EBEDF0" height="4" rx="1" ry="1" width="4" x="69.39999999999999" y="25.1"><title>2021-03-16</title></rect><rect fill="#7fc5fc" height="4" rx="1" ry="1" width="4" x="69.39999999999999" y="30.5"><title>2021-03-17 17.82 mins</title></rect><rect fill="#80c6fc" height="4" rx="1" ry="1" width="4" x="69.39999999999999" y="35.9"><title>2021-03-18 5.4 mins</title></rect><rect fill="#81c6fc" height="4" rx="1" ry="1" width="4" x="69.39999999999999" y="41.300000000000004"><title>2021-03-19 1.52 mins</title></rect><rect fill="#34A7FF" height="4" rx="1" ry="1" width="4" x="69.39999999999999" y="46.699999999999996"><title>2021-03-20 87.17 mins</title></rect><rect fill="#80c6fc" height="4" rx="1" ry="1" width="4" x="69.39999999999999" y="52.1"><title>2021-03-21 3.93 mins</title></rect><rect fill="#EBEDF0" height="4" rx="1" ry="1" width="4" x="74.8" y="19.7"><title>2021-03-22</title></rect><rect fill="#EBEDF0" height="4" rx="1" ry="1" width="4" x="74.8" y="25.1"><title>2021-03-23</title></rect><rect fill="#EBEDF0" height="4" rx="1" ry="1" width="4" x="74.8" y="30.5"><title>2021-03-24</title></rect><rect fill="#EBEDF0" height="4" rx="1" ry="1" width="4" x="74.8" y="35.9"><title>2021-03-25</title></rect><rect fill="#EBEDF0" height="4" rx="1" ry="1" width="4" x="74.8" y="41.300000000000004"><title>2021-03-26</title></rect><rect fill="#EBEDF0" height="4" rx="1" ry="1" width="4" x="74.8" y="46.699999999999996"><title>2021-03-27</title></rect><rect fill="#EBEDF0" height="4" rx="1" ry="1" width="4" x="74.8" y="52.1"><title>2021-03-28</title></rect><rect fill="#EBEDF0" height="4" rx="1" ry="1" width="4" x="80.2" y="19.7"><title>2021-03-29</title></rect><rect fill="#EBEDF0" height="4" rx="1" ry="1" width="4" x="80.2" y="25.1"><title>2021-03-30</title></rect><rect fill="#EBEDF0" height="4" rx="1" ry="1" width="4" x="80.2" y="30.5"><title>2021-03-31</title></rect><rect fill="#7ec5fc" height="4" rx="1" ry="1" width="4" x="80.2" y="35.9"><title>2021-04-01 23.67 mins</title></rect><rect fill="#EBEDF0" height="4" rx="1" ry="1" width="4" x="80.2" y="41.300000000000004"><title>2021-04-02</title></rect><rect fill="#EBEDF0" height="4" rx="1" ry="1" width="4" x="80.2" y="46.699999999999996"><title>2021-04-03</title></rect><rect fill="#EBEDF0" height="4" rx="1" ry="1" width="4" x="80.2" y="52.1"><title>2021-04-04</title></rect><text fill="#000000" style="font-size:2.5px; font-family:Arial" x="85.60000000000001" y="18.3">Apr</text><rect fill="#EBEDF0" height="4" rx="1" ry="1" width="4" x="85.60000000000001" y="19.7"><title>2021-04-05</title></rect><rect fill="#EBEDF0" height="4" rx="1" ry="1" width="4" x="85.60000000000001" y="25.1"><title>2021-04-06</title></rect><rect fill="#EBEDF0" height="4" rx="1" ry="1" width="4" x="85.60000000000001" y="30.5"><title>2021-04-07</title></rect><rect fill="#EBEDF0" height="4" rx="1" ry="1" width="4" x="85.60000000000001" y="35.9"><title>2021-04-08</title></rect><rect fill="#EBEDF0" height="4" rx="1" ry="1" width="4" x="85.60000000000001" y="41.300000000000004"><title>2021-04-09</title></rect><rect fill="#EBEDF0" height="4" rx="1" ry="1" width="4" x="85.60000000000001" y="46.699999999999996"><title>2021-04-10</title></rect><rect fill="#EBEDF0" height="4" rx="1" ry="1" width="4" x="85.60000000000001" y="52.1"><title>2021-04-11</title></rect><rect fill="#EBEDF0" height="4" rx="1" ry="1" width="4" x="91.00000000000001" y="19.7"><title>2021-04-12</title></rect><rect fill="#EBEDF0" height="4" rx="1" ry="1" width="4" x="91.00000000000001" y="25.1"><title>2021-04-13</title></rect><rect fill="#EBEDF0" height="4" rx="1" ry="1" width="4" x="91.00000000000001" y="30.5"><title>2021-04-14</title></rect><rect fill="#EBEDF0" height="4" rx="1" ry="1" width="4" x="91.00000000000001" y="35.9"><title>2021-04-15</title></rect><rect fill="#EBEDF0" height="4" rx="1" ry="1" width="4" x="91.00000000000001" y="41.300000000000004"><title>2021-04-16</title></rect><rect fill="#EBEDF0" height="4" rx="1" ry="1" width="4" x="91.00000000000001" y="46.699999999999996"><title>2021-04-17</title></rect><rect fill="#EBEDF0" height="4" rx="1" ry="1" width="4" x="91.00000000000001" y="52.1"><title>2021-04-18</title></rect><rect fill="#EBEDF0" height="4" rx="1" ry="1" width="4" x="96.40000000000002" y="19.7"><title>2021-04-19</title></rect><rect fill="#EBEDF0" height="4" rx="1" ry="1" width="4" x="96.40000000000002" y="25.1"><title>2021-04-20</title></rect><rect fill="#EBEDF0" height="4" rx="1" ry="1" width="4" x="96.40000000000002" y="30.5"><title>2021-04-21</title></rect><rect fill="#81c6fc" height="4" rx="1" ry="1" width="4" x="96.40000000000002" y="35.9"><title>2021-04-22 0.13 mins</title></rect><rect fill="#EBEDF0" height="4" rx="1" ry="1" width="4" x="96.40000000000002" y="41.300000000000004"><title>2021-04-23</title></rect><rect fill="#EBEDF0" height="4" rx="1" ry="1" width="4" x="96.40000000000002" y="46.699999999999996"><title>2021-04-24</title></rect><rect fill="#EBEDF0" height="4" rx="1" ry="1" width="4" x="96.40000000000002" y="52.1"><title>2021-04-25</title></rect><rect fill="#EBEDF0" height="4" rx="1" ry="1" width="4" x="101.80000000000003" y="19.7"><title>2021-04-26</title></rect><rect fill="#80c6fc" height="4" rx="1" ry="1" width="4" x="101.80000000000003" y="25.1"><title>2021-04-27 5.32 mins</title></rect><rect fill="#EBEDF0" height="4" rx="1" ry="1" width="4" x="101.80000000000003" y="30.5"><title>2021-04-28</title></rect><rect fill="#EBEDF0" height="4" rx="1" ry="1" width="4" x="101.80000000000003" y="35.9"><title>2021-04-29</title></rect><rect fill="#EBEDF0" height="4" rx="1" ry="1" width="4" x="101.80000000000003" y="41.300000000000004"><title>2021-04-30</title></rect><rect fill="#EBEDF0" height="4" rx="1" ry="1" width="4" x="101.80000000000003" y="46.699999999999996"><title>2021-05-01</title></rect><rect fill="#EBEDF0" height="4" rx="1" ry="1" width="4" x="101.80000000000003" y="52.1"><title>2021-05-02</title></rect><text fill="#000000" style="font-size:2.5px; font-family:Arial" x="107.20000000000003" y="18.3">May</text><rect fill="#EBEDF0" height="4" rx="1" ry="1" width="4" x="107.20000000000003" y="19.7"><title>2021-05-03</title></rect><rect fill="#EBEDF0" height="4" rx="1" ry="1" width="4" x="107.20000000000003" y="25.1"><title>2021-05-04</title></rect><rect fill="#EBEDF0" height="4" rx="1" ry="1" width="4" x="107.20000000000003" y="30.5"><title>2021-05-05</title></rect><rect fill="#80c6fc" height="4" rx="1" ry="1" width="4" x="107.20000000000003" y="35.9"><title>2021-05-06 4.03 mins</title></rect><rect fill="#EBEDF0" height="4" rx="1" ry="1" width="4" x="107.20000000000003" y="41.300000000000004"><title>2021-05-07</title></rect><rect fill="#81c6fc" height="4" rx="1" ry="1" width="4" x="107.20000000000003" y="46.699999999999996"><title>2021-05-08 0.78 mins</title></rect><rect fill="#58b5fd" height="4" rx="1" ry="1" width="4" x="107.20000000000003" y="52.1"><title>2021-05-09 30.53 mins</title></rect><rect fill="#EBEDF0" height="4" rx="1" ry="1" width="4" x="112.60000000000004" y="19.7"><title>2021-05-10</title></rect><rect fill="#80c6fc" height="4" rx="1" ry="1" width="4" x="112.60000000000004" y="25.1"><title>2021-05-11 4.2 mins</title></rect><rect fill="#EBEDF0" height="4" rx="1" ry="1" width="4" x="112.60000000000004" y="30.5"><title>2021-05-12</title></rect><rect fill="#EBEDF0" height="4" rx="1" ry="1" width="4" x="112.60000000000004" y="35.9"><title>2021-05-13</title></rect><rect fill="#EBEDF0" height="4" rx="1" ry="1" width="4" x="112.60000000000004" y="41.300000000000004"><title>2021-05-14</title></rect><rect fill="#EBEDF0" height="4" rx="1" ry="1" width="4" x="112.60000000000004" y="46.699999999999996"><title>2021-05-15</title></rect><rect fill="#EBEDF0" height="4" rx="1" ry="1" width="4" x="112.60000000000004" y="52.1"><title>2021-05-16</title></rect><rect fill="#EBEDF0" height="4" rx="1" ry="1" width="4" x="118.00000000000004" y="19.7"><title>2021-05-17</title></rect><rect fill="#EBEDF0" height="4" rx="1" ry="1" width="4" x="118.00000000000004" y="25.1"><title>2021-05-18</title></rect><rect fill="#81c6fc" height="4" rx="1" ry="1" width="4" x="118.00000000000004" y="30.5"><title>2021-05-19 0.02 mins</title></rect><rect fill="#EBEDF0" height="4" rx="1" ry="1" width="4" x="118.00000000000004" y="35.9"><title>2021-05-20</title></rect><rect fill="#EBEDF0" height="4" rx="1" ry="1" width="4" x="118.00000000000004" y="41.300000000000004"><title>2021-05-21</title></rect><rect fill="#EBEDF0" height="4" rx="1" ry="1" width="4" x="118.00000000000004" y="46.699999999999996"><title>2021-05-22</title></rect><rect fill="#57b5fd" height="4" rx="1" ry="1" width="4" x="118.00000000000004" y="52.1"><title>2021-05-23 43.83 mins</title></rect><rect fill="#EBEDF0" height="4" rx="1" ry="1" width="4" x="123.40000000000005" y="19.7"><title>2021-05-24</title></rect><rect fill="#EBEDF0" height="4" rx="1" ry="1" width="4" x="123.40000000000005" y="25.1"><title>2021-05-25</title></rect><rect fill="#EBEDF0" height="4" rx="1" ry="1" width="4" x="123.40000000000005" y="30.5"><title>2021-05-26</title></rect><rect fill="#81c6fc" height="4" rx="1" ry="1" width="4" x="123.40000000000005" y="35.9"><title>2021-05-27 0.82 mins</title></rect><rect fill="#EBEDF0" height="4" rx="1" ry="1" width="4" x="123.40000000000005" y="41.300000000000004"><title>2021-05-28</title></rect><rect fill="#EBEDF0" height="4" rx="1" ry="1" width="4" x="123.40000000000005" y="46.699999999999996"><title>2021-05-29</title></rect><rect fill="#EBEDF0" height="4" rx="1" ry="1" width="4" x="123.40000000000005" y="52.1"><title>2021-05-30</title></rect><rect fill="#EBEDF0" height="4" rx="1" ry="1" width="4" x="128.80000000000004" y="19.7"><title>2021-05-31</title></rect><rect fill="#EBEDF0" height="4" rx="1" ry="1" width="4" x="128.80000000000004" y="25.1"><title>2021-06-01</title></rect><rect fill="#80c6fc" height="4" rx="1" ry="1" width="4" x="128.80000000000004" y="30.5"><title>2021-06-02 4.37 mins</title></rect><rect fill="#58b5fd" height="4" rx="1" ry="1" width="4" x="128.80000000000004" y="35.9"><title>2021-06-03 26.08 mins</title></rect><rect fill="#EBEDF0" height="4" rx="1" ry="1" width="4" x="128.80000000000004" y="41.300000000000004"><title>2021-06-04</title></rect><rect fill="#57b5fd" height="4" rx="1" ry="1" width="4" x="128.80000000000004" y="46.699999999999996"><title>2021-06-05 38.87 mins</title></rect><rect fill="#57b5fd" height="4" rx="1" ry="1" width="4" x="128.80000000000004" y="52.1"><title>2021-06-06 43.92 mins</title></rect><text fill="#000000" style="font-size:2.5px; font-family:Arial" x="134.20000000000005" y="18.3">Jun</text><rect fill="#EBEDF0" height="4" rx="1" ry="1" width="4" x="134.20000000000005" y="19.7"><title>2021-06-07</title></rect><rect fill="#EBEDF0" height="4" rx="1" ry="1" width="4" x="134.20000000000005" y="25.1"><title>2021-06-08</title></rect><rect fill="#EBEDF0" height="4" rx="1" ry="1" width="4" x="134.20000000000005" y="30.5"><title>2021-06-09</title></rect><rect fill="#EBEDF0" height="4" rx="1" ry="1" width="4" x="134.20000000000005" y="35.9"><title>2021-06-10</title></rect><rect fill="#EBEDF0" height="4" rx="1" ry="1" width="4" x="134.20000000000005" y="41.300000000000004"><title>2021-06-11</title></rect><rect fill="#EBEDF0" height="4" rx="1" ry="1" width="4" x="134.20000000000005" y="46.699999999999996"><title>2021-06-12</title></rect><rect fill="#EBEDF0" height="4" rx="1" ry="1" width="4" x="134.20000000000005" y="52.1"><title>2021-06-13</title></rect><rect fill="#EBEDF0" height="4" rx="1" ry="1" width="4" x="139.60000000000005" y="19.7"><title>2021-06-14</title></rect><rect fill="#7ec5fc" height="4" rx="1" ry="1" width="4" x="139.60000000000005" y="25.1"><title>2021-06-15 20.7 mins</title></rect><rect fill="#81c6fc" height="4" rx="1" ry="1" width="4" x="139.60000000000005" y="30.5"><title>2021-06-16 1.4 mins</title></rect><rect fill="#EBEDF0" height="4" rx="1" ry="1" width="4" x="139.60000000000005" y="35.9"><title>2021-06-17</title></rect><rect fill="#EBEDF0" height="4" rx="1" ry="1" width="4" x="139.60000000000005" y="41.300000000000004"><title>2021-06-18</title></rect><rect fill="#EBEDF0" height="4" rx="1" ry="1" width="4" x="139.60000000000005" y="46.699999999999996"><title>2021-06-19</title></rect><rect fill="#EBEDF0" height="4" rx="1" ry="1" width="4" x="139.60000000000005" y="52.1"><title>2021-06-20</title></rect><rect fill="#EBEDF0" height="4" rx="1" ry="1" width="4" x="145.00000000000006" y="19.7"><title>2021-06-21</title></rect><rect fill="#58b5fd" height="4" rx="1" ry="1" width="4" x="145.00000000000006" y="25.1"><title>2021-06-22 29.07 mins</title></rect><rect fill="#57b5fd" height="4" rx="1" ry="1" width="4" x="145.00000000000006" y="30.5"><title>2021-06-23 45.02 mins</title></rect><rect fill="#57b5fd" height="4" rx="1" ry="1" width="4" x="145.00000000000006" y="35.9"><title>2021-06-24 40.57 mins</title></rect><rect fill="#57b5fd" height="4" rx="1" ry="1" width="4" x="145.00000000000006" y="41.300000000000004"><title>2021-06-25 47.22 mins</title></rect><rect fill="#EBEDF0" height="4" rx="1" ry="1" width="4" x="145.00000000000006" y="46.699999999999996"><title>2021-06-26</title></rect><rect fill="#81c6fc" height="4" rx="1" ry="1" width="4" x="145.00000000000006" y="52.1"><title>2021-06-27 0.17 mins</title></rect><rect fill="#7fc5fc" height="4" rx="1" ry="1" width="4" x="150.40000000000006" y="19.7"><title>2021-06-28 14.13 mins</title></rect><rect fill="#80c6fc" height="4" rx="1" ry="1" width="4" x="150.40000000000006" y="25.1"><title>2021-06-29 6.02 mins</title></rect><rect fill="#34A7FF" height="4" rx="1" ry="1" width="4" x="150.40000000000006" y="30.5"><title>2021-06-30 69.58 mins</title></rect><rect fill="#57b5fd" height="4" rx="1" ry="1" width="4" x="150.40000000000006" y="35.9"><title>2021-07-01 37.02 mins</title></rect><rect fill="#80c6fc" height="4" rx="1" ry="1" width="4" x="150.40000000000006" y="41.300000000000004"><title>2021-07-02 7.13 mins</title></rect><rect fill="#58b5fd" height="4" rx="1" ry="1" width="4" x="150.40000000000006" y="46.699999999999996"><title>2021-07-03 30.9 mins</title></rect><rect fill="#EBEDF0" height="4" rx="1" ry="1" width="4" x="150.40000000000006" y="52.1"><title>2021-07-04</title></rect><text fill="#000000" style="font-size:2.5px; font-family:Arial" x="155.80000000000007" y="18.3">Jul</text><rect fill="#EBEDF0" height="4" rx="1" ry="1" width="4" x="155.80000000000007" y="19.7"><title>2021-07-05</title></rect><rect fill="#EBEDF0" height="4" rx="1" ry="1" width="4" x="155.80000000000007" y="25.1"><title>2021-07-06</title></rect><rect fill="#EBEDF0" height="4" rx="1" ry="1" width="4" x="155.80000000000007" y="30.5"><title>2021-07-07</title></rect><rect fill="#EBEDF0" height="4" rx="1" ry="1" width="4" x="155.80000000000007" y="35.9"><title>2021-07-08</title></rect><rect fill="#EBEDF0" height="4" rx="1" ry="1" width="4" x="155.80000000000007" y="41.300000000000004"><title>2021-07-09</title></rect><rect fill="#EBEDF0" height="4" rx="1" ry="1" width="4" x="155.80000000000007" y="46.699999999999996"><title>2021-07-10</title></rect><rect fill="#EBEDF0" height="4" rx="1" ry="1" width="4" x="155.80000000000007" y="52.1"><title>2021-07-11</title></rect><rect fill="#EBEDF0" height="4" rx="1" ry="1" width="4" x="161.20000000000007" y="19.7"><title>2021-07-12</title></rect><rect fill="#EBEDF0" height="4" rx="1" ry="1" width="4" x="161.20000000000007" y="25.1"><title>2021-07-13</title></rect><rect fill="#EBEDF0" height="4" rx="1" ry="1" width="4" x="161.20000000000007" y="30.5"><title>2021-07-14</title></rect><rect fill="#EBEDF0" height="4" rx="1" ry="1" width="4" x="161.20000000000007" y="35.9"><title>2021-07-15</title></rect><rect fill="#81c6fc" height="4" rx="1" ry="1" width="4" x="161.20000000000007" y="41.300000000000004"><title>2021-07-16 1.18 mins</title></rect><rect fill="#EBEDF0" height="4" rx="1" ry="1" width="4" x="161.20000000000007" y="46.699999999999996"><title>2021-07-17</title></rect><rect fill="#EBEDF0" height="4" rx="1" ry="1" width="4" x="161.20000000000007" y="52.1"><title>2021-07-18</title></rect><rect fill="#81c6fc" height="4" rx="1" ry="1" width="4" x="166.60000000000008" y="19.7"><title>2021-07-19 0.17 mins</title></rect><rect fill="#EBEDF0" height="4" rx="1" ry="1" width="4" x="166.60000000000008" y="25.1"><title>2021-07-20</title></rect><rect fill="#81c6fc" height="4" rx="1" ry="1" width="4" x="166.60000000000008" y="30.5"><title>2021-07-21 0.05 mins</title></rect><rect fill="#EBEDF0" height="4" rx="1" ry="1" width="4" x="166.60000000000008" y="35.9"><title>2021-07-22</title></rect><rect fill="#EBEDF0" height="4" rx="1" ry="1" width="4" x="166.60000000000008" y="41.300000000000004"><title>2021-07-23</title></rect><rect fill="#EBEDF0" height="4" rx="1" ry="1" width="4" x="166.60000000000008" y="46.699999999999996"><title>2021-07-24</title></rect><rect fill="#EBEDF0" height="4" rx="1" ry="1" width="4" x="166.60000000000008" y="52.1"><title>2021-07-25</title></rect><rect fill="#EBEDF0" height="4" rx="1" ry="1" width="4" x="172.00000000000009" y="19.7"><title>2021-07-26</title></rect><rect fill="#EBEDF0" height="4" rx="1" ry="1" width="4" x="172.00000000000009" y="25.1"><title>2021-07-27</title></rect><rect fill="#58b5fd" height="4" rx="1" ry="1" width="4" x="172.00000000000009" y="30.5"><title>2021-07-28 34.7 mins</title></rect><rect fill="#7ec5fc" height="4" rx="1" ry="1" width="4" x="172.00000000000009" y="35.9"><title>2021-07-29 21.45 mins</title></rect><rect fill="#EBEDF0" height="4" rx="1" ry="1" width="4" x="172.00000000000009" y="41.300000000000004"><title>2021-07-30</title></rect><rect fill="#EBEDF0" height="4" rx="1" ry="1" width="4" x="172.00000000000009" y="46.699999999999996"><title>2021-07-31</title></rect><rect fill="#EBEDF0" height="4" rx="1" ry="1" width="4" x="172.00000000000009" y="52.1"><title>2021-08-01</title></rect><text fill="#000000" style="font-size:2.5px; font-family:Arial" x="177.4000000000001" y="18.3">Aug</text><rect fill="#EBEDF0" height="4" rx="1" ry="1" width="4" x="177.4000000000001" y="19.7"><title>2021-08-02</title></rect><rect fill="#81c6fc" height="4" rx="1" ry="1" width="4" x="177.4000000000001" y="25.1"><title>2021-08-03 2.8 mins</title></rect><rect fill="#56b5fd" height="4" rx="1" ry="1" width="4" x="177.4000000000001" y="30.5"><title>2021-08-04 53.35 mins</title></rect><rect fill="#34A7FF" height="4" rx="1" ry="1" width="4" x="177.4000000000001" y="35.9"><title>2021-08-05 108.28 mins</title></rect><rect fill="#58b5fd" height="4" rx="1" ry="1" width="4" x="177.4000000000001" y="41.300000000000004"><title>2021-08-06 30.93 mins</title></rect><rect fill="#EBEDF0" height="4" rx="1" ry="1" width="4" x="177.4000000000001" y="46.699999999999996"><title>2021-08-07</title></rect><rect fill="#EBEDF0" height="4" rx="1" ry="1" width="4" x="177.4000000000001" y="52.1"><title>2021-08-08</title></rect><rect fill="#81c6fc" height="4" rx="1" ry="1" width="4" x="182.8000000000001" y="19.7"><title>2021-08-09 0.3 mins</title></rect><rect fill="#EBEDF0" height="4" rx="1" ry="1" width="4" x="182.8000000000001" y="25.1"><title>2021-08-10</title></rect><rect fill="#EBEDF0" height="4" rx="1" ry="1" width="4" x="182.8000000000001" y="30.5"><title>2021-08-11</title></rect><rect fill="#EBEDF0" height="4" rx="1" ry="1" width="4" x="182.8000000000001" y="35.9"><title>2021-08-12</title></rect><rect fill="#EBEDF0" height="4" rx="1" ry="1" width="4" x="182.8000000000001" y="41.300000000000004"><title>2021-08-13</title></rect><rect fill="#EBEDF0" height="4" rx="1" ry="1" width="4" x="182.8000000000001" y="46.699999999999996"><title>2021-08-14</title></rect><rect fill="#EBEDF0" height="4" rx="1" ry="1" width="4" x="182.8000000000001" y="52.1"><title>2021-08-15</title></rect><rect fill="#EBEDF0" height="4" rx="1" ry="1" width="4" x="188.2000000000001" y="19.7"><title>2021-08-16</title></rect><rect fill="#EBEDF0" height="4" rx="1" ry="1" width="4" x="188.2000000000001" y="25.1"><title>2021-08-17</title></rect><rect fill="#EBEDF0" height="4" rx="1" ry="1" width="4" x="188.2000000000001" y="30.5"><title>2021-08-18</title></rect><rect fill="#EBEDF0" height="4" rx="1" ry="1" width="4" x="188.2000000000001" y="35.9"><title>2021-08-19</title></rect><rect fill="#EBEDF0" height="4" rx="1" ry="1" width="4" x="188.2000000000001" y="41.300000000000004"><title>2021-08-20</title></rect><rect fill="#EBEDF0" height="4" rx="1" ry="1" width="4" x="188.2000000000001" y="46.699999999999996"><title>2021-08-21</title></rect><rect fill="#EBEDF0" height="4" rx="1" ry="1" width="4" x="188.2000000000001" y="52.1"><title>2021-08-22</title></rect><rect fill="#EBEDF0" height="4" rx="1" ry="1" width="4" x="193.6000000000001" y="19.7"><title>2021-08-23</title></rect><rect fill="#EBEDF0" height="4" rx="1" ry="1" width="4" x="193.6000000000001" y="25.1"><title>2021-08-24</title></rect><rect fill="#EBEDF0" height="4" rx="1" ry="1" width="4" x="193.6000000000001" y="30.5"><title>2021-08-25</title></rect><rect fill="#EBEDF0" height="4" rx="1" ry="1" width="4" x="193.6000000000001" y="35.9"><title>2021-08-26</title></rect><rect fill="#EBEDF0" height="4" rx="1" ry="1" width="4" x="193.6000000000001" y="41.300000000000004"><title>2021-08-27</title></rect><rect fill="#EBEDF0" height="4" rx="1" ry="1" width="4" x="193.6000000000001" y="46.699999999999996"><title>2021-08-28</title></rect><rect fill="#EBEDF0" height="4" rx="1" ry="1" width="4" x="193.6000000000001" y="52.1"><title>2021-08-29</title></rect><rect fill="#EBEDF0" height="4" rx="1" ry="1" width="4" x="199.0000000000001" y="19.7"><title>2021-08-30</title></rect><rect fill="#EBEDF0" height="4" rx="1" ry="1" width="4" x="199.0000000000001" y="25.1"><title>2021-08-31</title></rect><rect fill="#EBEDF0" height="4" rx="1" ry="1" width="4" x="199.0000000000001" y="30.5"><title>2021-09-01</title></rect><rect fill="#EBEDF0" height="4" rx="1" ry="1" width="4" x="199.0000000000001" y="35.9"><title>2021-09-02</title></rect><rect fill="#EBEDF0" height="4" rx="1" ry="1" width="4" x="199.0000000000001" y="41.300000000000004"><title>2021-09-03</title></rect><rect fill="#EBEDF0" height="4" rx="1" ry="1" width="4" x="199.0000000000001" y="46.699999999999996"><title>2021-09-04</title></rect><rect fill="#EBEDF0" height="4" rx="1" ry="1" width="4" x="199.0000000000001" y="52.1"><title>2021-09-05</title></rect><text fill="#000000" style="font-size:2.5px; font-family:Arial" x="204.40000000000012" y="18.3">Sep</text><rect fill="#EBEDF0" height="4" rx="1" ry="1" width="4" x="204.40000000000012" y="19.7"><title>2021-09-06</title></rect><rect fill="#EBEDF0" height="4" rx="1" ry="1" width="4" x="204.40000000000012" y="25.1"><title>2021-09-07</title></rect><rect fill="#EBEDF0" height="4" rx="1" ry="1" width="4" x="204.40000000000012" y="30.5"><title>2021-09-08</title></rect><rect fill="#EBEDF0" height="4" rx="1" ry="1" width="4" x="204.40000000000012" y="35.9"><title>2021-09-09</title></rect><rect fill="#EBEDF0" height="4" rx="1" ry="1" width="4" x="204.40000000000012" y="41.300000000000004"><title>2021-09-10</title></rect><rect fill="#EBEDF0" height="4" rx="1" ry="1" width="4" x="204.40000000000012" y="46.699999999999996"><title>2021-09-11</title></rect><rect fill="#EBEDF0" height="4" rx="1" ry="1" width="4" x="204.40000000000012" y="52.1"><title>2021-09-12</title></rect><rect fill="#EBEDF0" height="4" rx="1" ry="1" width="4" x="209.80000000000013" y="19.7"><title>2021-09-13</title></rect><rect fill="#EBEDF0" height="4" rx="1" ry="1" width="4" x="209.80000000000013" y="25.1"><title>2021-09-14</title></rect><rect fill="#7fc5fc" height="4" rx="1" ry="1" width="4" x="209.80000000000013" y="30.5"><title>2021-09-15 15.98 mins</title></rect><rect fill="#34A7FF" height="4" rx="1" ry="1" width="4" x="209.80000000000013" y="35.9"><title>2021-09-16 66.72 mins</title></rect><rect fill="#7fc5fc" height="4" rx="1" ry="1" width="4" x="209.80000000000013" y="41.300000000000004"><title>2021-09-17 16.45 mins</title></rect><rect fill="#EBEDF0" height="4" rx="1" ry="1" width="4" x="209.80000000000013" y="46.699999999999996"><title>2021-09-18</title></rect><rect fill="#EBEDF0" height="4" rx="1" ry="1" width="4" x="209.80000000000013" y="52.1"><title>2021-09-19</title></rect><rect fill="#EBEDF0" height="4" rx="1" ry="1" width="4" x="215.20000000000013" y="19.7"><title>2021-09-20</title></rect><rect fill="#EBEDF0" height="4" rx="1" ry="1" width="4" x="215.20000000000013" y="25.1"><title>2021-09-21</title></rect><rect fill="#EBEDF0" height="4" rx="1" ry="1" width="4" x="215.20000000000013" y="30.5"><title>2021-09-22</title></rect><rect fill="#7ec5fc" height="4" rx="1" ry="1" width="4" x="215.20000000000013" y="35.9"><title>2021-09-23 18.63 mins</title></rect><rect fill="#34A7FF" height="4" rx="1" ry="1" width="4" x="215.20000000000013" y="41.300000000000004"><title>2021-09-24 61.82 mins</title></rect><rect fill="#EBEDF0" height="4" rx="1" ry="1" width="4" x="215.20000000000013" y="46.699999999999996"><title>2021-09-25</title></rect><rect fill="#EBEDF0" height="4" rx="1" ry="1" width="4" x="215.20000000000013" y="52.1"><title>2021-09-26</title></rect><rect fill="#EBEDF0" height="4" rx="1" ry="1" width="4" x="220.60000000000014" y="19.7"><title>2021-09-27</title></rect><rect fill="#EBEDF0" height="4" rx="1" ry="1" width="4" x="220.60000000000014" y="25.1"><title>2021-09-28</title></rect><rect fill="#EBEDF0" height="4" rx="1" ry="1" width="4" x="220.60000000000014" y="30.5"><title>2021-09-29</title></rect><rect fill="#EBEDF0" height="4" rx="1" ry="1" width="4" x="220.60000000000014" y="35.9"><title>2021-09-30</title></rect><rect fill="#EBEDF0" height="4" rx="1" ry="1" width="4" x="220.60000000000014" y="41.300000000000004"><title>2021-10-01</title></rect><rect fill="#EBEDF0" height="4" rx="1" ry="1" width="4" x="220.60000000000014" y="46.699999999999996"><title>2021-10-02</title></rect><rect fill="#EBEDF0" height="4" rx="1" ry="1" width="4" x="220.60000000000014" y="52.1"><title>2021-10-03</title></rect><text fill="#000000" style="font-size:2.5px; font-family:Arial" x="226.00000000000014" y="18.3">Oct</text><rect fill="#EBEDF0" height="4" rx="1" ry="1" width="4" x="226.00000000000014" y="19.7"><title>2021-10-04</title></rect><rect fill="#EBEDF0" height="4" rx="1" ry="1" width="4" x="226.00000000000014" y="25.1"><title>2021-10-05</title></rect><rect fill="#EBEDF0" height="4" rx="1" ry="1" width="4" x="226.00000000000014" y="30.5"><title>2021-10-06</title></rect><rect fill="#EBEDF0" height="4" rx="1" ry="1" width="4" x="226.00000000000014" y="35.9"><title>2021-10-07</title></rect><rect fill="#EBEDF0" height="4" rx="1" ry="1" width="4" x="226.00000000000014" y="41.300000000000004"><title>2021-10-08</title></rect><rect fill="#EBEDF0" height="4" rx="1" ry="1" width="4" x="226.00000000000014" y="46.699999999999996"><title>2021-10-09</title></rect><rect fill="#EBEDF0" height="4" rx="1" ry="1" width="4" x="226.00000000000014" y="52.1"><title>2021-10-10</title></rect><rect fill="#7ec5fc" height="4" rx="1" ry="1" width="4" x="231.40000000000015" y="19.7"><title>2021-10-11 22.68 mins</title></rect><rect fill="#58b5fd" height="4" rx="1" ry="1" width="4" x="231.40000000000015" y="25.1"><title>2021-10-12 24.82 mins</title></rect><rect fill="#7fc5fc" height="4" rx="1" ry="1" width="4" x="231.40000000000015" y="30.5"><title>2021-10-13 12.65 mins</title></rect><rect fill="#EBEDF0" height="4" rx="1" ry="1" width="4" x="231.40000000000015" y="35.9"><title>2021-10-14</title></rect><rect fill="#EBEDF0" height="4" rx="1" ry="1" width="4" x="231.40000000000015" y="41.300000000000004"><title>2021-10-15</title></rect><rect fill="#EBEDF0" height="4" rx="1" ry="1" width="4" x="231.40000000000015" y="46.699999999999996"><title>2021-10-16</title></rect><rect fill="#EBEDF0" height="4" rx="1" ry="1" width="4" x="231.40000000000015" y="52.1"><title>2021-10-17</title></rect><rect fill="#7fc5fc" height="4" rx="1" ry="1" width="4" x="236.80000000000015" y="19.7"><title>2021-10-18 14.73 mins</title></rect><rect fill="#7fc5fc" height="4" rx="1" ry="1" width="4" x="236.80000000000015" y="25.1"><title>2021-10-19 15.25 mins</title></rect><rect fill="#58b5fd" height="4" rx="1" ry="1" width="4" x="236.80000000000015" y="30.5"><title>2021-10-20 32.97 mins</title></rect><rect fill="#34A7FF" height="4" rx="1" ry="1" width="4" x="236.80000000000015" y="35.9"><title>2021-10-21 247.28 mins</title></rect><rect fill="#34A7FF" height="4" rx="1" ry="1" width="4" x="236.80000000000015" y="41.300000000000004"><title>2021-10-22 70.53 mins</title></rect><rect fill="#7ec5fc" height="4" rx="1" ry="1" width="4" x="236.80000000000015" y="46.699999999999996"><title>2021-10-23 21.13 mins</title></rect><rect fill="#81c6fc" height="4" rx="1" ry="1" width="4" x="236.80000000000015" y="52.1"><title>2021-10-24 0.02 mins</title></rect><rect fill="#58b5fd" height="4" rx="1" ry="1" width="4" x="242.20000000000016" y="19.7"><title>2021-10-25 28.43 mins</title></rect><rect fill="#34A7FF" height="4" rx="1" ry="1" width="4" x="242.20000000000016" y="25.1"><title>2021-10-26 79.12 mins</title></rect><rect fill="#34A7FF" height="4" rx="1" ry="1" width="4" x="242.20000000000016" y="30.5"><title>2021-10-27 80.82 mins</title></rect><rect fill="#57b5fd" height="4" rx="1" ry="1" width="4" x="242.20000000000016" y="35.9"><title>2021-10-28 45.12 mins</title></rect><rect fill="#EBEDF0" height="4" rx="1" ry="1" width="4" x="242.20000000000016" y="41.300000000000004"><title>2021-10-29</title></rect><rect fill="#EBEDF0" height="4" rx="1" ry="1" width="4" x="242.20000000000016" y="46.699999999999996"><title>2021-10-30</title></rect><rect fill="#EBEDF0" height="4" rx="1" ry="1" width="4" x="242.20000000000016" y="52.1"><title>2021-10-31</title></rect><text fill="#000000" style="font-size:2.5px; font-family:Arial" x="247.60000000000016" y="18.3">Nov</text><rect fill="#58b5fd" height="4" rx="1" ry="1" width="4" x="247.60000000000016" y="19.7"><title>2021-11-01 35.07 mins</title></rect><rect fill="#EBEDF0" height="4" rx="1" ry="1" width="4" x="247.60000000000016" y="25.1"><title>2021-11-02</title></rect><rect fill="#56b4fd" height="4" rx="1" ry="1" width="4" x="247.60000000000016" y="30.5"><title>2021-11-03 57.4 mins</title></rect><rect fill="#34A7FF" height="4" rx="1" ry="1" width="4" x="247.60000000000016" y="35.9"><title>2021-11-04 65.92 mins</title></rect><rect fill="#34A7FF" height="4" rx="1" ry="1" width="4" x="247.60000000000016" y="41.300000000000004"><title>2021-11-05 71.03 mins</title></rect><rect fill="#57b5fd" height="4" rx="1" ry="1" width="4" x="247.60000000000016" y="46.699999999999996"><title>2021-11-06 48.98 mins</title></rect><rect fill="#57b5fd" height="4" rx="1" ry="1" width="4" x="247.60000000000016" y="52.1"><title>2021-11-07 41.63 mins</title></rect><rect fill="#80c5fc" height="4" rx="1" ry="1" width="4" x="253.00000000000017" y="19.7"><title>2021-11-08 9.3 mins</title></rect><rect fill="#EBEDF0" height="4" rx="1" ry="1" width="4" x="253.00000000000017" y="25.1"><title>2021-11-09</title></rect><rect fill="#81c6fc" height="4" rx="1" ry="1" width="4" x="253.00000000000017" y="30.5"><title>2021-11-10 0.12 mins</title></rect><rect fill="#EBEDF0" height="4" rx="1" ry="1" width="4" x="253.00000000000017" y="35.9"><title>2021-11-11</title></rect><rect fill="#EBEDF0" height="4" rx="1" ry="1" width="4" x="253.00000000000017" y="41.300000000000004"><title>2021-11-12</title></rect><rect fill="#81c6fc" height="4" rx="1" ry="1" width="4" x="253.00000000000017" y="46.699999999999996"><title>2021-11-13 0.5 mins</title></rect><rect fill="#EBEDF0" height="4" rx="1" ry="1" width="4" x="253.00000000000017" y="52.1"><title>2021-11-14</title></rect><rect fill="#EBEDF0" height="4" rx="1" ry="1" width="4" x="258.40000000000015" y="19.7"><title>2021-11-15</title></rect><rect fill="#EBEDF0" height="4" rx="1" ry="1" width="4" x="258.40000000000015" y="25.1"><title>2021-11-16</title></rect><rect fill="#EBEDF0" height="4" rx="1" ry="1" width="4" x="258.40000000000015" y="30.5"><title>2021-11-17</title></rect><rect fill="#EBEDF0" height="4" rx="1" ry="1" width="4" x="258.40000000000015" y="35.9"><title>2021-11-18</title></rect><rect fill="#EBEDF0" height="4" rx="1" ry="1" width="4" x="258.40000000000015" y="41.300000000000004"><title>2021-11-19</title></rect><rect fill="#EBEDF0" height="4" rx="1" ry="1" width="4" x="258.40000000000015" y="46.699999999999996"><title>2021-11-20</title></rect><rect fill="#EBEDF0" height="4" rx="1" ry="1" width="4" x="258.40000000000015" y="52.1"><title>2021-11-21</title></rect><rect fill="#EBEDF0" height="4" rx="1" ry="1" width="4" x="263.8000000000001" y="19.7"><title>2021-11-22</title></rect><rect fill="#EBEDF0" height="4" rx="1" ry="1" width="4" x="263.8000000000001" y="25.1"><title>2021-11-23</title></rect><rect fill="#EBEDF0" height="4" rx="1" ry="1" width="4" x="263.8000000000001" y="30.5"><title>2021-11-24</title></rect><rect fill="#EBEDF0" height="4" rx="1" ry="1" width="4" x="263.8000000000001" y="35.9"><title>2021-11-25</title></rect><rect fill="#EBEDF0" height="4" rx="1" ry="1" width="4" x="263.8000000000001" y="41.300000000000004"><title>2021-11-26</title></rect><rect fill="#EBEDF0" height="4" rx="1" ry="1" width="4" x="263.8000000000001" y="46.699999999999996"><title>2021-11-27</title></rect><rect fill="#EBEDF0" height="4" rx="1" ry="1" width="4" x="263.8000000000001" y="52.1"><title>2021-11-28</title></rect><rect fill="#EBEDF0" height="4" rx="1" ry="1" width="4" x="269.2000000000001" y="19.7"><title>2021-11-29</title></rect><rect fill="#EBEDF0" height="4" rx="1" ry="1" width="4" x="269.2000000000001" y="25.1"><title>2021-11-30</title></rect><rect fill="#EBEDF0" height="4" rx="1" ry="1" width="4" x="269.2000000000001" y="30.5"><title>2021-12-01</title></rect><rect fill="#EBEDF0" height="4" rx="1" ry="1" width="4" x="269.2000000000001" y="35.9"><title>2021-12-02</title></rect><rect fill="#EBEDF0" height="4" rx="1" ry="1" width="4" x="269.2000000000001" y="41.300000000000004"><title>2021-12-03</title></rect><rect fill="#EBEDF0" height="4" rx="1" ry="1" width="4" x="269.2000000000001" y="46.699999999999996"><title>2021-12-04</title></rect><rect fill="#EBEDF0" height="4" rx="1" ry="1" width="4" x="269.2000000000001" y="52.1"><title>2021-12-05</title></rect><text fill="#000000" style="font-size:2.5px; font-family:Arial" x="274.6000000000001" y="18.3">Dec</text><rect fill="#EBEDF0" height="4" rx="1" ry="1" width="4" x="274.6000000000001" y="19.7"><title>2021-12-06</title></rect><rect fill="#EBEDF0" height="4" rx="1" ry="1" width="4" x="274.6000000000001" y="25.1"><title>2021-12-07</title></rect><rect fill="#EBEDF0" height="4" rx="1" ry="1" width="4" x="274.6000000000001" y="30.5"><title>2021-12-08</title></rect><rect fill="#EBEDF0" height="4" rx="1" ry="1" width="4" x="274.6000000000001" y="35.9"><title>2021-12-09</title></rect><rect fill="#EBEDF0" height="4" rx="1" ry="1" width="4" x="274.6000000000001" y="41.300000000000004"><title>2021-12-10</title></rect><rect fill="#EBEDF0" height="4" rx="1" ry="1" width="4" x="274.6000000000001" y="46.699999999999996"><title>2021-12-11</title></rect><rect fill="#EBEDF0" height="4" rx="1" ry="1" width="4" x="274.6000000000001" y="52.1"><title>2021-12-12</title></rect><rect fill="#EBEDF0" height="4" rx="1" ry="1" width="4" x="280.00000000000006" y="19.7"><title>2021-12-13</title></rect><rect fill="#EBEDF0" height="4" rx="1" ry="1" width="4" x="280.00000000000006" y="25.1"><title>2021-12-14</title></rect><rect fill="#EBEDF0" height="4" rx="1" ry="1" width="4" x="280.00000000000006" y="30.5"><title>2021-12-15</title></rect><rect fill="#EBEDF0" height="4" rx="1" ry="1" width="4" x="280.00000000000006" y="35.9"><title>2021-12-16</title></rect><rect fill="#EBEDF0" height="4" rx="1" ry="1" width="4" x="280.00000000000006" y="41.300000000000004"><title>2021-12-17</title></rect><rect fill="#EBEDF0" height="4" rx="1" ry="1" width="4" x="280.00000000000006" y="46.699999999999996"><title>2021-12-18</title></rect><rect fill="#EBEDF0" height="4" rx="1" ry="1" width="4" x="280.00000000000006" y="52.1"><title>2021-12-19</title></rect><rect fill="#EBEDF0" height="4" rx="1" ry="1" width="4" x="285.40000000000003" y="19.7"><title>2021-12-20</title></rect><rect fill="#EBEDF0" height="4" rx="1" ry="1" width="4" x="285.40000000000003" y="25.1"><title>2021-12-21</title></rect><rect fill="#EBEDF0" height="4" rx="1" ry="1" width="4" x="285.40000000000003" y="30.5"><title>2021-12-22</title></rect><rect fill="#EBEDF0" height="4" rx="1" ry="1" width="4" x="285.40000000000003" y="35.9"><title>2021-12-23</title></rect><rect fill="#EBEDF0" height="4" rx="1" ry="1" width="4" x="285.40000000000003" y="41.300000000000004"><title>2021-12-24</title></rect><rect fill="#EBEDF0" height="4" rx="1" ry="1" width="4" x="285.40000000000003" y="46.699999999999996"><title>2021-12-25</title></rect><rect fill="#EBEDF0" height="4" rx="1" ry="1" width="4" x="285.40000000000003" y="52.1"><title>2021-12-26</title></rect><rect fill="#EBEDF0" height="4" rx="1" ry="1" width="4" x="290.8" y="19.7"><title>2021-12-27</title></rect><rect fill="#EBEDF0" height="4" rx="1" ry="1" width="4" x="290.8" y="25.1"><title>2021-12-28</title></rect><rect fill="#7fc5fc" height="4" rx="1" ry="1" width="4" x="290.8" y="30.5"><title>2021-12-29 17.45 mins</title></rect><rect fill="#EBEDF0" height="4" rx="1" ry="1" width="4" x="290.8" y="35.9"><title>2021-12-30</title></rect><rect fill="#EBEDF0" height="4" rx="1" ry="1" width="4" x="290.8" y="41.300000000000004"><title>2021-12-31</title></rect></svg>